<svg xmlns="http://www.w3.org/2000/svg" viewBox="0 0 694.2 407.45"><defs><style>.cls-1{fill:#98e7c1;}.cls-2{fill:#cbf2e0;}.cls-3{fill:#c9f2df;}.cls-4{fill:#34d085;}</style></defs><title>bolt</title><g id="Layer_2" data-name="Layer 2"><g id="Layer_1-2" data-name="Layer 1"><path class="cls-1" d="M.14.5l0-.5H114.36a.6.6,0,0,1-.28.8,7.37,7.37,0,0,1-3.53.46q-53.25,0-106.5,0C2.7,1.26,1.29,1.48.14.5Z"/><path class="cls-2" d="M692.74,247.61c.38-.51.93-.42,1.46-.41v53.28h-.48c-1.05-1.13-.76-2.55-.77-3.87q0-20.56,0-41.12C692.94,252.86,693,250.23,692.74,247.61Z"/><path class="cls-3" d="M114.39.4l0-.4h2.88a3.14,3.14,0,0,1,0,.38A1.87,1.87,0,0,1,114.39.4Z"/><path class="cls-4" d="M692.74,247.61c1.7.29.95,1.64.95,2.49q.07,25.19,0,50.39a73.63,73.63,0,0,1-40.16,8.87c-9.8-.57-19.36-2.25-28.43-6.1-20.35-8.64-32.54-24.09-37.46-45.46a83.33,83.33,0,0,1-2-18.78q0-92.27,0-184.54c0-2.23.52-3.11,2.81-3.58Q621.82,44,655.18,36.75c2.33-.5,2.59.11,2.58,2.2-.08,16.56,0,33.12-.1,49.67,0,2.28.69,2.72,2.79,2.7,10.32-.1,20.64,0,31-.09,1.95,0,2.36.58,2.35,2.42q-.09,33.72,0,67.43c0,2-.61,2.49-2.55,2.47-10.32-.1-20.64,0-31-.09-2,0-2.52.6-2.51,2.56.07,18.48,0,37,.08,55.43a43.91,43.91,0,0,0,2.69,15.74c3.46,9,10.37,13.16,19.92,12.24A75.09,75.09,0,0,0,692.74,247.61Z"/><path class="cls-4" d="M557.81,153.29q0,75.1.06,150.2c0,2.34-.61,2.88-2.9,2.87q-33.35-.14-66.7,0c-2.29,0-2.72-.7-2.72-2.82q.07-142.64,0-285.28c0-2,.5-2.88,2.59-3.31q33.75-7,67.46-14.31c2.34-.5,2.23.6,2.23,2.21q0,68.74,0,137.48Z"/><path class="cls-4" d="M352.66,407.45a36.11,36.11,0,1,1,36.07-36A36.27,36.27,0,0,1,352.66,407.45Z"/><path class="cls-4" d="M219.73,198.84c-2.57-20.46-11.51-38.08-25.84-52.91-1.14-1.18-1-1.92-.29-3.2a92.75,92.75,0,0,0,12.5-57.3A91.61,91.61,0,0,0,181,30.17C163.77,11.85,142.39,2,117.27.38l-2.87,0c-1,0-2.07.08-3.11.08L.14.5c0,.72-.09,1.44-.09,2.15Q0,153.13,0,303.6c0,2.18.54,2.76,2.75,2.76q62.76-.1,125.52,0a72,72,0,0,0,10.28-.72c23.65-3.4,43.56-13.9,59.13-32.07C216.13,252,223.25,226.84,219.73,198.84ZM72.19,94.75c0-6.71,0-13.43,0-20.14,0-1.55.22-2.26,2-2.25,12.71.08,25.41,0,38.12.07,11.61.1,21.44,9.25,22.18,20.4A22.59,22.59,0,0,1,115.57,117a19.48,19.48,0,0,1-3.11.17c-12.63,0-25.25,0-37.88.06-2.1,0-2.47-.69-2.44-2.59C72.26,108,72.19,101.39,72.19,94.75ZM148.5,213.12c-.37,11.37-10.46,21.09-22,21.11-17.36,0-34.71,0-52.07,0-1.77,0-2.29-.42-2.28-2.24q.12-20.16,0-40.31c0-2,.69-2.36,2.48-2.35,9,.08,17.92,0,26.88,0v.11c8.8,0,17.61-.3,26.39.07C139.93,190.1,148.91,200.6,148.5,213.12Z"/><path class="cls-4" d="M352.72,87.17a111.16,111.16,0,0,0-2,222.31c62.9,1,112.09-49.25,113.06-109.33C464.8,139.38,416.45,87.25,352.72,87.17Zm-.4,147.07a35.93,35.93,0,0,1,.41-71.87c19.92-.13,35.79,16.16,35.78,36.16A35.76,35.76,0,0,1,352.32,234.24Z"/></g></g></svg>