<svg xmlns="http://www.w3.org/2000/svg" viewBox="0 0 694.2 407.45"><defs><style>.cls-4{fill:#34d085}</style></defs><g id="Layer_2" data-name="Layer 2"><g id="Layer_1-2" data-name="Layer 1"><path d="M.14.5V0h114.22a.6.6 0 01-.28.8 7.37 7.37 0 01-3.53.46H4.05C2.7 1.26 1.29 1.48.14.5z" fill="#98e7c1"/><path d="M692.74 247.61c.38-.51.93-.42 1.46-.41v53.28h-.48c-1.05-1.13-.76-2.55-.77-3.87v-41.12c-.01-2.63.05-5.26-.21-7.88z" fill="#cbf2e0"/><path d="M114.39.4V0h2.88a3.14 3.14 0 010 .38 1.87 1.87 0 01-2.88.02z" fill="#c9f2df"/><path class="cls-4" d="M692.74 247.61c1.7.29.95 1.64.95 2.49q.07 25.19 0 50.39a73.63 73.63 0 01-40.16 8.87c-9.8-.57-19.36-2.25-28.43-6.1-20.35-8.64-32.54-24.09-37.46-45.46a83.33 83.33 0 01-2-18.78V54.48c0-2.23.52-3.11 2.81-3.58q33.37-6.9 66.73-14.15c2.33-.5 2.59.11 2.58 2.2-.08 16.56 0 33.12-.1 49.67 0 2.28.69 2.72 2.79 2.7 10.32-.1 20.64 0 31-.09 1.95 0 2.36.58 2.35 2.42q-.09 33.72 0 67.43c0 2-.61 2.49-2.55 2.47-10.32-.1-20.64 0-31-.09-2 0-2.52.6-2.51 2.56.07 18.48 0 37 .08 55.43a43.91 43.91 0 002.69 15.74c3.46 9 10.37 13.16 19.92 12.24a75.09 75.09 0 0012.31-1.82zM557.81 153.29q0 75.1.06 150.2c0 2.34-.61 2.88-2.9 2.87q-33.35-.14-66.7 0c-2.29 0-2.72-.7-2.72-2.82q.07-142.64 0-285.28c0-2 .5-2.88 2.59-3.31q33.75-7 67.46-14.31c2.34-.5 2.23.6 2.23 2.21v137.48zM352.66 407.45a36.11 36.11 0 1136.07-36 36.27 36.27 0 01-36.07 36zM219.73 198.84c-2.57-20.46-11.51-38.08-25.84-52.91-1.14-1.18-1-1.92-.29-3.2a92.75 92.75 0 0012.5-57.3A91.61 91.61 0 00181 30.17C163.77 11.85 142.39 2 117.27.38h-2.87c-1 0-2.07.08-3.11.08L.14.5c0 .72-.09 1.44-.09 2.15Q0 153.13 0 303.6c0 2.18.54 2.76 2.75 2.76q62.76-.1 125.52 0a72 72 0 0010.28-.72c23.65-3.4 43.56-13.9 59.13-32.07 18.45-21.57 25.57-46.73 22.05-74.73zM72.19 94.75V74.61c0-1.55.22-2.26 2-2.25 12.71.08 25.41 0 38.12.07 11.61.1 21.44 9.25 22.18 20.4A22.59 22.59 0 01115.57 117a19.48 19.48 0 01-3.11.17c-12.63 0-25.25 0-37.88.06-2.1 0-2.47-.69-2.44-2.59.12-6.64.05-13.25.05-19.89zm76.31 118.37c-.37 11.37-10.46 21.09-22 21.11H74.43c-1.77 0-2.29-.42-2.28-2.24q.12-20.16 0-40.31c0-2 .69-2.36 2.48-2.35 9 .08 17.92 0 26.88 0v.11c8.8 0 17.61-.3 26.39.07 12.03.59 21.01 11.09 20.6 23.61zM352.72 87.17a111.16 111.16 0 00-2 222.31c62.9 1 112.09-49.25 113.06-109.33 1.02-60.77-47.33-112.9-111.06-112.98zm-.4 147.07a35.93 35.93 0 01.41-71.87c19.92-.13 35.79 16.16 35.78 36.16a35.76 35.76 0 01-36.19 35.71z"/></g></g></svg>