<svg width="1895" height="414" viewBox="0 0 1895 414" fill="none" xmlns="http://www.w3.org/2000/svg">
<path d="M1609.27 217.65C1604.53 212.926 1596.62 216.469 1596.62 222.768V227.492V257.413V262.137C1596.62 268.83 1604.53 271.98 1609.27 267.255L1629.83 246.783C1632.2 244.421 1632.2 240.878 1629.83 238.516L1609.27 217.65Z" fill="white"/>
<path d="M1609.27 289.205C1604.53 284.481 1596.62 288.024 1596.62 294.323V299.047V328.968V333.692C1596.62 340.385 1604.53 343.534 1609.27 338.81L1629.83 318.338C1632.2 315.976 1632.2 312.433 1629.83 310.071L1609.27 289.205Z" fill="white"/>
<path d="M1609.27 361.154C1604.53 356.43 1596.62 359.973 1596.62 366.272V370.996V400.917V405.641C1596.62 412.334 1604.53 415.484 1609.27 410.759L1629.83 390.287C1632.2 387.925 1632.2 384.382 1629.83 382.02L1609.27 361.154Z" fill="white"/>
<path d="M1767.11 217.65C1762.37 212.926 1754.46 216.469 1754.46 222.768V227.492V257.413V262.137C1754.46 268.83 1762.37 271.98 1767.11 267.255L1787.67 246.783C1790.04 244.421 1790.04 240.878 1787.67 238.516L1767.11 217.65Z" fill="white"/>
<path d="M1767.11 289.205C1762.37 284.481 1754.46 288.024 1754.46 294.323V299.047V328.968V333.692C1754.46 340.385 1762.37 343.534 1767.11 338.81L1787.67 318.338C1790.04 315.976 1790.04 312.433 1787.67 310.071L1767.11 289.205Z" fill="white"/>
<path d="M1767.11 361.154C1762.37 356.43 1754.46 359.973 1754.46 366.272V370.996V400.917V405.641C1754.46 412.334 1762.37 415.484 1767.11 410.759L1787.67 390.287C1790.04 387.925 1790.04 384.382 1787.67 382.02L1767.11 361.154Z" fill="white"/>
<path d="M1661.88 217.65C1657.14 212.926 1649.23 216.469 1649.23 222.768V227.492V257.413V262.137C1649.23 268.83 1657.14 271.98 1661.88 267.255L1682.44 246.783C1684.81 244.421 1684.81 240.878 1682.44 238.516L1661.88 217.65Z" fill="white"/>
<path d="M1661.88 289.205C1657.14 284.481 1649.23 288.024 1649.23 294.323V299.047V328.968V333.692C1649.23 340.385 1657.14 343.534 1661.88 338.81L1682.44 318.338C1684.81 315.976 1684.81 312.433 1682.44 310.071L1661.88 289.205Z" fill="white"/>
<path d="M1661.88 361.154C1657.14 356.43 1649.23 359.973 1649.23 366.272V370.996V400.917V405.641C1649.23 412.334 1657.14 415.484 1661.88 410.759L1682.44 390.287C1684.81 387.925 1684.81 384.382 1682.44 382.02L1661.88 361.154Z" fill="white"/>
<path d="M1819.72 217.65C1814.98 212.926 1807.07 216.469 1807.07 222.768V227.492V257.413V262.137C1807.07 268.83 1814.98 271.98 1819.72 267.255L1840.28 246.783C1842.65 244.421 1842.65 240.878 1840.28 238.516L1819.72 217.65Z" fill="white"/>
<path d="M1819.72 289.205C1814.98 284.481 1807.07 288.024 1807.07 294.323V299.047V328.968V333.692C1807.07 340.385 1814.98 343.534 1819.72 338.81L1840.28 318.338C1842.65 315.976 1842.65 312.433 1840.28 310.071L1819.72 289.205Z" fill="white"/>
<path d="M1819.72 361.154C1814.98 356.43 1807.07 359.973 1807.07 366.272V370.996V400.917V405.641C1807.07 412.334 1814.98 415.484 1819.72 410.759L1840.28 390.287C1842.65 387.925 1842.65 384.382 1840.28 382.02L1819.72 361.154Z" fill="white"/>
<path d="M1714.5 217.256C1709.75 212.532 1701.85 216.075 1701.85 222.374V227.098V257.019V261.743C1701.85 268.436 1709.75 271.585 1714.5 266.861L1735.05 246.389C1737.43 244.027 1737.43 240.484 1735.05 238.122L1714.5 217.256Z" fill="white"/>
<path d="M1714.5 288.811C1709.75 284.087 1701.85 287.63 1701.85 293.929V298.653V328.574V333.298C1701.85 339.991 1709.75 343.14 1714.5 338.416L1735.05 317.944C1737.43 315.582 1737.43 312.039 1735.05 309.677L1714.5 288.811Z" fill="white"/>
<path d="M1714.5 360.76C1709.75 356.036 1701.85 359.579 1701.85 365.878V370.602V400.523V405.247C1701.85 411.94 1709.75 415.09 1714.5 410.365L1735.05 389.893C1737.43 387.531 1737.43 383.988 1735.05 381.626L1714.5 360.76Z" fill="white"/>
<path d="M1556.66 217.256C1551.91 212.532 1544.01 216.075 1544.01 222.374V227.098V257.019V261.743C1544.01 268.436 1551.91 271.585 1556.66 266.861L1577.21 246.389C1579.59 244.027 1579.59 240.484 1577.21 238.122L1556.66 217.256Z" fill="white"/>
<path d="M1872.34 217.256C1867.59 212.532 1859.69 216.075 1859.69 222.374V227.098V257.019V261.743C1859.69 268.436 1867.59 271.585 1872.34 266.861L1892.89 246.389C1895.27 244.027 1895.27 240.484 1892.89 238.122L1872.34 217.256Z" fill="white"/>
<path d="M1556.66 288.811C1551.91 284.087 1544.01 287.63 1544.01 293.929V298.653V328.574V333.298C1544.01 339.991 1551.91 343.14 1556.66 338.416L1577.21 317.944C1579.59 315.582 1579.59 312.039 1577.21 309.677L1556.66 288.811Z" fill="white"/>
<path d="M1872.34 288.811C1867.59 284.087 1859.69 287.63 1859.69 293.929V298.653V328.574V333.298C1859.69 339.991 1867.59 343.14 1872.34 338.416L1892.89 317.944C1895.27 315.582 1895.27 312.039 1892.89 309.677L1872.34 288.811Z" fill="white"/>
<path d="M1556.66 360.76C1551.91 356.036 1544.01 359.579 1544.01 365.878V370.602V400.523V405.247C1544.01 411.94 1551.91 415.09 1556.66 410.365L1577.21 389.893C1579.59 387.531 1579.59 383.988 1577.21 381.626L1556.66 360.76Z" fill="white"/>
<path d="M1872.34 360.76C1867.59 356.036 1859.69 359.579 1859.69 365.878V370.602V400.523V405.247C1859.69 411.94 1867.59 415.09 1872.34 410.365L1892.89 389.893C1895.27 387.531 1895.27 383.988 1892.89 381.626L1872.34 360.76Z" fill="white"/>
<path d="M66.1285 217.65C61.3847 212.926 53.4783 216.469 53.4783 222.768V227.492V257.413V262.137C53.4783 268.83 61.3847 271.98 66.1285 267.255L86.6851 246.783C89.057 244.421 89.057 240.878 86.6851 238.516L66.1285 217.65Z" fill="white"/>
<path d="M66.1285 289.205C61.3847 284.481 53.4783 288.024 53.4783 294.323V299.047V328.968V333.692C53.4783 340.385 61.3847 343.534 66.1285 338.81L86.6851 318.338C89.057 315.976 89.057 312.433 86.6851 310.071L66.1285 289.205Z" fill="white"/>
<path d="M66.1285 361.154C61.3847 356.43 53.4783 359.973 53.4783 366.272V370.996V400.917V405.641C53.4783 412.334 61.3847 415.484 66.1285 410.759L86.6851 390.287C89.057 387.925 89.057 384.382 86.6851 382.02L66.1285 361.154Z" fill="white"/>
<path d="M223.968 217.65C219.224 212.926 211.318 216.469 211.318 222.768V227.492V257.413V262.137C211.318 268.83 219.224 271.98 223.968 267.255L244.525 246.783C246.897 244.421 246.897 240.878 244.525 238.516L223.968 217.65Z" fill="white"/>
<path d="M223.968 289.205C219.224 284.481 211.318 288.024 211.318 294.323V299.047V328.968V333.692C211.318 340.385 219.224 343.534 223.968 338.81L244.525 318.338C246.897 315.976 246.897 312.433 244.525 310.071L223.968 289.205Z" fill="white"/>
<path d="M223.968 361.154C219.224 356.43 211.318 359.973 211.318 366.272V370.996V400.917V405.641C211.318 412.334 219.224 415.484 223.968 410.759L244.525 390.287C246.897 387.925 246.897 384.382 244.525 382.02L223.968 361.154Z" fill="white"/>
<path d="M118.742 217.65C113.998 212.926 106.092 216.469 106.092 222.768V227.492V257.413V262.137C106.092 268.83 113.998 271.98 118.742 267.255L139.298 246.783C141.67 244.421 141.67 240.878 139.298 238.516L118.742 217.65Z" fill="white"/>
<path d="M118.742 289.205C113.998 284.481 106.092 288.024 106.092 294.323V299.047V328.968V333.692C106.092 340.385 113.998 343.534 118.742 338.81L139.298 318.338C141.67 315.976 141.67 312.433 139.298 310.071L118.742 289.205Z" fill="white"/>
<path d="M118.742 361.154C113.998 356.43 106.092 359.973 106.092 366.272V370.996V400.917V405.641C106.092 412.334 113.998 415.484 118.742 410.759L139.298 390.287C141.67 387.925 141.67 384.382 139.298 382.02L118.742 361.154Z" fill="white"/>
<path d="M276.581 217.65C271.838 212.926 263.931 216.469 263.931 222.768V227.492V257.413V262.137C263.931 268.83 271.838 271.98 276.581 267.255L297.138 246.783C299.51 244.421 299.51 240.878 297.138 238.516L276.581 217.65Z" fill="white"/>
<path d="M276.581 289.205C271.838 284.481 263.931 288.024 263.931 294.323V299.047V328.968V333.692C263.931 340.385 271.838 343.534 276.581 338.81L297.138 318.338C299.51 315.976 299.51 312.433 297.138 310.071L276.581 289.205Z" fill="white"/>
<path d="M276.581 361.154C271.838 356.43 263.931 359.973 263.931 366.272V370.996V400.917V405.641C263.931 412.334 271.838 415.484 276.581 410.759L297.138 390.287C299.51 387.925 299.51 384.382 297.138 382.02L276.581 361.154Z" fill="white"/>
<path d="M171.355 217.256C166.611 212.532 158.705 216.075 158.705 222.374V227.098V257.019V261.743C158.705 268.436 166.611 271.585 171.355 266.861L191.911 246.389C194.283 244.027 194.283 240.484 191.911 238.122L171.355 217.256Z" fill="white"/>
<path d="M171.355 288.811C166.611 284.087 158.705 287.63 158.705 293.929V298.653V328.574V333.298C158.705 339.991 166.611 343.14 171.355 338.416L191.911 317.944C194.283 315.582 194.283 312.039 191.911 309.677L171.355 288.811Z" fill="white"/>
<path d="M171.355 360.76C166.611 356.036 158.705 359.579 158.705 365.878V370.602V400.523V405.247C158.705 411.94 166.611 415.09 171.355 410.365L191.911 389.893C194.283 387.531 194.283 383.988 191.911 381.626L171.355 360.76Z" fill="white"/>
<path d="M13.5148 217.256C8.77094 212.532 0.864502 216.075 0.864502 222.374V227.098V257.019V261.743C0.864502 268.436 8.77094 271.585 13.5148 266.861L34.0714 246.389C36.4433 244.027 36.4433 240.484 34.0714 238.122L13.5148 217.256Z" fill="white"/>
<path d="M329.194 217.256C324.451 212.532 316.544 216.075 316.544 222.374V227.098V257.019V261.743C316.544 268.436 324.451 271.585 329.194 266.861L349.751 246.389C352.123 244.027 352.123 240.484 349.751 238.122L329.194 217.256Z" fill="white"/>
<path d="M13.5148 288.811C8.77094 284.087 0.864502 287.63 0.864502 293.929V298.653V328.574V333.298C0.864502 339.991 8.77094 343.14 13.5148 338.416L34.0714 317.944C36.4433 315.582 36.4433 312.039 34.0714 309.677L13.5148 288.811Z" fill="white"/>
<path d="M329.194 288.811C324.451 284.087 316.544 287.63 316.544 293.929V298.653V328.574V333.298C316.544 339.991 324.451 343.14 329.194 338.416L349.751 317.944C352.123 315.582 352.123 312.039 349.751 309.677L329.194 288.811Z" fill="white"/>
<path d="M13.5148 360.76C8.77094 356.036 0.864502 359.579 0.864502 365.878V370.602V400.523V405.247C0.864502 411.94 8.77094 415.09 13.5148 410.365L34.0714 389.893C36.4433 387.531 36.4433 383.988 34.0714 381.626L13.5148 360.76Z" fill="white"/>
<path d="M329.194 360.76C324.451 356.036 316.544 359.579 316.544 365.878V370.602V400.523V405.247C316.544 411.94 324.451 415.09 329.194 410.365L349.751 389.893C352.123 387.531 352.123 383.988 349.751 381.626L329.194 360.76Z" fill="white"/>
<path d="M1609.27 3.23646C1604.53 -1.48785 1596.62 2.05538 1596.62 8.35445V13.0788V42.9993V47.7236C1596.62 54.4164 1604.53 57.566 1609.27 52.8416L1629.83 32.3697C1632.2 30.0075 1632.2 26.4643 1629.83 24.1021L1609.27 3.23646Z" fill="white"/>
<path d="M1609.27 74.7914C1604.53 70.0671 1596.62 73.6103 1596.62 79.9094V84.6337V114.554V119.279C1596.62 125.971 1604.53 129.121 1609.27 124.397L1629.83 103.925C1632.2 101.562 1632.2 98.0192 1629.83 95.6571L1609.27 74.7914Z" fill="white"/>
<path d="M1609.27 146.741C1604.53 142.016 1596.62 145.56 1596.62 151.859V156.583V186.503V191.228C1596.62 197.921 1604.53 201.07 1609.27 196.346L1629.83 175.874C1632.2 173.512 1632.2 169.968 1629.83 167.606L1609.27 146.741Z" fill="white"/>
<path d="M1767.11 3.23646C1762.37 -1.48785 1754.46 2.05538 1754.46 8.35445V13.0788V42.9993V47.7236C1754.46 54.4164 1762.37 57.566 1767.11 52.8416L1787.67 32.3697C1790.04 30.0075 1790.04 26.4643 1787.67 24.1021L1767.11 3.23646Z" fill="white"/>
<path d="M1767.11 74.7914C1762.37 70.0671 1754.46 73.6103 1754.46 79.9094V84.6337V114.554V119.279C1754.46 125.971 1762.37 129.121 1767.11 124.397L1787.67 103.925C1790.04 101.562 1790.04 98.0192 1787.67 95.6571L1767.11 74.7914Z" fill="white"/>
<path d="M1767.11 146.741C1762.37 142.016 1754.46 145.56 1754.46 151.859V156.583V186.503V191.228C1754.46 197.921 1762.37 201.07 1767.11 196.346L1787.67 175.874C1790.04 173.512 1790.04 169.968 1787.67 167.606L1767.11 146.741Z" fill="white"/>
<path d="M1661.88 3.23646C1657.14 -1.48785 1649.23 2.05538 1649.23 8.35445V13.0788V42.9993V47.7236C1649.23 54.4164 1657.14 57.566 1661.88 52.8416L1682.44 32.3697C1684.81 30.0075 1684.81 26.4643 1682.44 24.1021L1661.88 3.23646Z" fill="white"/>
<path d="M1661.88 74.7914C1657.14 70.0671 1649.23 73.6103 1649.23 79.9094V84.6337V114.554V119.279C1649.23 125.971 1657.14 129.121 1661.88 124.397L1682.44 103.925C1684.81 101.562 1684.81 98.0192 1682.44 95.6571L1661.88 74.7914Z" fill="white"/>
<path d="M1661.88 146.741C1657.14 142.016 1649.23 145.56 1649.23 151.859V156.583V186.503V191.228C1649.23 197.921 1657.14 201.07 1661.88 196.346L1682.44 175.874C1684.81 173.512 1684.81 169.968 1682.44 167.606L1661.88 146.741Z" fill="white"/>
<path d="M1819.72 3.23646C1814.98 -1.48785 1807.07 2.05538 1807.07 8.35445V13.0788V42.9993V47.7236C1807.07 54.4164 1814.98 57.566 1819.72 52.8416L1840.28 32.3697C1842.65 30.0075 1842.65 26.4643 1840.28 24.1021L1819.72 3.23646Z" fill="white"/>
<path d="M1819.72 74.7914C1814.98 70.0671 1807.07 73.6103 1807.07 79.9094V84.6337V114.554V119.279C1807.07 125.971 1814.98 129.121 1819.72 124.397L1840.28 103.925C1842.65 101.562 1842.65 98.0192 1840.28 95.6571L1819.72 74.7914Z" fill="white"/>
<path d="M1819.72 146.741C1814.98 142.016 1807.07 145.56 1807.07 151.859V156.583V186.503V191.228C1807.07 197.921 1814.98 201.07 1819.72 196.346L1840.28 175.874C1842.65 173.512 1842.65 169.968 1840.28 167.606L1819.72 146.741Z" fill="white"/>
<path d="M1714.5 2.84241C1709.75 -1.88189 1701.85 1.66134 1701.85 7.96041V12.6847V42.6053V47.3296C1701.85 54.0224 1709.75 57.1719 1714.5 52.4476L1735.05 31.9756C1737.43 29.6135 1737.43 26.0702 1735.05 23.7081L1714.5 2.84241Z" fill="white"/>
<path d="M1714.5 74.3973C1709.75 69.673 1701.85 73.2163 1701.85 79.5153V84.2396V114.16V118.885C1701.85 125.577 1709.75 128.727 1714.5 124.003L1735.05 103.531C1737.43 101.168 1737.43 97.6252 1735.05 95.263L1714.5 74.3973Z" fill="white"/>
<path d="M1714.5 146.347C1709.75 141.622 1701.85 145.165 1701.85 151.465V156.189V186.109V190.834C1701.85 197.527 1709.75 200.676 1714.5 195.952L1735.05 175.48C1737.43 173.118 1737.43 169.574 1735.05 167.212L1714.5 146.347Z" fill="white"/>
<path d="M1556.66 2.84241C1551.91 -1.88189 1544.01 1.66134 1544.01 7.96041V12.6847V42.6053V47.3296C1544.01 54.0224 1551.91 57.1719 1556.66 52.4476L1577.21 31.9756C1579.59 29.6135 1579.59 26.0702 1577.21 23.7081L1556.66 2.84241Z" fill="white"/>
<path d="M1872.34 2.84241C1867.59 -1.88189 1859.69 1.66134 1859.69 7.96041V12.6847V42.6053V47.3296C1859.69 54.0224 1867.59 57.1719 1872.34 52.4476L1892.89 31.9756C1895.27 29.6135 1895.27 26.0702 1892.89 23.7081L1872.34 2.84241Z" fill="white"/>
<path d="M1556.66 74.3973C1551.91 69.673 1544.01 73.2163 1544.01 79.5153V84.2396V114.16V118.885C1544.01 125.577 1551.91 128.727 1556.66 124.003L1577.21 103.531C1579.59 101.168 1579.59 97.6252 1577.21 95.263L1556.66 74.3973Z" fill="white"/>
<path d="M1872.34 74.3973C1867.59 69.673 1859.69 73.2163 1859.69 79.5153V84.2396V114.16V118.885C1859.69 125.577 1867.59 128.727 1872.34 124.003L1892.89 103.531C1895.27 101.168 1895.27 97.6252 1892.89 95.263L1872.34 74.3973Z" fill="white"/>
<path d="M1556.66 146.347C1551.91 141.622 1544.01 145.165 1544.01 151.465V156.189V186.109V190.834C1544.01 197.527 1551.91 200.676 1556.66 195.952L1577.21 175.48C1579.59 173.118 1579.59 169.574 1577.21 167.212L1556.66 146.347Z" fill="white"/>
<path d="M1872.34 146.347C1867.59 141.622 1859.69 145.165 1859.69 151.465V156.189V186.109V190.834C1859.69 197.527 1867.59 200.676 1872.34 195.952L1892.89 175.48C1895.27 173.118 1895.27 169.574 1892.89 167.212L1872.34 146.347Z" fill="white"/>
<path d="M66.1285 3.23646C61.3847 -1.48785 53.4783 2.05538 53.4783 8.35445V13.0788V42.9993V47.7236C53.4783 54.4164 61.3847 57.566 66.1285 52.8416L86.6851 32.3697C89.057 30.0075 89.057 26.4643 86.6851 24.1021L66.1285 3.23646Z" fill="white"/>
<path d="M66.1285 74.7914C61.3847 70.0671 53.4783 73.6103 53.4783 79.9094V84.6337V114.554V119.279C53.4783 125.971 61.3847 129.121 66.1285 124.397L86.6851 103.925C89.057 101.562 89.057 98.0192 86.6851 95.6571L66.1285 74.7914Z" fill="white"/>
<path d="M66.1285 146.741C61.3847 142.016 53.4783 145.56 53.4783 151.859V156.583V186.503V191.228C53.4783 197.921 61.3847 201.07 66.1285 196.346L86.6851 175.874C89.057 173.512 89.057 169.968 86.6851 167.606L66.1285 146.741Z" fill="white"/>
<path d="M223.968 3.23646C219.224 -1.48785 211.318 2.05538 211.318 8.35445V13.0788V42.9993V47.7236C211.318 54.4164 219.224 57.566 223.968 52.8416L244.525 32.3697C246.897 30.0075 246.897 26.4643 244.525 24.1021L223.968 3.23646Z" fill="white"/>
<path d="M223.968 74.7914C219.224 70.0671 211.318 73.6103 211.318 79.9094V84.6337V114.554V119.279C211.318 125.971 219.224 129.121 223.968 124.397L244.525 103.925C246.897 101.562 246.897 98.0192 244.525 95.6571L223.968 74.7914Z" fill="white"/>
<path d="M223.968 146.741C219.224 142.016 211.318 145.56 211.318 151.859V156.583V186.503V191.228C211.318 197.921 219.224 201.07 223.968 196.346L244.525 175.874C246.897 173.512 246.897 169.968 244.525 167.606L223.968 146.741Z" fill="white"/>
<path d="M118.742 3.23646C113.998 -1.48785 106.092 2.05538 106.092 8.35445V13.0788V42.9993V47.7236C106.092 54.4164 113.998 57.566 118.742 52.8416L139.298 32.3697C141.67 30.0075 141.67 26.4643 139.298 24.1021L118.742 3.23646Z" fill="white"/>
<path d="M118.742 74.7914C113.998 70.0671 106.092 73.6103 106.092 79.9094V84.6337V114.554V119.279C106.092 125.971 113.998 129.121 118.742 124.397L139.298 103.925C141.67 101.562 141.67 98.0192 139.298 95.6571L118.742 74.7914Z" fill="white"/>
<path d="M118.742 146.741C113.998 142.016 106.092 145.56 106.092 151.859V156.583V186.503V191.228C106.092 197.921 113.998 201.07 118.742 196.346L139.298 175.874C141.67 173.512 141.67 169.968 139.298 167.606L118.742 146.741Z" fill="white"/>
<path d="M276.581 3.23646C271.838 -1.48785 263.931 2.05538 263.931 8.35445V13.0788V42.9993V47.7236C263.931 54.4164 271.838 57.566 276.581 52.8416L297.138 32.3697C299.51 30.0075 299.51 26.4643 297.138 24.1021L276.581 3.23646Z" fill="white"/>
<path d="M276.581 74.7914C271.838 70.0671 263.931 73.6103 263.931 79.9094V84.6337V114.554V119.279C263.931 125.971 271.838 129.121 276.581 124.397L297.138 103.925C299.51 101.562 299.51 98.0192 297.138 95.6571L276.581 74.7914Z" fill="white"/>
<path d="M276.581 146.741C271.838 142.016 263.931 145.56 263.931 151.859V156.583V186.503V191.228C263.931 197.921 271.838 201.07 276.581 196.346L297.138 175.874C299.51 173.512 299.51 169.968 297.138 167.606L276.581 146.741Z" fill="white"/>
<path d="M171.355 2.84241C166.611 -1.88189 158.705 1.66134 158.705 7.96041V12.6847V42.6053V47.3296C158.705 54.0224 166.611 57.1719 171.355 52.4476L191.911 31.9756C194.283 29.6135 194.283 26.0702 191.911 23.7081L171.355 2.84241Z" fill="white"/>
<path d="M171.355 74.3973C166.611 69.673 158.705 73.2163 158.705 79.5153V84.2396V114.16V118.885C158.705 125.577 166.611 128.727 171.355 124.003L191.911 103.531C194.283 101.168 194.283 97.6252 191.911 95.263L171.355 74.3973Z" fill="white"/>
<path d="M171.355 146.347C166.611 141.622 158.705 145.165 158.705 151.465V156.189V186.109V190.834C158.705 197.527 166.611 200.676 171.355 195.952L191.911 175.48C194.283 173.118 194.283 169.574 191.911 167.212L171.355 146.347Z" fill="white"/>
<path d="M13.5148 2.84241C8.77094 -1.88189 0.864502 1.66134 0.864502 7.96041V12.6847V42.6053V47.3296C0.864502 54.0224 8.77094 57.1719 13.5148 52.4476L34.0714 31.9756C36.4433 29.6135 36.4433 26.0702 34.0714 23.7081L13.5148 2.84241Z" fill="white"/>
<path d="M329.194 2.84241C324.451 -1.88189 316.544 1.66134 316.544 7.96041V12.6847V42.6053V47.3296C316.544 54.0224 324.451 57.1719 329.194 52.4476L349.751 31.9756C352.123 29.6135 352.123 26.0702 349.751 23.7081L329.194 2.84241Z" fill="white"/>
<path d="M13.5148 74.3973C8.77094 69.673 0.864502 73.2163 0.864502 79.5153V84.2396V114.16V118.885C0.864502 125.577 8.77094 128.727 13.5148 124.003L34.0714 103.531C36.4433 101.168 36.4433 97.6252 34.0714 95.263L13.5148 74.3973Z" fill="white"/>
<path d="M329.194 74.3973C324.451 69.673 316.544 73.2163 316.544 79.5153V84.2396V114.16V118.885C316.544 125.577 324.451 128.727 329.194 124.003L349.751 103.531C352.123 101.168 352.123 97.6252 349.751 95.263L329.194 74.3973Z" fill="white"/>
<path d="M13.5148 146.347C8.77094 141.622 0.864502 145.165 0.864502 151.465V156.189V186.109V190.834C0.864502 197.527 8.77094 200.676 13.5148 195.952L34.0714 175.48C36.4433 173.118 36.4433 169.574 34.0714 167.212L13.5148 146.347Z" fill="white"/>
<path d="M329.194 146.347C324.451 141.622 316.544 145.165 316.544 151.465V156.189V186.109V190.834C316.544 197.527 324.451 200.676 329.194 195.952L349.751 175.48C352.123 173.118 352.123 169.574 349.751 167.212L329.194 146.347Z" fill="white"/>
</svg>
