<svg width="1895" height="414" fill="none" xmlns="http://www.w3.org/2000/svg"><path d="M1609.27 217.65c-4.74-4.724-12.65-1.181-12.65 5.118v39.369c0 6.693 7.91 9.843 12.65 5.118l20.56-20.472c2.37-2.362 2.37-5.905 0-8.267l-20.56-20.866zM1609.27 289.205c-4.74-4.724-12.65-1.181-12.65 5.118v39.369c0 6.693 7.91 9.842 12.65 5.118l20.56-20.472c2.37-2.362 2.37-5.905 0-8.267l-20.56-20.866zM1609.27 361.154c-4.74-4.724-12.65-1.181-12.65 5.118v39.369c0 6.693 7.91 9.843 12.65 5.118l20.56-20.472c2.37-2.362 2.37-5.905 0-8.267l-20.56-20.866zM1767.11 217.65c-4.74-4.724-12.65-1.181-12.65 5.118v39.369c0 6.693 7.91 9.843 12.65 5.118l20.56-20.472c2.37-2.362 2.37-5.905 0-8.267l-20.56-20.866zM1767.11 289.205c-4.74-4.724-12.65-1.181-12.65 5.118v39.369c0 6.693 7.91 9.842 12.65 5.118l20.56-20.472c2.37-2.362 2.37-5.905 0-8.267l-20.56-20.866zM1767.11 361.154c-4.74-4.724-12.65-1.181-12.65 5.118v39.369c0 6.693 7.91 9.843 12.65 5.118l20.56-20.472c2.37-2.362 2.37-5.905 0-8.267l-20.56-20.866zM1661.88 217.65c-4.74-4.724-12.65-1.181-12.65 5.118v39.369c0 6.693 7.91 9.843 12.65 5.118l20.56-20.472c2.37-2.362 2.37-5.905 0-8.267l-20.56-20.866zM1661.88 289.205c-4.74-4.724-12.65-1.181-12.65 5.118v39.369c0 6.693 7.91 9.842 12.65 5.118l20.56-20.472c2.37-2.362 2.37-5.905 0-8.267l-20.56-20.866zM1661.88 361.154c-4.74-4.724-12.65-1.181-12.65 5.118v39.369c0 6.693 7.91 9.843 12.65 5.118l20.56-20.472c2.37-2.362 2.37-5.905 0-8.267l-20.56-20.866zM1819.72 217.65c-4.74-4.724-12.65-1.181-12.65 5.118v39.369c0 6.693 7.91 9.843 12.65 5.118l20.56-20.472c2.37-2.362 2.37-5.905 0-8.267l-20.56-20.866zM1819.72 289.205c-4.74-4.724-12.65-1.181-12.65 5.118v39.369c0 6.693 7.91 9.842 12.65 5.118l20.56-20.472c2.37-2.362 2.37-5.905 0-8.267l-20.56-20.866zM1819.72 361.154c-4.74-4.724-12.65-1.181-12.65 5.118v39.369c0 6.693 7.91 9.843 12.65 5.118l20.56-20.472c2.37-2.362 2.37-5.905 0-8.267l-20.56-20.866zM1714.5 217.256c-4.75-4.724-12.65-1.181-12.65 5.118v39.369c0 6.693 7.9 9.842 12.65 5.118l20.55-20.472c2.38-2.362 2.38-5.905 0-8.267l-20.55-20.866zM1714.5 288.811c-4.75-4.724-12.65-1.181-12.65 5.118v39.369c0 6.693 7.9 9.842 12.65 5.118l20.55-20.472c2.38-2.362 2.38-5.905 0-8.267l-20.55-20.866zM1714.5 360.76c-4.75-4.724-12.65-1.181-12.65 5.118v39.369c0 6.693 7.9 9.843 12.65 5.118l20.55-20.472c2.38-2.362 2.38-5.905 0-8.267l-20.55-20.866zM1556.66 217.256c-4.75-4.724-12.65-1.181-12.65 5.118v39.369c0 6.693 7.9 9.842 12.65 5.118l20.55-20.472c2.38-2.362 2.38-5.905 0-8.267l-20.55-20.866zM1872.34 217.256c-4.75-4.724-12.65-1.181-12.65 5.118v39.369c0 6.693 7.9 9.842 12.65 5.118l20.55-20.472c2.38-2.362 2.38-5.905 0-8.267l-20.55-20.866zM1556.66 288.811c-4.75-4.724-12.65-1.181-12.65 5.118v39.369c0 6.693 7.9 9.842 12.65 5.118l20.55-20.472c2.38-2.362 2.38-5.905 0-8.267l-20.55-20.866zM1872.34 288.811c-4.75-4.724-12.65-1.181-12.65 5.118v39.369c0 6.693 7.9 9.842 12.65 5.118l20.55-20.472c2.38-2.362 2.38-5.905 0-8.267l-20.55-20.866zM1556.66 360.76c-4.75-4.724-12.65-1.181-12.65 5.118v39.369c0 6.693 7.9 9.843 12.65 5.118l20.55-20.472c2.38-2.362 2.38-5.905 0-8.267l-20.55-20.866zM1872.34 360.76c-4.75-4.724-12.65-1.181-12.65 5.118v39.369c0 6.693 7.9 9.843 12.65 5.118l20.55-20.472c2.38-2.362 2.38-5.905 0-8.267l-20.55-20.866zM66.129 217.65c-4.744-4.724-12.65-1.181-12.65 5.118v39.369c0 6.693 7.906 9.843 12.65 5.118l20.556-20.472c2.372-2.362 2.372-5.905 0-8.267L66.13 217.65zM66.129 289.205c-4.744-4.724-12.65-1.181-12.65 5.118v39.369c0 6.693 7.906 9.842 12.65 5.118l20.556-20.472c2.372-2.362 2.372-5.905 0-8.267L66.13 289.205zM66.129 361.154c-4.744-4.724-12.65-1.181-12.65 5.118v39.369c0 6.693 7.906 9.843 12.65 5.118l20.556-20.472c2.372-2.362 2.372-5.905 0-8.267L66.13 361.154zM223.968 217.65c-4.744-4.724-12.65-1.181-12.65 5.118v39.369c0 6.693 7.906 9.843 12.65 5.118l20.557-20.472c2.372-2.362 2.372-5.905 0-8.267l-20.557-20.866zM223.968 289.205c-4.744-4.724-12.65-1.181-12.65 5.118v39.369c0 6.693 7.906 9.842 12.65 5.118l20.557-20.472c2.372-2.362 2.372-5.905 0-8.267l-20.557-20.866zM223.968 361.154c-4.744-4.724-12.65-1.181-12.65 5.118v39.369c0 6.693 7.906 9.843 12.65 5.118l20.557-20.472c2.372-2.362 2.372-5.905 0-8.267l-20.557-20.866zM118.742 217.65c-4.744-4.724-12.65-1.181-12.65 5.118v39.369c0 6.693 7.906 9.843 12.65 5.118l20.556-20.472c2.372-2.362 2.372-5.905 0-8.267l-20.556-20.866zM118.742 289.205c-4.744-4.724-12.65-1.181-12.65 5.118v39.369c0 6.693 7.906 9.842 12.65 5.118l20.556-20.472c2.372-2.362 2.372-5.905 0-8.267l-20.556-20.866zM118.742 361.154c-4.744-4.724-12.65-1.181-12.65 5.118v39.369c0 6.693 7.906 9.843 12.65 5.118l20.556-20.472c2.372-2.362 2.372-5.905 0-8.267l-20.556-20.866zM276.581 217.65c-4.743-4.724-12.65-1.181-12.65 5.118v39.369c0 6.693 7.907 9.843 12.65 5.118l20.557-20.472c2.372-2.362 2.372-5.905 0-8.267l-20.557-20.866zM276.581 289.205c-4.743-4.724-12.65-1.181-12.65 5.118v39.369c0 6.693 7.907 9.842 12.65 5.118l20.557-20.472c2.372-2.362 2.372-5.905 0-8.267l-20.557-20.866zM276.581 361.154c-4.743-4.724-12.65-1.181-12.65 5.118v39.369c0 6.693 7.907 9.843 12.65 5.118l20.557-20.472c2.372-2.362 2.372-5.905 0-8.267l-20.557-20.866zM171.355 217.256c-4.744-4.724-12.65-1.181-12.65 5.118v39.369c0 6.693 7.906 9.842 12.65 5.118l20.556-20.472c2.372-2.362 2.372-5.905 0-8.267l-20.556-20.866zM171.355 288.811c-4.744-4.724-12.65-1.181-12.65 5.118v39.369c0 6.693 7.906 9.842 12.65 5.118l20.556-20.472c2.372-2.362 2.372-5.905 0-8.267l-20.556-20.866zM171.355 360.76c-4.744-4.724-12.65-1.181-12.65 5.118v39.369c0 6.693 7.906 9.843 12.65 5.118l20.556-20.472c2.372-2.362 2.372-5.905 0-8.267l-20.556-20.866zM13.515 217.256c-4.744-4.724-12.65-1.181-12.65 5.118v39.369c0 6.693 7.906 9.842 12.65 5.118l20.556-20.472c2.372-2.362 2.372-5.905 0-8.267l-20.556-20.866zM329.194 217.256c-4.743-4.724-12.65-1.181-12.65 5.118v39.369c0 6.693 7.907 9.842 12.65 5.118l20.557-20.472c2.372-2.362 2.372-5.905 0-8.267l-20.557-20.866zM13.515 288.811C8.77 284.087.865 287.63.865 293.929v39.369c0 6.693 7.906 9.842 12.65 5.118l20.556-20.472c2.372-2.362 2.372-5.905 0-8.267l-20.556-20.866zM329.194 288.811c-4.743-4.724-12.65-1.181-12.65 5.118v39.369c0 6.693 7.907 9.842 12.65 5.118l20.557-20.472c2.372-2.362 2.372-5.905 0-8.267l-20.557-20.866zM13.515 360.76c-4.744-4.724-12.65-1.181-12.65 5.118v39.369c0 6.693 7.906 9.843 12.65 5.118l20.556-20.472c2.372-2.362 2.372-5.905 0-8.267L13.515 360.76zM329.194 360.76c-4.743-4.724-12.65-1.181-12.65 5.118v39.369c0 6.693 7.907 9.843 12.65 5.118l20.557-20.472c2.372-2.362 2.372-5.905 0-8.267l-20.557-20.866zM1609.27 3.236c-4.74-4.724-12.65-1.18-12.65 5.118V47.724c0 6.692 7.91 9.842 12.65 5.118l20.56-20.472c2.37-2.362 2.37-5.906 0-8.268l-20.56-20.866zM1609.27 74.791c-4.74-4.724-12.65-1.18-12.65 5.118V119.28c0 6.692 7.91 9.842 12.65 5.118l20.56-20.472c2.37-2.363 2.37-5.906 0-8.268l-20.56-20.866zM1609.27 146.741c-4.74-4.725-12.65-1.181-12.65 5.118V191.228c0 6.693 7.91 9.842 12.65 5.118l20.56-20.472c2.37-2.362 2.37-5.906 0-8.268l-20.56-20.865zM1767.11 3.236c-4.74-4.724-12.65-1.18-12.65 5.118V47.724c0 6.692 7.91 9.842 12.65 5.118l20.56-20.472c2.37-2.362 2.37-5.906 0-8.268l-20.56-20.866zM1767.11 74.791c-4.74-4.724-12.65-1.18-12.65 5.118V119.28c0 6.692 7.91 9.842 12.65 5.118l20.56-20.472c2.37-2.363 2.37-5.906 0-8.268l-20.56-20.866zM1767.11 146.741c-4.74-4.725-12.65-1.181-12.65 5.118V191.228c0 6.693 7.91 9.842 12.65 5.118l20.56-20.472c2.37-2.362 2.37-5.906 0-8.268l-20.56-20.865zM1661.88 3.236c-4.74-4.724-12.65-1.18-12.65 5.118V47.724c0 6.692 7.91 9.842 12.65 5.118l20.56-20.472c2.37-2.362 2.37-5.906 0-8.268l-20.56-20.866zM1661.88 74.791c-4.74-4.724-12.65-1.18-12.65 5.118V119.28c0 6.692 7.91 9.842 12.65 5.118l20.56-20.472c2.37-2.363 2.37-5.906 0-8.268l-20.56-20.866zM1661.88 146.741c-4.74-4.725-12.65-1.181-12.65 5.118V191.228c0 6.693 7.91 9.842 12.65 5.118l20.56-20.472c2.37-2.362 2.37-5.906 0-8.268l-20.56-20.865zM1819.72 3.236c-4.74-4.724-12.65-1.18-12.65 5.118V47.724c0 6.692 7.91 9.842 12.65 5.118l20.56-20.472c2.37-2.362 2.37-5.906 0-8.268l-20.56-20.866zM1819.72 74.791c-4.74-4.724-12.65-1.18-12.65 5.118V119.28c0 6.692 7.91 9.842 12.65 5.118l20.56-20.472c2.37-2.363 2.37-5.906 0-8.268l-20.56-20.866zM1819.72 146.741c-4.74-4.725-12.65-1.181-12.65 5.118V191.228c0 6.693 7.91 9.842 12.65 5.118l20.56-20.472c2.37-2.362 2.37-5.906 0-8.268l-20.56-20.865zM1714.5 2.842c-4.75-4.724-12.65-1.18-12.65 5.118V47.33c0 6.692 7.9 9.842 12.65 5.118l20.55-20.472c2.38-2.363 2.38-5.906 0-8.268L1714.5 2.842zM1714.5 74.397c-4.75-4.724-12.65-1.18-12.65 5.118V118.885c0 6.692 7.9 9.842 12.65 5.118l20.55-20.472c2.38-2.363 2.38-5.906 0-8.268l-20.55-20.866zM1714.5 146.347c-4.75-4.725-12.65-1.182-12.65 5.118V190.834c0 6.693 7.9 9.842 12.65 5.118l20.55-20.472c2.38-2.362 2.38-5.906 0-8.268l-20.55-20.865zM1556.66 2.842c-4.75-4.724-12.65-1.18-12.65 5.118V47.33c0 6.692 7.9 9.842 12.65 5.118l20.55-20.472c2.38-2.363 2.38-5.906 0-8.268l-20.55-20.866zM1872.34 2.842c-4.75-4.724-12.65-1.18-12.65 5.118V47.33c0 6.692 7.9 9.842 12.65 5.118l20.55-20.472c2.38-2.363 2.38-5.906 0-8.268l-20.55-20.866zM1556.66 74.397c-4.75-4.724-12.65-1.18-12.65 5.118V118.885c0 6.692 7.9 9.842 12.65 5.118l20.55-20.472c2.38-2.363 2.38-5.906 0-8.268l-20.55-20.866zM1872.34 74.397c-4.75-4.724-12.65-1.18-12.65 5.118V118.885c0 6.692 7.9 9.842 12.65 5.118l20.55-20.472c2.38-2.363 2.38-5.906 0-8.268l-20.55-20.866zM1556.66 146.347c-4.75-4.725-12.65-1.182-12.65 5.118V190.834c0 6.693 7.9 9.842 12.65 5.118l20.55-20.472c2.38-2.362 2.38-5.906 0-8.268l-20.55-20.865zM1872.34 146.347c-4.75-4.725-12.65-1.182-12.65 5.118V190.834c0 6.693 7.9 9.842 12.65 5.118l20.55-20.472c2.38-2.362 2.38-5.906 0-8.268l-20.55-20.865zM66.129 3.236c-4.744-4.724-12.65-1.18-12.65 5.118V47.724c0 6.692 7.906 9.842 12.65 5.118L86.684 32.37c2.372-2.362 2.372-5.906 0-8.268L66.13 3.236zM66.129 74.791c-4.744-4.724-12.65-1.18-12.65 5.118V119.28c0 6.692 7.906 9.842 12.65 5.118l20.556-20.472c2.372-2.363 2.372-5.906 0-8.268L66.13 74.791zM66.129 146.741c-4.744-4.725-12.65-1.181-12.65 5.118V191.228c0 6.693 7.906 9.842 12.65 5.118l20.556-20.472c2.372-2.362 2.372-5.906 0-8.268L66.13 146.741zM223.968 3.236c-4.744-4.724-12.65-1.18-12.65 5.118V47.724c0 6.692 7.906 9.842 12.65 5.118l20.557-20.472c2.372-2.362 2.372-5.906 0-8.268L223.968 3.236zM223.968 74.791c-4.744-4.724-12.65-1.18-12.65 5.118V119.28c0 6.692 7.906 9.842 12.65 5.118l20.557-20.472c2.372-2.363 2.372-5.906 0-8.268l-20.557-20.866zM223.968 146.741c-4.744-4.725-12.65-1.181-12.65 5.118V191.228c0 6.693 7.906 9.842 12.65 5.118l20.557-20.472c2.372-2.362 2.372-5.906 0-8.268l-20.557-20.865zM118.742 3.236c-4.744-4.724-12.65-1.18-12.65 5.118V47.724c0 6.692 7.906 9.842 12.65 5.118l20.556-20.472c2.372-2.362 2.372-5.906 0-8.268L118.742 3.236zM118.742 74.791c-4.744-4.724-12.65-1.18-12.65 5.118V119.28c0 6.692 7.906 9.842 12.65 5.118l20.556-20.472c2.372-2.363 2.372-5.906 0-8.268l-20.556-20.866zM118.742 146.741c-4.744-4.725-12.65-1.181-12.65 5.118V191.228c0 6.693 7.906 9.842 12.65 5.118l20.556-20.472c2.372-2.362 2.372-5.906 0-8.268l-20.556-20.865zM276.581 3.236c-4.743-4.724-12.65-1.18-12.65 5.118V47.724c0 6.692 7.907 9.842 12.65 5.118l20.557-20.472c2.372-2.362 2.372-5.906 0-8.268L276.581 3.236zM276.581 74.791c-4.743-4.724-12.65-1.18-12.65 5.118V119.28c0 6.692 7.907 9.842 12.65 5.118l20.557-20.472c2.372-2.363 2.372-5.906 0-8.268l-20.557-20.866zM276.581 146.741c-4.743-4.725-12.65-1.181-12.65 5.118V191.228c0 6.693 7.907 9.842 12.65 5.118l20.557-20.472c2.372-2.362 2.372-5.906 0-8.268l-20.557-20.865zM171.355 2.842c-4.744-4.724-12.65-1.18-12.65 5.118V47.33c0 6.692 7.906 9.842 12.65 5.118l20.556-20.472c2.372-2.363 2.372-5.906 0-8.268L171.355 2.842zM171.355 74.397c-4.744-4.724-12.65-1.18-12.65 5.118V118.885c0 6.692 7.906 9.842 12.65 5.118l20.556-20.472c2.372-2.363 2.372-5.906 0-8.268l-20.556-20.866zM171.355 146.347c-4.744-4.725-12.65-1.182-12.65 5.118V190.834c0 6.693 7.906 9.842 12.65 5.118l20.556-20.472c2.372-2.362 2.372-5.906 0-8.268l-20.556-20.865zM13.515 2.842C8.77-1.882.865 1.662.865 7.96V47.33c0 6.692 7.906 9.842 12.65 5.118L34.07 31.976c2.372-2.363 2.372-5.906 0-8.268L13.515 2.842zM329.194 2.842c-4.743-4.724-12.65-1.18-12.65 5.118V47.33c0 6.692 7.907 9.842 12.65 5.118l20.557-20.472c2.372-2.363 2.372-5.906 0-8.268L329.194 2.842zM13.515 74.397C8.77 69.673.865 73.217.865 79.515V118.885c0 6.692 7.906 9.842 12.65 5.118l20.556-20.472c2.372-2.363 2.372-5.906 0-8.268L13.515 74.397zM329.194 74.397c-4.743-4.724-12.65-1.18-12.65 5.118V118.885c0 6.692 7.907 9.842 12.65 5.118l20.557-20.472c2.372-2.363 2.372-5.906 0-8.268l-20.557-20.866zM13.515 146.347c-4.744-4.725-12.65-1.182-12.65 5.118V190.834c0 6.693 7.906 9.842 12.65 5.118L34.07 175.48c2.372-2.362 2.372-5.906 0-8.268l-20.556-20.865zM329.194 146.347c-4.743-4.725-12.65-1.182-12.65 5.118V190.834c0 6.693 7.907 9.842 12.65 5.118l20.557-20.472c2.372-2.362 2.372-5.906 0-8.268l-20.557-20.865z" fill="#fff"/></svg>