<svg width="1920" height="1045" fill="none" xmlns="http://www.w3.org/2000/svg"><path fill="url(#paint0_linear)" d="M0 .817h1922.61v1044.18H0z"/><path d="M44.904 466.759c-4.744-4.725-12.65-1.181-12.65 5.118v39.369c0 6.693 7.906 9.842 12.65 5.118l20.556-20.472c2.372-2.362 2.372-5.905 0-8.268l-20.556-20.865zM44.904 538.313c-4.744-4.724-12.65-1.181-12.65 5.118V582.801c0 6.692 7.906 9.842 12.65 5.118l20.556-20.472c2.372-2.363 2.372-5.906 0-8.268l-20.556-20.866zM44.904 610.263c-4.744-4.724-12.65-1.181-12.65 5.118v39.369c0 6.693 7.906 9.843 12.65 5.118l20.556-20.472c2.372-2.362 2.372-5.905 0-8.267l-20.556-20.866zM360.583 466.759c-4.744-4.725-12.65-1.181-12.65 5.118v39.369c0 6.693 7.906 9.842 12.65 5.118l20.556-20.472c2.372-2.362 2.372-5.905 0-8.268l-20.556-20.865zM676.263 466.759c-4.744-4.725-12.65-1.181-12.65 5.118v39.369c0 6.693 7.906 9.842 12.65 5.118l20.556-20.472c2.372-2.362 2.372-5.905 0-8.268l-20.556-20.865zM360.583 538.313c-4.744-4.724-12.65-1.181-12.65 5.118V582.801c0 6.692 7.906 9.842 12.65 5.118l20.556-20.472c2.372-2.363 2.372-5.906 0-8.268l-20.556-20.866zM676.263 538.313c-4.744-4.724-12.65-1.181-12.65 5.118V582.801c0 6.692 7.906 9.842 12.65 5.118l20.556-20.472c2.372-2.363 2.372-5.906 0-8.268l-20.556-20.866zM360.583 610.263c-4.744-4.724-12.65-1.181-12.65 5.118v39.369c0 6.693 7.906 9.843 12.65 5.118l20.556-20.472c2.372-2.362 2.372-5.905 0-8.267l-20.556-20.866zM676.263 610.263c-4.744-4.724-12.65-1.181-12.65 5.118v39.369c0 6.693 7.906 9.843 12.65 5.118l20.556-20.472c2.372-2.362 2.372-5.905 0-8.267l-20.556-20.866zM202.743 466.759c-4.743-4.725-12.65-1.181-12.65 5.118v39.369c0 6.693 7.907 9.842 12.65 5.118l20.557-20.472c2.372-2.362 2.372-5.905 0-8.268l-20.557-20.865zM202.743 538.313c-4.743-4.724-12.65-1.181-12.65 5.118V582.801c0 6.692 7.907 9.842 12.65 5.118l20.557-20.472c2.372-2.363 2.372-5.906 0-8.268l-20.557-20.866zM202.743 610.263c-4.743-4.724-12.65-1.181-12.65 5.118v39.369c0 6.693 7.907 9.843 12.65 5.118l20.557-20.472c2.372-2.362 2.372-5.905 0-8.267l-20.557-20.866zM518.423 466.759c-4.744-4.725-12.651-1.181-12.651 5.118v39.369c0 6.693 7.907 9.842 12.651 5.118l20.556-20.472c2.372-2.362 2.372-5.905 0-8.268l-20.556-20.865zM834.102 466.759c-4.743-4.725-12.65-1.181-12.65 5.118v39.369c0 6.693 7.907 9.842 12.65 5.118l20.557-20.472c2.372-2.362 2.372-5.905 0-8.268l-20.557-20.865zM518.423 538.313c-4.744-4.724-12.651-1.181-12.651 5.118V582.801c0 6.692 7.907 9.842 12.651 5.118l20.556-20.472c2.372-2.363 2.372-5.906 0-8.268l-20.556-20.866zM834.102 538.313c-4.743-4.724-12.65-1.181-12.65 5.118V582.801c0 6.692 7.907 9.842 12.65 5.118l20.557-20.472c2.372-2.363 2.372-5.906 0-8.268l-20.557-20.866zM518.423 610.263c-4.744-4.724-12.651-1.181-12.651 5.118v39.369c0 6.693 7.907 9.843 12.651 5.118l20.556-20.472c2.372-2.362 2.372-5.905 0-8.267l-20.556-20.866zM834.102 610.263c-4.743-4.724-12.65-1.181-12.65 5.118v39.369c0 6.693 7.907 9.843 12.65 5.118l20.557-20.472c2.372-2.362 2.372-5.905 0-8.267l-20.557-20.866zM97.517 466.759c-4.744-4.725-12.65-1.181-12.65 5.118v39.369c0 6.693 7.906 9.842 12.65 5.118l20.557-20.472c2.372-2.362 2.372-5.905 0-8.268l-20.557-20.865zM97.517 538.313c-4.744-4.724-12.65-1.181-12.65 5.118V582.801c0 6.692 7.906 9.842 12.65 5.118l20.557-20.472c2.372-2.363 2.372-5.906 0-8.268l-20.557-20.866zM97.517 610.263c-4.744-4.724-12.65-1.181-12.65 5.118v39.369c0 6.693 7.906 9.843 12.65 5.118l20.557-20.472c2.372-2.362 2.372-5.905 0-8.267l-20.557-20.866zM413.196 466.759c-4.744-4.725-12.65-1.181-12.65 5.118v39.369c0 6.693 7.906 9.842 12.65 5.118l20.557-20.472c2.372-2.362 2.372-5.905 0-8.268l-20.557-20.865zM728.876 466.759c-4.744-4.725-12.65-1.181-12.65 5.118v39.369c0 6.693 7.906 9.842 12.65 5.118l20.557-20.472c2.372-2.362 2.372-5.905 0-8.268l-20.557-20.865zM413.196 538.313c-4.744-4.724-12.65-1.181-12.65 5.118V582.801c0 6.692 7.906 9.842 12.65 5.118l20.557-20.472c2.372-2.363 2.372-5.906 0-8.268l-20.557-20.866zM728.876 538.313c-4.744-4.724-12.65-1.181-12.65 5.118V582.801c0 6.692 7.906 9.842 12.65 5.118l20.557-20.472c2.372-2.363 2.372-5.906 0-8.268l-20.557-20.866zM413.196 610.263c-4.744-4.724-12.65-1.181-12.65 5.118v39.369c0 6.693 7.906 9.843 12.65 5.118l20.557-20.472c2.372-2.362 2.372-5.905 0-8.267l-20.557-20.866zM728.876 610.263c-4.744-4.724-12.65-1.181-12.65 5.118v39.369c0 6.693 7.906 9.843 12.65 5.118l20.557-20.472c2.372-2.362 2.372-5.905 0-8.267l-20.557-20.866zM255.357 466.759c-4.744-4.725-12.651-1.181-12.651 5.118v39.369c0 6.693 7.907 9.842 12.651 5.118l20.556-20.472c2.372-2.362 2.372-5.905 0-8.268l-20.556-20.865zM255.357 538.313c-4.744-4.724-12.651-1.181-12.651 5.118V582.801c0 6.692 7.907 9.842 12.651 5.118l20.556-20.472c2.372-2.363 2.372-5.906 0-8.268l-20.556-20.866zM255.357 610.263c-4.744-4.724-12.651-1.181-12.651 5.118v39.369c0 6.693 7.907 9.843 12.651 5.118l20.556-20.472c2.372-2.362 2.372-5.905 0-8.267l-20.556-20.866zM571.036 466.759c-4.744-4.725-12.651-1.181-12.651 5.118v39.369c0 6.693 7.907 9.842 12.651 5.118l20.556-20.472c2.372-2.362 2.372-5.905 0-8.268l-20.556-20.865zM886.716 466.759c-4.744-4.725-12.651-1.181-12.651 5.118v39.369c0 6.693 7.907 9.842 12.651 5.118l20.556-20.472c2.372-2.362 2.372-5.905 0-8.268l-20.556-20.865zM571.036 538.313c-4.744-4.724-12.651-1.181-12.651 5.118V582.801c0 6.692 7.907 9.842 12.651 5.118l20.556-20.472c2.372-2.363 2.372-5.906 0-8.268l-20.556-20.866zM886.716 538.313c-4.744-4.724-12.651-1.181-12.651 5.118V582.801c0 6.692 7.907 9.842 12.651 5.118l20.556-20.472c2.372-2.363 2.372-5.906 0-8.268l-20.556-20.866zM571.036 610.263c-4.744-4.724-12.651-1.181-12.651 5.118v39.369c0 6.693 7.907 9.843 12.651 5.118l20.556-20.472c2.372-2.362 2.372-5.905 0-8.267l-20.556-20.866zM886.716 610.263c-4.744-4.724-12.651-1.181-12.651 5.118v39.369c0 6.693 7.907 9.843 12.651 5.118l20.556-20.472c2.372-2.362 2.372-5.905 0-8.267l-20.556-20.866zM150.13 466.365c-4.744-4.725-12.65-1.181-12.65 5.118v39.369c0 6.693 7.906 9.842 12.65 5.118l20.557-20.472c2.372-2.362 2.372-5.906 0-8.268l-20.557-20.865zM150.13 537.92c-4.744-4.724-12.65-1.181-12.65 5.118v39.369c0 6.693 7.906 9.842 12.65 5.118l20.557-20.472c2.372-2.362 2.372-5.905 0-8.268L150.13 537.92zM150.13 609.869c-4.744-4.724-12.65-1.181-12.65 5.118v39.369c0 6.693 7.906 9.843 12.65 5.118l20.557-20.472c2.372-2.362 2.372-5.905 0-8.267l-20.557-20.866zM465.809 466.365c-4.743-4.725-12.65-1.181-12.65 5.118v39.369c0 6.693 7.907 9.842 12.65 5.118l20.557-20.472c2.372-2.362 2.372-5.906 0-8.268l-20.557-20.865zM781.489 466.365c-4.744-4.725-12.65-1.181-12.65 5.118v39.369c0 6.693 7.906 9.842 12.65 5.118l20.557-20.472c2.372-2.362 2.372-5.906 0-8.268l-20.557-20.865zM465.809 537.92c-4.743-4.724-12.65-1.181-12.65 5.118v39.369c0 6.693 7.907 9.842 12.65 5.118l20.557-20.472c2.372-2.362 2.372-5.905 0-8.268l-20.557-20.865zM781.489 537.92c-4.744-4.724-12.65-1.181-12.65 5.118v39.369c0 6.693 7.906 9.842 12.65 5.118l20.557-20.472c2.372-2.362 2.372-5.905 0-8.268l-20.557-20.865zM465.809 609.869c-4.743-4.724-12.65-1.181-12.65 5.118v39.369c0 6.693 7.907 9.843 12.65 5.118l20.557-20.472c2.372-2.362 2.372-5.905 0-8.267l-20.557-20.866zM781.489 609.869c-4.744-4.724-12.65-1.181-12.65 5.118v39.369c0 6.693 7.906 9.843 12.65 5.118l20.557-20.472c2.372-2.362 2.372-5.905 0-8.267l-20.557-20.866zM307.97 466.365c-4.744-4.725-12.65-1.181-12.65 5.118v39.369c0 6.693 7.906 9.842 12.65 5.118l20.556-20.472c2.372-2.362 2.372-5.906 0-8.268l-20.556-20.865zM307.97 537.92c-4.744-4.724-12.65-1.181-12.65 5.118v39.369c0 6.693 7.906 9.842 12.65 5.118l20.556-20.472c2.372-2.362 2.372-5.905 0-8.268L307.97 537.92zM307.97 609.869c-4.744-4.724-12.65-1.181-12.65 5.118v39.369c0 6.693 7.906 9.843 12.65 5.118l20.556-20.472c2.372-2.362 2.372-5.905 0-8.267l-20.556-20.866zM623.649 466.365c-4.744-4.725-12.65-1.181-12.65 5.118v39.369c0 6.693 7.906 9.842 12.65 5.118l20.557-20.472c2.372-2.362 2.372-5.906 0-8.268l-20.557-20.865zM939.329 466.365c-4.744-4.725-12.651-1.181-12.651 5.118v39.369c0 6.693 7.907 9.842 12.651 5.118l20.556-20.472c2.372-2.362 2.372-5.906 0-8.268l-20.556-20.865zM623.649 537.92c-4.744-4.724-12.65-1.181-12.65 5.118v39.369c0 6.693 7.906 9.842 12.65 5.118l20.557-20.472c2.372-2.362 2.372-5.905 0-8.268l-20.557-20.865zM939.329 537.92c-4.744-4.724-12.651-1.181-12.651 5.118v39.369c0 6.693 7.907 9.842 12.651 5.118l20.556-20.472c2.372-2.362 2.372-5.905 0-8.268l-20.556-20.865zM623.649 609.869c-4.744-4.724-12.65-1.181-12.65 5.118v39.369c0 6.693 7.906 9.843 12.65 5.118l20.557-20.472c2.372-2.362 2.372-5.905 0-8.267l-20.557-20.866zM939.329 609.869c-4.744-4.724-12.651-1.181-12.651 5.118v39.369c0 6.693 7.907 9.843 12.651 5.118l20.556-20.472c2.372-2.362 2.372-5.905 0-8.267l-20.556-20.866zM44.904 677.432c-4.744-4.724-12.65-1.181-12.65 5.118v39.369c0 6.693 7.906 9.843 12.65 5.118l20.556-20.472c2.372-2.362 2.372-5.905 0-8.267l-20.556-20.866zM44.904 748.987c-4.744-4.725-12.65-1.181-12.65 5.118v39.369c0 6.693 7.906 9.842 12.65 5.118L65.46 778.12c2.372-2.362 2.372-5.905 0-8.268l-20.556-20.865zM44.904 820.936c-4.744-4.724-12.65-1.181-12.65 5.118V865.424c0 6.692 7.906 9.842 12.65 5.118L65.46 850.07c2.372-2.363 2.372-5.906 0-8.268l-20.556-20.866zM360.583 677.432c-4.744-4.724-12.65-1.181-12.65 5.118v39.369c0 6.693 7.906 9.843 12.65 5.118l20.556-20.472c2.372-2.362 2.372-5.905 0-8.267l-20.556-20.866zM676.263 677.432c-4.744-4.724-12.65-1.181-12.65 5.118v39.369c0 6.693 7.906 9.843 12.65 5.118l20.556-20.472c2.372-2.362 2.372-5.905 0-8.267l-20.556-20.866zM360.583 748.987c-4.744-4.725-12.65-1.181-12.65 5.118v39.369c0 6.693 7.906 9.842 12.65 5.118l20.556-20.472c2.372-2.362 2.372-5.905 0-8.268l-20.556-20.865zM676.263 748.987c-4.744-4.725-12.65-1.181-12.65 5.118v39.369c0 6.693 7.906 9.842 12.65 5.118l20.556-20.472c2.372-2.362 2.372-5.905 0-8.268l-20.556-20.865zM360.583 820.936c-4.744-4.724-12.65-1.181-12.65 5.118V865.424c0 6.692 7.906 9.842 12.65 5.118l20.556-20.472c2.372-2.363 2.372-5.906 0-8.268l-20.556-20.866zM676.263 820.936c-4.744-4.724-12.65-1.181-12.65 5.118V865.424c0 6.692 7.906 9.842 12.65 5.118l20.556-20.472c2.372-2.363 2.372-5.906 0-8.268l-20.556-20.866zM202.743 677.432c-4.743-4.724-12.65-1.181-12.65 5.118v39.369c0 6.693 7.907 9.843 12.65 5.118l20.557-20.472c2.372-2.362 2.372-5.905 0-8.267l-20.557-20.866zM202.743 748.987c-4.743-4.725-12.65-1.181-12.65 5.118v39.369c0 6.693 7.907 9.842 12.65 5.118L223.3 778.12c2.372-2.362 2.372-5.905 0-8.268l-20.557-20.865zM202.743 820.936c-4.743-4.724-12.65-1.181-12.65 5.118V865.424c0 6.692 7.907 9.842 12.65 5.118L223.3 850.07c2.372-2.363 2.372-5.906 0-8.268l-20.557-20.866zM518.423 677.432c-4.744-4.724-12.651-1.181-12.651 5.118v39.369c0 6.693 7.907 9.843 12.651 5.118l20.556-20.472c2.372-2.362 2.372-5.905 0-8.267l-20.556-20.866zM834.102 677.432c-4.743-4.724-12.65-1.181-12.65 5.118v39.369c0 6.693 7.907 9.843 12.65 5.118l20.557-20.472c2.372-2.362 2.372-5.905 0-8.267l-20.557-20.866zM518.423 748.987c-4.744-4.725-12.651-1.181-12.651 5.118v39.369c0 6.693 7.907 9.842 12.651 5.118l20.556-20.472c2.372-2.362 2.372-5.905 0-8.268l-20.556-20.865zM834.102 748.987c-4.743-4.725-12.65-1.181-12.65 5.118v39.369c0 6.693 7.907 9.842 12.65 5.118l20.557-20.472c2.372-2.362 2.372-5.905 0-8.268l-20.557-20.865zM518.423 820.936c-4.744-4.724-12.651-1.181-12.651 5.118V865.424c0 6.692 7.907 9.842 12.651 5.118l20.556-20.472c2.372-2.363 2.372-5.906 0-8.268l-20.556-20.866zM834.102 820.936c-4.743-4.724-12.65-1.181-12.65 5.118V865.424c0 6.692 7.907 9.842 12.65 5.118l20.557-20.472c2.372-2.363 2.372-5.906 0-8.268l-20.557-20.866zM97.517 677.432c-4.744-4.724-12.65-1.181-12.65 5.118v39.369c0 6.693 7.906 9.843 12.65 5.118l20.557-20.472c2.372-2.362 2.372-5.905 0-8.267l-20.557-20.866zM97.517 748.987c-4.744-4.725-12.65-1.181-12.65 5.118v39.369c0 6.693 7.906 9.842 12.65 5.118l20.557-20.472c2.372-2.362 2.372-5.905 0-8.268l-20.557-20.865zM97.517 820.936c-4.744-4.724-12.65-1.181-12.65 5.118V865.424c0 6.692 7.906 9.842 12.65 5.118l20.557-20.472c2.372-2.363 2.372-5.906 0-8.268l-20.557-20.866zM413.196 677.432c-4.744-4.724-12.65-1.181-12.65 5.118v39.369c0 6.693 7.906 9.843 12.65 5.118l20.557-20.472c2.372-2.362 2.372-5.905 0-8.267l-20.557-20.866zM728.876 677.432c-4.744-4.724-12.65-1.181-12.65 5.118v39.369c0 6.693 7.906 9.843 12.65 5.118l20.557-20.472c2.372-2.362 2.372-5.905 0-8.267l-20.557-20.866zM413.196 748.987c-4.744-4.725-12.65-1.181-12.65 5.118v39.369c0 6.693 7.906 9.842 12.65 5.118l20.557-20.472c2.372-2.362 2.372-5.905 0-8.268l-20.557-20.865zM728.876 748.987c-4.744-4.725-12.65-1.181-12.65 5.118v39.369c0 6.693 7.906 9.842 12.65 5.118l20.557-20.472c2.372-2.362 2.372-5.905 0-8.268l-20.557-20.865zM413.196 820.936c-4.744-4.724-12.65-1.181-12.65 5.118V865.424c0 6.692 7.906 9.842 12.65 5.118l20.557-20.472c2.372-2.363 2.372-5.906 0-8.268l-20.557-20.866zM728.876 820.936c-4.744-4.724-12.65-1.181-12.65 5.118V865.424c0 6.692 7.906 9.842 12.65 5.118l20.557-20.472c2.372-2.363 2.372-5.906 0-8.268l-20.557-20.866zM255.357 677.432c-4.744-4.724-12.651-1.181-12.651 5.118v39.369c0 6.693 7.907 9.843 12.651 5.118l20.556-20.472c2.372-2.362 2.372-5.905 0-8.267l-20.556-20.866zM255.357 748.987c-4.744-4.725-12.651-1.181-12.651 5.118v39.369c0 6.693 7.907 9.842 12.651 5.118l20.556-20.472c2.372-2.362 2.372-5.905 0-8.268l-20.556-20.865zM255.357 820.936c-4.744-4.724-12.651-1.181-12.651 5.118V865.424c0 6.692 7.907 9.842 12.651 5.118l20.556-20.472c2.372-2.363 2.372-5.906 0-8.268l-20.556-20.866zM571.036 677.432c-4.744-4.724-12.651-1.181-12.651 5.118v39.369c0 6.693 7.907 9.843 12.651 5.118l20.556-20.472c2.372-2.362 2.372-5.905 0-8.267l-20.556-20.866zM886.716 677.432c-4.744-4.724-12.651-1.181-12.651 5.118v39.369c0 6.693 7.907 9.843 12.651 5.118l20.556-20.472c2.372-2.362 2.372-5.905 0-8.267l-20.556-20.866zM571.036 748.987c-4.744-4.725-12.651-1.181-12.651 5.118v39.369c0 6.693 7.907 9.842 12.651 5.118l20.556-20.472c2.372-2.362 2.372-5.905 0-8.268l-20.556-20.865zM886.716 748.987c-4.744-4.725-12.651-1.181-12.651 5.118v39.369c0 6.693 7.907 9.842 12.651 5.118l20.556-20.472c2.372-2.362 2.372-5.905 0-8.268l-20.556-20.865zM571.036 820.936c-4.744-4.724-12.651-1.181-12.651 5.118V865.424c0 6.692 7.907 9.842 12.651 5.118l20.556-20.472c2.372-2.363 2.372-5.906 0-8.268l-20.556-20.866zM886.716 820.936c-4.744-4.724-12.651-1.181-12.651 5.118V865.424c0 6.692 7.907 9.842 12.651 5.118l20.556-20.472c2.372-2.363 2.372-5.906 0-8.268l-20.556-20.866zM150.13 677.038c-4.744-4.724-12.65-1.181-12.65 5.118v39.369c0 6.693 7.906 9.842 12.65 5.118l20.557-20.472c2.372-2.362 2.372-5.905 0-8.267l-20.557-20.866zM150.13 748.593c-4.744-4.724-12.65-1.181-12.65 5.118v39.369c0 6.693 7.906 9.843 12.65 5.118l20.557-20.472c2.372-2.362 2.372-5.905 0-8.267l-20.557-20.866zM150.13 820.542c-4.744-4.724-12.65-1.181-12.65 5.118V865.03c0 6.692 7.906 9.842 12.65 5.118l20.557-20.472c2.372-2.363 2.372-5.906 0-8.268l-20.557-20.866zM465.809 677.038c-4.743-4.724-12.65-1.181-12.65 5.118v39.369c0 6.693 7.907 9.842 12.65 5.118l20.557-20.472c2.372-2.362 2.372-5.905 0-8.267l-20.557-20.866zM781.489 677.038c-4.744-4.724-12.65-1.181-12.65 5.118v39.369c0 6.693 7.906 9.842 12.65 5.118l20.557-20.472c2.372-2.362 2.372-5.905 0-8.267l-20.557-20.866zM465.809 748.593c-4.743-4.724-12.65-1.181-12.65 5.118v39.369c0 6.693 7.907 9.843 12.65 5.118l20.557-20.472c2.372-2.362 2.372-5.905 0-8.267l-20.557-20.866zM781.489 748.593c-4.744-4.724-12.65-1.181-12.65 5.118v39.369c0 6.693 7.906 9.843 12.65 5.118l20.557-20.472c2.372-2.362 2.372-5.905 0-8.267l-20.557-20.866zM465.809 820.542c-4.743-4.724-12.65-1.181-12.65 5.118V865.03c0 6.692 7.907 9.842 12.65 5.118l20.557-20.472c2.372-2.363 2.372-5.906 0-8.268l-20.557-20.866zM781.489 820.542c-4.744-4.724-12.65-1.181-12.65 5.118V865.03c0 6.692 7.906 9.842 12.65 5.118l20.557-20.472c2.372-2.363 2.372-5.906 0-8.268l-20.557-20.866zM307.97 677.038c-4.744-4.724-12.65-1.181-12.65 5.118v39.369c0 6.693 7.906 9.842 12.65 5.118l20.556-20.472c2.372-2.362 2.372-5.905 0-8.267l-20.556-20.866zM307.97 748.593c-4.744-4.724-12.65-1.181-12.65 5.118v39.369c0 6.693 7.906 9.843 12.65 5.118l20.556-20.472c2.372-2.362 2.372-5.905 0-8.267l-20.556-20.866zM307.97 820.542c-4.744-4.724-12.65-1.181-12.65 5.118V865.03c0 6.692 7.906 9.842 12.65 5.118l20.556-20.472c2.372-2.363 2.372-5.906 0-8.268l-20.556-20.866zM623.649 677.038c-4.744-4.724-12.65-1.181-12.65 5.118v39.369c0 6.693 7.906 9.842 12.65 5.118l20.557-20.472c2.372-2.362 2.372-5.905 0-8.267l-20.557-20.866zM939.329 677.038c-4.744-4.724-12.651-1.181-12.651 5.118v39.369c0 6.693 7.907 9.842 12.651 5.118l20.556-20.472c2.372-2.362 2.372-5.905 0-8.267l-20.556-20.866zM623.649 748.593c-4.744-4.724-12.65-1.181-12.65 5.118v39.369c0 6.693 7.906 9.843 12.65 5.118l20.557-20.472c2.372-2.362 2.372-5.905 0-8.267l-20.557-20.866zM939.329 748.593c-4.744-4.724-12.651-1.181-12.651 5.118v39.369c0 6.693 7.907 9.843 12.651 5.118l20.556-20.472c2.372-2.362 2.372-5.905 0-8.267l-20.556-20.866zM623.649 820.542c-4.744-4.724-12.65-1.181-12.65 5.118V865.03c0 6.692 7.906 9.842 12.65 5.118l20.557-20.472c2.372-2.363 2.372-5.906 0-8.268l-20.557-20.866zM939.329 820.542c-4.744-4.724-12.651-1.181-12.651 5.118V865.03c0 6.692 7.907 9.842 12.651 5.118l20.556-20.472c2.372-2.363 2.372-5.906 0-8.268l-20.556-20.866zM984.978 466.759c-4.744-4.725-12.65-1.181-12.65 5.118v39.369c0 6.693 7.906 9.842 12.65 5.118l20.552-20.472c2.38-2.362 2.38-5.905 0-8.268l-20.552-20.865zM984.978 538.313c-4.744-4.724-12.65-1.181-12.65 5.118V582.801c0 6.692 7.906 9.842 12.65 5.118l20.552-20.472c2.38-2.363 2.38-5.906 0-8.268l-20.552-20.866zM984.978 610.263c-4.744-4.724-12.65-1.181-12.65 5.118v39.369c0 6.693 7.906 9.843 12.65 5.118l20.552-20.472c2.38-2.362 2.38-5.905 0-8.267l-20.552-20.866zM1300.66 466.759c-4.75-4.725-12.65-1.181-12.65 5.118v39.369c0 6.693 7.9 9.842 12.65 5.118l20.55-20.472c2.38-2.362 2.38-5.905 0-8.268l-20.55-20.865zM1616.34 466.759c-4.75-4.725-12.65-1.181-12.65 5.118v39.369c0 6.693 7.9 9.842 12.65 5.118l20.55-20.472c2.38-2.362 2.38-5.905 0-8.268l-20.55-20.865zM1300.66 538.313c-4.75-4.724-12.65-1.181-12.65 5.118V582.801c0 6.692 7.9 9.842 12.65 5.118l20.55-20.472c2.38-2.363 2.38-5.906 0-8.268l-20.55-20.866zM1616.34 538.313c-4.75-4.724-12.65-1.181-12.65 5.118V582.801c0 6.692 7.9 9.842 12.65 5.118l20.55-20.472c2.38-2.363 2.38-5.906 0-8.268l-20.55-20.866zM1300.66 610.263c-4.75-4.724-12.65-1.181-12.65 5.118v39.369c0 6.693 7.9 9.843 12.65 5.118l20.55-20.472c2.38-2.362 2.38-5.905 0-8.267l-20.55-20.866zM1616.34 610.263c-4.75-4.724-12.65-1.181-12.65 5.118v39.369c0 6.693 7.9 9.843 12.65 5.118l20.55-20.472c2.38-2.362 2.38-5.905 0-8.267l-20.55-20.866zM1142.82 466.759c-4.75-4.725-12.65-1.181-12.65 5.118v39.369c0 6.693 7.9 9.842 12.65 5.118l20.55-20.472c2.38-2.362 2.38-5.905 0-8.268l-20.55-20.865zM1142.82 538.313c-4.75-4.724-12.65-1.181-12.65 5.118V582.801c0 6.692 7.9 9.842 12.65 5.118l20.55-20.472c2.38-2.363 2.38-5.906 0-8.268l-20.55-20.866zM1142.82 610.263c-4.75-4.724-12.65-1.181-12.65 5.118v39.369c0 6.693 7.9 9.843 12.65 5.118l20.55-20.472c2.38-2.362 2.38-5.905 0-8.267l-20.55-20.866zM1458.5 466.759c-4.75-4.725-12.65-1.181-12.65 5.118v39.369c0 6.693 7.9 9.842 12.65 5.118l20.55-20.472c2.38-2.362 2.38-5.905 0-8.268l-20.55-20.865zM1774.18 466.759c-4.75-4.725-12.65-1.181-12.65 5.118v39.369c0 6.693 7.9 9.842 12.65 5.118l20.55-20.472c2.38-2.362 2.38-5.905 0-8.268l-20.55-20.865zM1458.5 538.313c-4.75-4.724-12.65-1.181-12.65 5.118V582.801c0 6.692 7.9 9.842 12.65 5.118l20.55-20.472c2.38-2.363 2.38-5.906 0-8.268l-20.55-20.866zM1774.18 538.313c-4.75-4.724-12.65-1.181-12.65 5.118V582.801c0 6.692 7.9 9.842 12.65 5.118l20.55-20.472c2.38-2.363 2.38-5.906 0-8.268l-20.55-20.866zM1458.5 610.263c-4.75-4.724-12.65-1.181-12.65 5.118v39.369c0 6.693 7.9 9.843 12.65 5.118l20.55-20.472c2.38-2.362 2.38-5.905 0-8.267l-20.55-20.866zM1774.18 610.263c-4.75-4.724-12.65-1.181-12.65 5.118v39.369c0 6.693 7.9 9.843 12.65 5.118l20.55-20.472c2.38-2.362 2.38-5.905 0-8.267l-20.55-20.866zM1037.59 466.759c-4.74-4.725-12.65-1.181-12.65 5.118v39.369c0 6.693 7.91 9.842 12.65 5.118l20.56-20.472c2.37-2.362 2.37-5.905 0-8.268l-20.56-20.865zM1037.59 538.313c-4.74-4.724-12.65-1.181-12.65 5.118V582.801c0 6.692 7.91 9.842 12.65 5.118l20.56-20.472c2.37-2.363 2.37-5.906 0-8.268l-20.56-20.866zM1037.59 610.263c-4.74-4.724-12.65-1.181-12.65 5.118v39.369c0 6.693 7.91 9.843 12.65 5.118l20.56-20.472c2.37-2.362 2.37-5.905 0-8.267l-20.56-20.866zM1353.27 466.759c-4.74-4.725-12.65-1.181-12.65 5.118v39.369c0 6.693 7.91 9.842 12.65 5.118l20.56-20.472c2.37-2.362 2.37-5.905 0-8.268l-20.56-20.865zM1668.95 466.759c-4.74-4.725-12.65-1.181-12.65 5.118v39.369c0 6.693 7.91 9.842 12.65 5.118l20.56-20.472c2.37-2.362 2.37-5.905 0-8.268l-20.56-20.865zM1353.27 538.313c-4.74-4.724-12.65-1.181-12.65 5.118V582.801c0 6.692 7.91 9.842 12.65 5.118l20.56-20.472c2.37-2.363 2.37-5.906 0-8.268l-20.56-20.866zM1668.95 538.313c-4.74-4.724-12.65-1.181-12.65 5.118V582.801c0 6.692 7.91 9.842 12.65 5.118l20.56-20.472c2.37-2.363 2.37-5.906 0-8.268l-20.56-20.866zM1353.27 610.263c-4.74-4.724-12.65-1.181-12.65 5.118v39.369c0 6.693 7.91 9.843 12.65 5.118l20.56-20.472c2.37-2.362 2.37-5.905 0-8.267l-20.56-20.866zM1668.95 610.263c-4.74-4.724-12.65-1.181-12.65 5.118v39.369c0 6.693 7.91 9.843 12.65 5.118l20.56-20.472c2.37-2.362 2.37-5.905 0-8.267l-20.56-20.866zM1195.43 466.759c-4.74-4.725-12.65-1.181-12.65 5.118v39.369c0 6.693 7.91 9.842 12.65 5.118l20.56-20.472c2.37-2.362 2.37-5.905 0-8.268l-20.56-20.865zM1195.43 538.313c-4.74-4.724-12.65-1.181-12.65 5.118V582.801c0 6.692 7.91 9.842 12.65 5.118l20.56-20.472c2.37-2.363 2.37-5.906 0-8.268l-20.56-20.866zM1195.43 610.263c-4.74-4.724-12.65-1.181-12.65 5.118v39.369c0 6.693 7.91 9.843 12.65 5.118l20.56-20.472c2.37-2.362 2.37-5.905 0-8.267l-20.56-20.866zM1511.11 466.759c-4.74-4.725-12.65-1.181-12.65 5.118v39.369c0 6.693 7.91 9.842 12.65 5.118l20.56-20.472c2.37-2.362 2.37-5.905 0-8.268l-20.56-20.865zM1826.79 466.759c-4.74-4.725-12.65-1.181-12.65 5.118v39.369c0 6.693 7.91 9.842 12.65 5.118l20.56-20.472c2.37-2.362 2.37-5.905 0-8.268l-20.56-20.865zM1511.11 538.313c-4.74-4.724-12.65-1.181-12.65 5.118V582.801c0 6.692 7.91 9.842 12.65 5.118l20.56-20.472c2.37-2.363 2.37-5.906 0-8.268l-20.56-20.866zM1826.79 538.313c-4.74-4.724-12.65-1.181-12.65 5.118V582.801c0 6.692 7.91 9.842 12.65 5.118l20.56-20.472c2.37-2.363 2.37-5.906 0-8.268l-20.56-20.866zM1511.11 610.263c-4.74-4.724-12.65-1.181-12.65 5.118v39.369c0 6.693 7.91 9.843 12.65 5.118l20.56-20.472c2.37-2.362 2.37-5.905 0-8.267l-20.56-20.866zM1826.79 610.263c-4.74-4.724-12.65-1.181-12.65 5.118v39.369c0 6.693 7.91 9.843 12.65 5.118l20.56-20.472c2.37-2.362 2.37-5.905 0-8.267l-20.56-20.866zM1090.2 466.365c-4.74-4.725-12.65-1.181-12.65 5.118v39.369c0 6.693 7.91 9.842 12.65 5.118l20.56-20.472c2.37-2.362 2.37-5.906 0-8.268l-20.56-20.865zM1090.2 537.92c-4.74-4.724-12.65-1.181-12.65 5.118v39.369c0 6.693 7.91 9.842 12.65 5.118l20.56-20.472c2.37-2.362 2.37-5.905 0-8.268l-20.56-20.865zM1090.2 609.869c-4.74-4.724-12.65-1.181-12.65 5.118v39.369c0 6.693 7.91 9.843 12.65 5.118l20.56-20.472c2.37-2.362 2.37-5.905 0-8.267l-20.56-20.866zM1405.88 466.365c-4.74-4.725-12.65-1.181-12.65 5.118v39.369c0 6.693 7.91 9.842 12.65 5.118l20.56-20.472c2.37-2.362 2.37-5.906 0-8.268l-20.56-20.865zM1721.56 466.365c-4.74-4.725-12.65-1.181-12.65 5.118v39.369c0 6.693 7.91 9.842 12.65 5.118l20.56-20.472c2.37-2.362 2.37-5.906 0-8.268l-20.56-20.865zM1405.88 537.92c-4.74-4.724-12.65-1.181-12.65 5.118v39.369c0 6.693 7.91 9.842 12.65 5.118l20.56-20.472c2.37-2.362 2.37-5.905 0-8.268l-20.56-20.865zM1721.56 537.92c-4.74-4.724-12.65-1.181-12.65 5.118v39.369c0 6.693 7.91 9.842 12.65 5.118l20.56-20.472c2.37-2.362 2.37-5.905 0-8.268l-20.56-20.865zM1405.88 609.869c-4.74-4.724-12.65-1.181-12.65 5.118v39.369c0 6.693 7.91 9.843 12.65 5.118l20.56-20.472c2.37-2.362 2.37-5.905 0-8.267l-20.56-20.866zM1721.56 609.869c-4.74-4.724-12.65-1.181-12.65 5.118v39.369c0 6.693 7.91 9.843 12.65 5.118l20.56-20.472c2.37-2.362 2.37-5.905 0-8.267l-20.56-20.866zM1248.04 466.365c-4.74-4.725-12.65-1.181-12.65 5.118v39.369c0 6.693 7.91 9.842 12.65 5.118l20.56-20.472c2.37-2.362 2.37-5.906 0-8.268l-20.56-20.865zM1248.04 537.92c-4.74-4.724-12.65-1.181-12.65 5.118v39.369c0 6.693 7.91 9.842 12.65 5.118l20.56-20.472c2.37-2.362 2.37-5.905 0-8.268l-20.56-20.865zM1248.04 609.869c-4.74-4.724-12.65-1.181-12.65 5.118v39.369c0 6.693 7.91 9.843 12.65 5.118l20.56-20.472c2.37-2.362 2.37-5.905 0-8.267l-20.56-20.866zM1563.72 466.365c-4.74-4.725-12.65-1.181-12.65 5.118v39.369c0 6.693 7.91 9.842 12.65 5.118l20.56-20.472c2.37-2.362 2.37-5.906 0-8.268l-20.56-20.865zM1879.4 466.365c-4.74-4.725-12.65-1.181-12.65 5.118v39.369c0 6.693 7.91 9.842 12.65 5.118l20.56-20.472c2.37-2.362 2.37-5.906 0-8.268l-20.56-20.865zM1563.72 537.92c-4.74-4.724-12.65-1.181-12.65 5.118v39.369c0 6.693 7.91 9.842 12.65 5.118l20.56-20.472c2.37-2.362 2.37-5.905 0-8.268l-20.56-20.865zM1879.4 537.92c-4.74-4.724-12.65-1.181-12.65 5.118v39.369c0 6.693 7.91 9.842 12.65 5.118l20.56-20.472c2.37-2.362 2.37-5.905 0-8.268l-20.56-20.865zM1563.72 609.869c-4.74-4.724-12.65-1.181-12.65 5.118v39.369c0 6.693 7.91 9.843 12.65 5.118l20.56-20.472c2.37-2.362 2.37-5.905 0-8.267l-20.56-20.866zM1879.4 609.869c-4.74-4.724-12.65-1.181-12.65 5.118v39.369c0 6.693 7.91 9.843 12.65 5.118l20.56-20.472c2.37-2.362 2.37-5.905 0-8.267l-20.56-20.866zM984.978 677.432c-4.744-4.724-12.65-1.181-12.65 5.118v39.369c0 6.693 7.906 9.843 12.65 5.118l20.552-20.472c2.38-2.362 2.38-5.905 0-8.267l-20.552-20.866zM984.978 748.987c-4.744-4.725-12.65-1.181-12.65 5.118v39.369c0 6.693 7.906 9.842 12.65 5.118l20.552-20.472c2.38-2.362 2.38-5.905 0-8.268l-20.552-20.865zM984.978 820.936c-4.744-4.724-12.65-1.181-12.65 5.118V865.424c0 6.692 7.906 9.842 12.65 5.118l20.552-20.472c2.38-2.363 2.38-5.906 0-8.268l-20.552-20.866zM1300.66 677.432c-4.75-4.724-12.65-1.181-12.65 5.118v39.369c0 6.693 7.9 9.843 12.65 5.118l20.55-20.472c2.38-2.362 2.38-5.905 0-8.267l-20.55-20.866zM1616.34 677.432c-4.75-4.724-12.65-1.181-12.65 5.118v39.369c0 6.693 7.9 9.843 12.65 5.118l20.55-20.472c2.38-2.362 2.38-5.905 0-8.267l-20.55-20.866zM1300.66 748.987c-4.75-4.725-12.65-1.181-12.65 5.118v39.369c0 6.693 7.9 9.842 12.65 5.118l20.55-20.472c2.38-2.362 2.38-5.905 0-8.268l-20.55-20.865zM1616.34 748.987c-4.75-4.725-12.65-1.181-12.65 5.118v39.369c0 6.693 7.9 9.842 12.65 5.118l20.55-20.472c2.38-2.362 2.38-5.905 0-8.268l-20.55-20.865zM1300.66 820.936c-4.75-4.724-12.65-1.181-12.65 5.118V865.424c0 6.692 7.9 9.842 12.65 5.118l20.55-20.472c2.38-2.363 2.38-5.906 0-8.268l-20.55-20.866zM1616.34 820.936c-4.75-4.724-12.65-1.181-12.65 5.118V865.424c0 6.692 7.9 9.842 12.65 5.118l20.55-20.472c2.38-2.363 2.38-5.906 0-8.268l-20.55-20.866zM1142.82 677.432c-4.75-4.724-12.65-1.181-12.65 5.118v39.369c0 6.693 7.9 9.843 12.65 5.118l20.55-20.472c2.38-2.362 2.38-5.905 0-8.267l-20.55-20.866zM1142.82 748.987c-4.75-4.725-12.65-1.181-12.65 5.118v39.369c0 6.693 7.9 9.842 12.65 5.118l20.55-20.472c2.38-2.362 2.38-5.905 0-8.268l-20.55-20.865zM1142.82 820.936c-4.75-4.724-12.65-1.181-12.65 5.118V865.424c0 6.692 7.9 9.842 12.65 5.118l20.55-20.472c2.38-2.363 2.38-5.906 0-8.268l-20.55-20.866zM1458.5 677.432c-4.75-4.724-12.65-1.181-12.65 5.118v39.369c0 6.693 7.9 9.843 12.65 5.118l20.55-20.472c2.38-2.362 2.38-5.905 0-8.267l-20.55-20.866zM1774.18 677.432c-4.75-4.724-12.65-1.181-12.65 5.118v39.369c0 6.693 7.9 9.843 12.65 5.118l20.55-20.472c2.38-2.362 2.38-5.905 0-8.267l-20.55-20.866zM1458.5 748.987c-4.75-4.725-12.65-1.181-12.65 5.118v39.369c0 6.693 7.9 9.842 12.65 5.118l20.55-20.472c2.38-2.362 2.38-5.905 0-8.268l-20.55-20.865zM1774.18 748.987c-4.75-4.725-12.65-1.181-12.65 5.118v39.369c0 6.693 7.9 9.842 12.65 5.118l20.55-20.472c2.38-2.362 2.38-5.905 0-8.268l-20.55-20.865zM1458.5 820.936c-4.75-4.724-12.65-1.181-12.65 5.118V865.424c0 6.692 7.9 9.842 12.65 5.118l20.55-20.472c2.38-2.363 2.38-5.906 0-8.268l-20.55-20.866zM1774.18 820.936c-4.75-4.724-12.65-1.181-12.65 5.118V865.424c0 6.692 7.9 9.842 12.65 5.118l20.55-20.472c2.38-2.363 2.38-5.906 0-8.268l-20.55-20.866zM1037.59 677.432c-4.74-4.724-12.65-1.181-12.65 5.118v39.369c0 6.693 7.91 9.843 12.65 5.118l20.56-20.472c2.37-2.362 2.37-5.905 0-8.267l-20.56-20.866zM1037.59 748.987c-4.74-4.725-12.65-1.181-12.65 5.118v39.369c0 6.693 7.91 9.842 12.65 5.118l20.56-20.472c2.37-2.362 2.37-5.905 0-8.268l-20.56-20.865zM1037.59 820.936c-4.74-4.724-12.65-1.181-12.65 5.118V865.424c0 6.692 7.91 9.842 12.65 5.118l20.56-20.472c2.37-2.363 2.37-5.906 0-8.268l-20.56-20.866zM1353.27 677.432c-4.74-4.724-12.65-1.181-12.65 5.118v39.369c0 6.693 7.91 9.843 12.65 5.118l20.56-20.472c2.37-2.362 2.37-5.905 0-8.267l-20.56-20.866zM1668.95 677.432c-4.74-4.724-12.65-1.181-12.65 5.118v39.369c0 6.693 7.91 9.843 12.65 5.118l20.56-20.472c2.37-2.362 2.37-5.905 0-8.267l-20.56-20.866zM1353.27 748.987c-4.74-4.725-12.65-1.181-12.65 5.118v39.369c0 6.693 7.91 9.842 12.65 5.118l20.56-20.472c2.37-2.362 2.37-5.905 0-8.268l-20.56-20.865zM1668.95 748.987c-4.74-4.725-12.65-1.181-12.65 5.118v39.369c0 6.693 7.91 9.842 12.65 5.118l20.56-20.472c2.37-2.362 2.37-5.905 0-8.268l-20.56-20.865zM1353.27 820.936c-4.74-4.724-12.65-1.181-12.65 5.118V865.424c0 6.692 7.91 9.842 12.65 5.118l20.56-20.472c2.37-2.363 2.37-5.906 0-8.268l-20.56-20.866zM1668.95 820.936c-4.74-4.724-12.65-1.181-12.65 5.118V865.424c0 6.692 7.91 9.842 12.65 5.118l20.56-20.472c2.37-2.363 2.37-5.906 0-8.268l-20.56-20.866zM1195.43 677.432c-4.74-4.724-12.65-1.181-12.65 5.118v39.369c0 6.693 7.91 9.843 12.65 5.118l20.56-20.472c2.37-2.362 2.37-5.905 0-8.267l-20.56-20.866zM1195.43 748.987c-4.74-4.725-12.65-1.181-12.65 5.118v39.369c0 6.693 7.91 9.842 12.65 5.118l20.56-20.472c2.37-2.362 2.37-5.905 0-8.268l-20.56-20.865zM1195.43 820.936c-4.74-4.724-12.65-1.181-12.65 5.118V865.424c0 6.692 7.91 9.842 12.65 5.118l20.56-20.472c2.37-2.363 2.37-5.906 0-8.268l-20.56-20.866zM1511.11 677.432c-4.74-4.724-12.65-1.181-12.65 5.118v39.369c0 6.693 7.91 9.843 12.65 5.118l20.56-20.472c2.37-2.362 2.37-5.905 0-8.267l-20.56-20.866zM1826.79 677.432c-4.74-4.724-12.65-1.181-12.65 5.118v39.369c0 6.693 7.91 9.843 12.65 5.118l20.56-20.472c2.37-2.362 2.37-5.905 0-8.267l-20.56-20.866zM1511.11 748.987c-4.74-4.725-12.65-1.181-12.65 5.118v39.369c0 6.693 7.91 9.842 12.65 5.118l20.56-20.472c2.37-2.362 2.37-5.905 0-8.268l-20.56-20.865zM1826.79 748.987c-4.74-4.725-12.65-1.181-12.65 5.118v39.369c0 6.693 7.91 9.842 12.65 5.118l20.56-20.472c2.37-2.362 2.37-5.905 0-8.268l-20.56-20.865zM1511.11 820.936c-4.74-4.724-12.65-1.181-12.65 5.118V865.424c0 6.692 7.91 9.842 12.65 5.118l20.56-20.472c2.37-2.363 2.37-5.906 0-8.268l-20.56-20.866zM1826.79 820.936c-4.74-4.724-12.65-1.181-12.65 5.118V865.424c0 6.692 7.91 9.842 12.65 5.118l20.56-20.472c2.37-2.363 2.37-5.906 0-8.268l-20.56-20.866zM1090.2 677.038c-4.74-4.724-12.65-1.181-12.65 5.118v39.369c0 6.693 7.91 9.842 12.65 5.118l20.56-20.472c2.37-2.362 2.37-5.905 0-8.267l-20.56-20.866zM1090.2 748.593c-4.74-4.724-12.65-1.181-12.65 5.118v39.369c0 6.693 7.91 9.843 12.65 5.118l20.56-20.472c2.37-2.362 2.37-5.905 0-8.267l-20.56-20.866zM1090.2 820.542c-4.74-4.724-12.65-1.181-12.65 5.118V865.03c0 6.692 7.91 9.842 12.65 5.118l20.56-20.472c2.37-2.363 2.37-5.906 0-8.268l-20.56-20.866zM1405.88 677.038c-4.74-4.724-12.65-1.181-12.65 5.118v39.369c0 6.693 7.91 9.842 12.65 5.118l20.56-20.472c2.37-2.362 2.37-5.905 0-8.267l-20.56-20.866zM1721.56 677.038c-4.74-4.724-12.65-1.181-12.65 5.118v39.369c0 6.693 7.91 9.842 12.65 5.118l20.56-20.472c2.37-2.362 2.37-5.905 0-8.267l-20.56-20.866zM1405.88 748.593c-4.74-4.724-12.65-1.181-12.65 5.118v39.369c0 6.693 7.91 9.843 12.65 5.118l20.56-20.472c2.37-2.362 2.37-5.905 0-8.267l-20.56-20.866zM1721.56 748.593c-4.74-4.724-12.65-1.181-12.65 5.118v39.369c0 6.693 7.91 9.843 12.65 5.118l20.56-20.472c2.37-2.362 2.37-5.905 0-8.267l-20.56-20.866zM1405.88 820.542c-4.74-4.724-12.65-1.181-12.65 5.118V865.03c0 6.692 7.91 9.842 12.65 5.118l20.56-20.472c2.37-2.363 2.37-5.906 0-8.268l-20.56-20.866zM1721.56 820.542c-4.74-4.724-12.65-1.181-12.65 5.118V865.03c0 6.692 7.91 9.842 12.65 5.118l20.56-20.472c2.37-2.363 2.37-5.906 0-8.268l-20.56-20.866zM1248.04 677.038c-4.74-4.724-12.65-1.181-12.65 5.118v39.369c0 6.693 7.91 9.842 12.65 5.118l20.56-20.472c2.37-2.362 2.37-5.905 0-8.267l-20.56-20.866zM1248.04 748.593c-4.74-4.724-12.65-1.181-12.65 5.118v39.369c0 6.693 7.91 9.843 12.65 5.118l20.56-20.472c2.37-2.362 2.37-5.905 0-8.267l-20.56-20.866zM1248.04 820.542c-4.74-4.724-12.65-1.181-12.65 5.118V865.03c0 6.692 7.91 9.842 12.65 5.118l20.56-20.472c2.37-2.363 2.37-5.906 0-8.268l-20.56-20.866zM1563.72 677.038c-4.74-4.724-12.65-1.181-12.65 5.118v39.369c0 6.693 7.91 9.842 12.65 5.118l20.56-20.472c2.37-2.362 2.37-5.905 0-8.267l-20.56-20.866zM1879.4 677.038c-4.74-4.724-12.65-1.181-12.65 5.118v39.369c0 6.693 7.91 9.842 12.65 5.118l20.56-20.472c2.37-2.362 2.37-5.905 0-8.267l-20.56-20.866zM1563.72 748.593c-4.74-4.724-12.65-1.181-12.65 5.118v39.369c0 6.693 7.91 9.843 12.65 5.118l20.56-20.472c2.37-2.362 2.37-5.905 0-8.267l-20.56-20.866zM1879.4 748.593c-4.74-4.724-12.65-1.181-12.65 5.118v39.369c0 6.693 7.91 9.843 12.65 5.118l20.56-20.472c2.37-2.362 2.37-5.905 0-8.267l-20.56-20.866zM1563.72 820.542c-4.74-4.724-12.65-1.181-12.65 5.118V865.03c0 6.692 7.91 9.842 12.65 5.118l20.56-20.472c2.37-2.363 2.37-5.906 0-8.268l-20.56-20.866zM1879.4 820.542c-4.74-4.724-12.65-1.181-12.65 5.118V865.03c0 6.692 7.91 9.842 12.65 5.118l20.56-20.472c2.37-2.363 2.37-5.906 0-8.268l-20.56-20.866z" fill="#fff"/><defs><linearGradient id="paint0_linear" x1="961.307" y1="-20.464" x2="961.307" y2="1130.53" gradientUnits="userSpaceOnUse"><stop stop-color="#EEF3FF" stop-opacity="0"/><stop offset="1" stop-color="#EEF3FF"/></linearGradient></defs></svg>