<svg width="1920" height="1045" viewBox="0 0 1920 1045" fill="none" xmlns="http://www.w3.org/2000/svg">
<rect y="0.817383" width="1922.61" height="1044.18" fill="url(#paint0_linear)"/>
<path d="M44.9039 466.759C40.16 462.034 32.2537 465.578 32.2537 471.877V476.601V506.522V511.246C32.2537 517.939 40.16 521.088 44.9039 516.364L65.4605 495.892C67.8324 493.53 67.8324 489.987 65.4605 487.624L44.9039 466.759Z" fill="white"/>
<path d="M44.9039 538.313C40.16 533.589 32.2537 537.132 32.2537 543.431V548.156V578.076V582.801C32.2537 589.493 40.16 592.643 44.9039 587.919L65.4605 567.447C67.8324 565.084 67.8324 561.541 65.4605 559.179L44.9039 538.313Z" fill="white"/>
<path d="M44.9039 610.263C40.16 605.539 32.2537 609.082 32.2537 615.381V620.105V650.026V654.75C32.2537 661.443 40.16 664.593 44.9039 659.868L65.4605 639.396C67.8324 637.034 67.8324 633.491 65.4605 631.129L44.9039 610.263Z" fill="white"/>
<path d="M360.583 466.759C355.839 462.034 347.933 465.578 347.933 471.877V476.601V506.522V511.246C347.933 517.939 355.839 521.088 360.583 516.364L381.139 495.892C383.511 493.53 383.511 489.987 381.139 487.624L360.583 466.759Z" fill="white"/>
<path d="M676.263 466.759C671.519 462.034 663.613 465.578 663.613 471.877V476.601V506.522V511.246C663.613 517.939 671.519 521.088 676.263 516.364L696.819 495.892C699.191 493.53 699.191 489.987 696.819 487.624L676.263 466.759Z" fill="white"/>
<path d="M360.583 538.313C355.839 533.589 347.933 537.132 347.933 543.431V548.156V578.076V582.801C347.933 589.493 355.839 592.643 360.583 587.919L381.139 567.447C383.511 565.084 383.511 561.541 381.139 559.179L360.583 538.313Z" fill="white"/>
<path d="M676.263 538.313C671.519 533.589 663.613 537.132 663.613 543.431V548.156V578.076V582.801C663.613 589.493 671.519 592.643 676.263 587.919L696.819 567.447C699.191 565.084 699.191 561.541 696.819 559.179L676.263 538.313Z" fill="white"/>
<path d="M360.583 610.263C355.839 605.539 347.933 609.082 347.933 615.381V620.105V650.026V654.75C347.933 661.443 355.839 664.593 360.583 659.868L381.139 639.396C383.511 637.034 383.511 633.491 381.139 631.129L360.583 610.263Z" fill="white"/>
<path d="M676.263 610.263C671.519 605.539 663.613 609.082 663.613 615.381V620.105V650.026V654.75C663.613 661.443 671.519 664.593 676.263 659.868L696.819 639.396C699.191 637.034 699.191 633.491 696.819 631.129L676.263 610.263Z" fill="white"/>
<path d="M202.743 466.759C198 462.034 190.093 465.578 190.093 471.877V476.601V506.522V511.246C190.093 517.939 198 521.088 202.743 516.364L223.3 495.892C225.672 493.53 225.672 489.987 223.3 487.624L202.743 466.759Z" fill="white"/>
<path d="M202.743 538.313C198 533.589 190.093 537.132 190.093 543.431V548.156V578.076V582.801C190.093 589.493 198 592.643 202.743 587.919L223.3 567.447C225.672 565.084 225.672 561.541 223.3 559.179L202.743 538.313Z" fill="white"/>
<path d="M202.743 610.263C198 605.539 190.093 609.082 190.093 615.381V620.105V650.026V654.75C190.093 661.443 198 664.593 202.743 659.868L223.3 639.396C225.672 637.034 225.672 633.491 223.3 631.129L202.743 610.263Z" fill="white"/>
<path d="M518.423 466.759C513.679 462.034 505.772 465.578 505.772 471.877V476.601V506.522V511.246C505.772 517.939 513.679 521.088 518.423 516.364L538.979 495.892C541.351 493.53 541.351 489.987 538.979 487.624L518.423 466.759Z" fill="white"/>
<path d="M834.102 466.759C829.359 462.034 821.452 465.578 821.452 471.877V476.601V506.522V511.246C821.452 517.939 829.359 521.088 834.102 516.364L854.659 495.892C857.031 493.53 857.031 489.987 854.659 487.624L834.102 466.759Z" fill="white"/>
<path d="M518.423 538.313C513.679 533.589 505.772 537.132 505.772 543.431V548.156V578.076V582.801C505.772 589.493 513.679 592.643 518.423 587.919L538.979 567.447C541.351 565.084 541.351 561.541 538.979 559.179L518.423 538.313Z" fill="white"/>
<path d="M834.102 538.313C829.359 533.589 821.452 537.132 821.452 543.431V548.156V578.076V582.801C821.452 589.493 829.359 592.643 834.102 587.919L854.659 567.447C857.031 565.084 857.031 561.541 854.659 559.179L834.102 538.313Z" fill="white"/>
<path d="M518.423 610.263C513.679 605.539 505.772 609.082 505.772 615.381V620.105V650.026V654.75C505.772 661.443 513.679 664.593 518.423 659.868L538.979 639.396C541.351 637.034 541.351 633.491 538.979 631.129L518.423 610.263Z" fill="white"/>
<path d="M834.102 610.263C829.359 605.539 821.452 609.082 821.452 615.381V620.105V650.026V654.75C821.452 661.443 829.359 664.593 834.102 659.868L854.659 639.396C857.031 637.034 857.031 633.491 854.659 631.129L834.102 610.263Z" fill="white"/>
<path d="M97.5172 466.759C92.7734 462.034 84.8669 465.578 84.8669 471.877V476.601V506.522V511.246C84.8669 517.939 92.7734 521.088 97.5172 516.364L118.074 495.892C120.446 493.53 120.446 489.987 118.074 487.624L97.5172 466.759Z" fill="white"/>
<path d="M97.5172 538.313C92.7734 533.589 84.8669 537.132 84.8669 543.431V548.156V578.076V582.801C84.8669 589.493 92.7734 592.643 97.5172 587.919L118.074 567.447C120.446 565.084 120.446 561.541 118.074 559.179L97.5172 538.313Z" fill="white"/>
<path d="M97.5172 610.263C92.7734 605.539 84.8669 609.082 84.8669 615.381V620.105V650.026V654.75C84.8669 661.443 92.7734 664.593 97.5172 659.868L118.074 639.396C120.446 637.034 120.446 633.491 118.074 631.129L97.5172 610.263Z" fill="white"/>
<path d="M413.196 466.759C408.452 462.034 400.546 465.578 400.546 471.877V476.601V506.522V511.246C400.546 517.939 408.452 521.088 413.196 516.364L433.753 495.892C436.125 493.53 436.125 489.987 433.753 487.624L413.196 466.759Z" fill="white"/>
<path d="M728.876 466.759C724.132 462.034 716.226 465.578 716.226 471.877V476.601V506.522V511.246C716.226 517.939 724.132 521.088 728.876 516.364L749.433 495.892C751.805 493.53 751.805 489.987 749.433 487.624L728.876 466.759Z" fill="white"/>
<path d="M413.196 538.313C408.452 533.589 400.546 537.132 400.546 543.431V548.156V578.076V582.801C400.546 589.493 408.452 592.643 413.196 587.919L433.753 567.447C436.125 565.084 436.125 561.541 433.753 559.179L413.196 538.313Z" fill="white"/>
<path d="M728.876 538.313C724.132 533.589 716.226 537.132 716.226 543.431V548.156V578.076V582.801C716.226 589.493 724.132 592.643 728.876 587.919L749.433 567.447C751.805 565.084 751.805 561.541 749.433 559.179L728.876 538.313Z" fill="white"/>
<path d="M413.196 610.263C408.452 605.539 400.546 609.082 400.546 615.381V620.105V650.026V654.75C400.546 661.443 408.452 664.593 413.196 659.868L433.753 639.396C436.125 637.034 436.125 633.491 433.753 631.129L413.196 610.263Z" fill="white"/>
<path d="M728.876 610.263C724.132 605.539 716.226 609.082 716.226 615.381V620.105V650.026V654.75C716.226 661.443 724.132 664.593 728.876 659.868L749.433 639.396C751.805 637.034 751.805 633.491 749.433 631.129L728.876 610.263Z" fill="white"/>
<path d="M255.357 466.759C250.613 462.034 242.706 465.578 242.706 471.877V476.601V506.522V511.246C242.706 517.939 250.613 521.088 255.357 516.364L275.913 495.892C278.285 493.53 278.285 489.987 275.913 487.624L255.357 466.759Z" fill="white"/>
<path d="M255.357 538.313C250.613 533.589 242.706 537.132 242.706 543.431V548.156V578.076V582.801C242.706 589.493 250.613 592.643 255.357 587.919L275.913 567.447C278.285 565.084 278.285 561.541 275.913 559.179L255.357 538.313Z" fill="white"/>
<path d="M255.357 610.263C250.613 605.539 242.706 609.082 242.706 615.381V620.105V650.026V654.75C242.706 661.443 250.613 664.593 255.357 659.868L275.913 639.396C278.285 637.034 278.285 633.491 275.913 631.129L255.357 610.263Z" fill="white"/>
<path d="M571.036 466.759C566.292 462.034 558.385 465.578 558.385 471.877V476.601V506.522V511.246C558.385 517.939 566.292 521.088 571.036 516.364L591.592 495.892C593.964 493.53 593.964 489.987 591.592 487.624L571.036 466.759Z" fill="white"/>
<path d="M886.716 466.759C881.972 462.034 874.065 465.578 874.065 471.877V476.601V506.522V511.246C874.065 517.939 881.972 521.088 886.716 516.364L907.272 495.892C909.644 493.53 909.644 489.987 907.272 487.624L886.716 466.759Z" fill="white"/>
<path d="M571.036 538.313C566.292 533.589 558.385 537.132 558.385 543.431V548.156V578.076V582.801C558.385 589.493 566.292 592.643 571.036 587.919L591.592 567.447C593.964 565.084 593.964 561.541 591.592 559.179L571.036 538.313Z" fill="white"/>
<path d="M886.716 538.313C881.972 533.589 874.065 537.132 874.065 543.431V548.156V578.076V582.801C874.065 589.493 881.972 592.643 886.716 587.919L907.272 567.447C909.644 565.084 909.644 561.541 907.272 559.179L886.716 538.313Z" fill="white"/>
<path d="M571.036 610.263C566.292 605.539 558.385 609.082 558.385 615.381V620.105V650.026V654.75C558.385 661.443 566.292 664.593 571.036 659.868L591.592 639.396C593.964 637.034 593.964 633.491 591.592 631.129L571.036 610.263Z" fill="white"/>
<path d="M886.716 610.263C881.972 605.539 874.065 609.082 874.065 615.381V620.105V650.026V654.75C874.065 661.443 881.972 664.593 886.716 659.868L907.272 639.396C909.644 637.034 909.644 633.491 907.272 631.129L886.716 610.263Z" fill="white"/>
<path d="M150.13 466.365C145.386 461.64 137.48 465.184 137.48 471.483V476.207V506.128V510.852C137.48 517.545 145.386 520.694 150.13 515.97L170.687 495.498C173.059 493.136 173.059 489.592 170.687 487.23L150.13 466.365Z" fill="white"/>
<path d="M150.13 537.92C145.386 533.196 137.48 536.739 137.48 543.038V547.762V577.683V582.407C137.48 589.1 145.386 592.249 150.13 587.525L170.687 567.053C173.059 564.691 173.059 561.148 170.687 558.785L150.13 537.92Z" fill="white"/>
<path d="M150.13 609.869C145.386 605.145 137.48 608.688 137.48 614.987V619.711V649.632V654.356C137.48 661.049 145.386 664.199 150.13 659.474L170.687 639.002C173.059 636.64 173.059 633.097 170.687 630.735L150.13 609.869Z" fill="white"/>
<path d="M465.809 466.365C461.066 461.64 453.159 465.184 453.159 471.483V476.207V506.128V510.852C453.159 517.545 461.066 520.694 465.809 515.97L486.366 495.498C488.738 493.136 488.738 489.592 486.366 487.23L465.809 466.365Z" fill="white"/>
<path d="M781.489 466.365C776.745 461.64 768.839 465.184 768.839 471.483V476.207V506.128V510.852C768.839 517.545 776.745 520.694 781.489 515.97L802.046 495.498C804.418 493.136 804.418 489.592 802.046 487.23L781.489 466.365Z" fill="white"/>
<path d="M465.809 537.92C461.066 533.196 453.159 536.739 453.159 543.038V547.762V577.683V582.407C453.159 589.1 461.066 592.249 465.809 587.525L486.366 567.053C488.738 564.691 488.738 561.148 486.366 558.785L465.809 537.92Z" fill="white"/>
<path d="M781.489 537.92C776.745 533.196 768.839 536.739 768.839 543.038V547.762V577.683V582.407C768.839 589.1 776.745 592.249 781.489 587.525L802.046 567.053C804.418 564.691 804.418 561.148 802.046 558.785L781.489 537.92Z" fill="white"/>
<path d="M465.809 609.869C461.066 605.145 453.159 608.688 453.159 614.987V619.711V649.632V654.356C453.159 661.049 461.066 664.199 465.809 659.474L486.366 639.002C488.738 636.64 488.738 633.097 486.366 630.735L465.809 609.869Z" fill="white"/>
<path d="M781.489 609.869C776.745 605.145 768.839 608.688 768.839 614.987V619.711V649.632V654.356C768.839 661.049 776.745 664.199 781.489 659.474L802.046 639.002C804.418 636.64 804.418 633.097 802.046 630.735L781.489 609.869Z" fill="white"/>
<path d="M307.97 466.365C303.226 461.64 295.32 465.184 295.32 471.483V476.207V506.128V510.852C295.32 517.545 303.226 520.694 307.97 515.97L328.526 495.498C330.898 493.136 330.898 489.592 328.526 487.23L307.97 466.365Z" fill="white"/>
<path d="M307.97 537.92C303.226 533.196 295.32 536.739 295.32 543.038V547.762V577.683V582.407C295.32 589.1 303.226 592.249 307.97 587.525L328.526 567.053C330.898 564.691 330.898 561.148 328.526 558.785L307.97 537.92Z" fill="white"/>
<path d="M307.97 609.869C303.226 605.145 295.32 608.688 295.32 614.987V619.711V649.632V654.356C295.32 661.049 303.226 664.199 307.97 659.474L328.526 639.002C330.898 636.64 330.898 633.097 328.526 630.735L307.97 609.869Z" fill="white"/>
<path d="M623.649 466.365C618.905 461.64 610.999 465.184 610.999 471.483V476.207V506.128V510.852C610.999 517.545 618.905 520.694 623.649 515.97L644.206 495.498C646.578 493.136 646.578 489.592 644.206 487.23L623.649 466.365Z" fill="white"/>
<path d="M939.329 466.365C934.585 461.64 926.678 465.184 926.678 471.483V476.207V506.128V510.852C926.678 517.545 934.585 520.694 939.329 515.97L959.885 495.498C962.257 493.136 962.257 489.592 959.885 487.23L939.329 466.365Z" fill="white"/>
<path d="M623.649 537.92C618.905 533.196 610.999 536.739 610.999 543.038V547.762V577.683V582.407C610.999 589.1 618.905 592.249 623.649 587.525L644.206 567.053C646.578 564.691 646.578 561.148 644.206 558.785L623.649 537.92Z" fill="white"/>
<path d="M939.329 537.92C934.585 533.196 926.678 536.739 926.678 543.038V547.762V577.683V582.407C926.678 589.1 934.585 592.249 939.329 587.525L959.885 567.053C962.257 564.691 962.257 561.148 959.885 558.785L939.329 537.92Z" fill="white"/>
<path d="M623.649 609.869C618.905 605.145 610.999 608.688 610.999 614.987V619.711V649.632V654.356C610.999 661.049 618.905 664.199 623.649 659.474L644.206 639.002C646.578 636.64 646.578 633.097 644.206 630.735L623.649 609.869Z" fill="white"/>
<path d="M939.329 609.869C934.585 605.145 926.678 608.688 926.678 614.987V619.711V649.632V654.356C926.678 661.049 934.585 664.199 939.329 659.474L959.885 639.002C962.257 636.64 962.257 633.097 959.885 630.735L939.329 609.869Z" fill="white"/>
<path d="M44.9039 677.432C40.16 672.708 32.2537 676.251 32.2537 682.55V687.274V717.195V721.919C32.2537 728.612 40.16 731.762 44.9039 727.037L65.4605 706.565C67.8324 704.203 67.8324 700.66 65.4605 698.298L44.9039 677.432Z" fill="white"/>
<path d="M44.9039 748.987C40.16 744.262 32.2537 747.806 32.2537 754.105V758.829V788.75V793.474C32.2537 800.167 40.16 803.316 44.9039 798.592L65.4605 778.12C67.8324 775.758 67.8324 772.215 65.4605 769.852L44.9039 748.987Z" fill="white"/>
<path d="M44.9039 820.936C40.16 816.212 32.2537 819.755 32.2537 826.054V830.779V860.699V865.424C32.2537 872.116 40.16 875.266 44.9039 870.542L65.4605 850.07C67.8324 847.707 67.8324 844.164 65.4605 841.802L44.9039 820.936Z" fill="white"/>
<path d="M360.583 677.432C355.839 672.708 347.933 676.251 347.933 682.55V687.274V717.195V721.919C347.933 728.612 355.839 731.762 360.583 727.037L381.139 706.565C383.511 704.203 383.511 700.66 381.139 698.298L360.583 677.432Z" fill="white"/>
<path d="M676.263 677.432C671.519 672.708 663.613 676.251 663.613 682.55V687.274V717.195V721.919C663.613 728.612 671.519 731.762 676.263 727.037L696.819 706.565C699.191 704.203 699.191 700.66 696.819 698.298L676.263 677.432Z" fill="white"/>
<path d="M360.583 748.987C355.839 744.262 347.933 747.806 347.933 754.105V758.829V788.75V793.474C347.933 800.167 355.839 803.316 360.583 798.592L381.139 778.12C383.511 775.758 383.511 772.215 381.139 769.852L360.583 748.987Z" fill="white"/>
<path d="M676.263 748.987C671.519 744.262 663.613 747.806 663.613 754.105V758.829V788.75V793.474C663.613 800.167 671.519 803.316 676.263 798.592L696.819 778.12C699.191 775.758 699.191 772.215 696.819 769.852L676.263 748.987Z" fill="white"/>
<path d="M360.583 820.936C355.839 816.212 347.933 819.755 347.933 826.054V830.779V860.699V865.424C347.933 872.116 355.839 875.266 360.583 870.542L381.139 850.07C383.511 847.707 383.511 844.164 381.139 841.802L360.583 820.936Z" fill="white"/>
<path d="M676.263 820.936C671.519 816.212 663.613 819.755 663.613 826.054V830.779V860.699V865.424C663.613 872.116 671.519 875.266 676.263 870.542L696.819 850.07C699.191 847.707 699.191 844.164 696.819 841.802L676.263 820.936Z" fill="white"/>
<path d="M202.743 677.432C198 672.708 190.093 676.251 190.093 682.55V687.274V717.195V721.919C190.093 728.612 198 731.762 202.743 727.037L223.3 706.565C225.672 704.203 225.672 700.66 223.3 698.298L202.743 677.432Z" fill="white"/>
<path d="M202.743 748.987C198 744.262 190.093 747.806 190.093 754.105V758.829V788.75V793.474C190.093 800.167 198 803.316 202.743 798.592L223.3 778.12C225.672 775.758 225.672 772.215 223.3 769.852L202.743 748.987Z" fill="white"/>
<path d="M202.743 820.936C198 816.212 190.093 819.755 190.093 826.054V830.779V860.699V865.424C190.093 872.116 198 875.266 202.743 870.542L223.3 850.07C225.672 847.707 225.672 844.164 223.3 841.802L202.743 820.936Z" fill="white"/>
<path d="M518.423 677.432C513.679 672.708 505.772 676.251 505.772 682.55V687.274V717.195V721.919C505.772 728.612 513.679 731.762 518.423 727.037L538.979 706.565C541.351 704.203 541.351 700.66 538.979 698.298L518.423 677.432Z" fill="white"/>
<path d="M834.102 677.432C829.359 672.708 821.452 676.251 821.452 682.55V687.274V717.195V721.919C821.452 728.612 829.359 731.762 834.102 727.037L854.659 706.565C857.031 704.203 857.031 700.66 854.659 698.298L834.102 677.432Z" fill="white"/>
<path d="M518.423 748.987C513.679 744.262 505.772 747.806 505.772 754.105V758.829V788.75V793.474C505.772 800.167 513.679 803.316 518.423 798.592L538.979 778.12C541.351 775.758 541.351 772.215 538.979 769.852L518.423 748.987Z" fill="white"/>
<path d="M834.102 748.987C829.359 744.262 821.452 747.806 821.452 754.105V758.829V788.75V793.474C821.452 800.167 829.359 803.316 834.102 798.592L854.659 778.12C857.031 775.758 857.031 772.215 854.659 769.852L834.102 748.987Z" fill="white"/>
<path d="M518.423 820.936C513.679 816.212 505.772 819.755 505.772 826.054V830.779V860.699V865.424C505.772 872.116 513.679 875.266 518.423 870.542L538.979 850.07C541.351 847.707 541.351 844.164 538.979 841.802L518.423 820.936Z" fill="white"/>
<path d="M834.102 820.936C829.359 816.212 821.452 819.755 821.452 826.054V830.779V860.699V865.424C821.452 872.116 829.359 875.266 834.102 870.542L854.659 850.07C857.031 847.707 857.031 844.164 854.659 841.802L834.102 820.936Z" fill="white"/>
<path d="M97.5172 677.432C92.7734 672.708 84.8669 676.251 84.8669 682.55V687.274V717.195V721.919C84.8669 728.612 92.7734 731.762 97.5172 727.037L118.074 706.565C120.446 704.203 120.446 700.66 118.074 698.298L97.5172 677.432Z" fill="white"/>
<path d="M97.5172 748.987C92.7734 744.262 84.8669 747.806 84.8669 754.105V758.829V788.75V793.474C84.8669 800.167 92.7734 803.316 97.5172 798.592L118.074 778.12C120.446 775.758 120.446 772.215 118.074 769.852L97.5172 748.987Z" fill="white"/>
<path d="M97.5172 820.936C92.7734 816.212 84.8669 819.755 84.8669 826.054V830.779V860.699V865.424C84.8669 872.116 92.7734 875.266 97.5172 870.542L118.074 850.07C120.446 847.707 120.446 844.164 118.074 841.802L97.5172 820.936Z" fill="white"/>
<path d="M413.196 677.432C408.452 672.708 400.546 676.251 400.546 682.55V687.274V717.195V721.919C400.546 728.612 408.452 731.762 413.196 727.037L433.753 706.565C436.125 704.203 436.125 700.66 433.753 698.298L413.196 677.432Z" fill="white"/>
<path d="M728.876 677.432C724.132 672.708 716.226 676.251 716.226 682.55V687.274V717.195V721.919C716.226 728.612 724.132 731.762 728.876 727.037L749.433 706.565C751.805 704.203 751.805 700.66 749.433 698.298L728.876 677.432Z" fill="white"/>
<path d="M413.196 748.987C408.452 744.262 400.546 747.806 400.546 754.105V758.829V788.75V793.474C400.546 800.167 408.452 803.316 413.196 798.592L433.753 778.12C436.125 775.758 436.125 772.215 433.753 769.852L413.196 748.987Z" fill="white"/>
<path d="M728.876 748.987C724.132 744.262 716.226 747.806 716.226 754.105V758.829V788.75V793.474C716.226 800.167 724.132 803.316 728.876 798.592L749.433 778.12C751.805 775.758 751.805 772.215 749.433 769.852L728.876 748.987Z" fill="white"/>
<path d="M413.196 820.936C408.452 816.212 400.546 819.755 400.546 826.054V830.779V860.699V865.424C400.546 872.116 408.452 875.266 413.196 870.542L433.753 850.07C436.125 847.707 436.125 844.164 433.753 841.802L413.196 820.936Z" fill="white"/>
<path d="M728.876 820.936C724.132 816.212 716.226 819.755 716.226 826.054V830.779V860.699V865.424C716.226 872.116 724.132 875.266 728.876 870.542L749.433 850.07C751.805 847.707 751.805 844.164 749.433 841.802L728.876 820.936Z" fill="white"/>
<path d="M255.357 677.432C250.613 672.708 242.706 676.251 242.706 682.55V687.274V717.195V721.919C242.706 728.612 250.613 731.762 255.357 727.037L275.913 706.565C278.285 704.203 278.285 700.66 275.913 698.298L255.357 677.432Z" fill="white"/>
<path d="M255.357 748.987C250.613 744.262 242.706 747.806 242.706 754.105V758.829V788.75V793.474C242.706 800.167 250.613 803.316 255.357 798.592L275.913 778.12C278.285 775.758 278.285 772.215 275.913 769.852L255.357 748.987Z" fill="white"/>
<path d="M255.357 820.936C250.613 816.212 242.706 819.755 242.706 826.054V830.779V860.699V865.424C242.706 872.116 250.613 875.266 255.357 870.542L275.913 850.07C278.285 847.707 278.285 844.164 275.913 841.802L255.357 820.936Z" fill="white"/>
<path d="M571.036 677.432C566.292 672.708 558.385 676.251 558.385 682.55V687.274V717.195V721.919C558.385 728.612 566.292 731.762 571.036 727.037L591.592 706.565C593.964 704.203 593.964 700.66 591.592 698.298L571.036 677.432Z" fill="white"/>
<path d="M886.716 677.432C881.972 672.708 874.065 676.251 874.065 682.55V687.274V717.195V721.919C874.065 728.612 881.972 731.762 886.716 727.037L907.272 706.565C909.644 704.203 909.644 700.66 907.272 698.298L886.716 677.432Z" fill="white"/>
<path d="M571.036 748.987C566.292 744.262 558.385 747.806 558.385 754.105V758.829V788.75V793.474C558.385 800.167 566.292 803.316 571.036 798.592L591.592 778.12C593.964 775.758 593.964 772.215 591.592 769.852L571.036 748.987Z" fill="white"/>
<path d="M886.716 748.987C881.972 744.262 874.065 747.806 874.065 754.105V758.829V788.75V793.474C874.065 800.167 881.972 803.316 886.716 798.592L907.272 778.12C909.644 775.758 909.644 772.215 907.272 769.852L886.716 748.987Z" fill="white"/>
<path d="M571.036 820.936C566.292 816.212 558.385 819.755 558.385 826.054V830.779V860.699V865.424C558.385 872.116 566.292 875.266 571.036 870.542L591.592 850.07C593.964 847.707 593.964 844.164 591.592 841.802L571.036 820.936Z" fill="white"/>
<path d="M886.716 820.936C881.972 816.212 874.065 819.755 874.065 826.054V830.779V860.699V865.424C874.065 872.116 881.972 875.266 886.716 870.542L907.272 850.07C909.644 847.707 909.644 844.164 907.272 841.802L886.716 820.936Z" fill="white"/>
<path d="M150.13 677.038C145.386 672.314 137.48 675.857 137.48 682.156V686.88V716.801V721.525C137.48 728.218 145.386 731.367 150.13 726.643L170.687 706.171C173.059 703.809 173.059 700.266 170.687 697.904L150.13 677.038Z" fill="white"/>
<path d="M150.13 748.593C145.386 743.869 137.48 747.412 137.48 753.711V758.435V788.356V793.08C137.48 799.773 145.386 802.923 150.13 798.198L170.687 777.726C173.059 775.364 173.059 771.821 170.687 769.459L150.13 748.593Z" fill="white"/>
<path d="M150.13 820.542C145.386 815.818 137.48 819.361 137.48 825.66V830.385V860.305V865.03C137.48 871.722 145.386 874.872 150.13 870.148L170.687 849.676C173.059 847.313 173.059 843.77 170.687 841.408L150.13 820.542Z" fill="white"/>
<path d="M465.809 677.038C461.066 672.314 453.159 675.857 453.159 682.156V686.88V716.801V721.525C453.159 728.218 461.066 731.367 465.809 726.643L486.366 706.171C488.738 703.809 488.738 700.266 486.366 697.904L465.809 677.038Z" fill="white"/>
<path d="M781.489 677.038C776.745 672.314 768.839 675.857 768.839 682.156V686.88V716.801V721.525C768.839 728.218 776.745 731.367 781.489 726.643L802.046 706.171C804.418 703.809 804.418 700.266 802.046 697.904L781.489 677.038Z" fill="white"/>
<path d="M465.809 748.593C461.066 743.869 453.159 747.412 453.159 753.711V758.435V788.356V793.08C453.159 799.773 461.066 802.923 465.809 798.198L486.366 777.726C488.738 775.364 488.738 771.821 486.366 769.459L465.809 748.593Z" fill="white"/>
<path d="M781.489 748.593C776.745 743.869 768.839 747.412 768.839 753.711V758.435V788.356V793.08C768.839 799.773 776.745 802.923 781.489 798.198L802.046 777.726C804.418 775.364 804.418 771.821 802.046 769.459L781.489 748.593Z" fill="white"/>
<path d="M465.809 820.542C461.066 815.818 453.159 819.361 453.159 825.66V830.385V860.305V865.03C453.159 871.722 461.066 874.872 465.809 870.148L486.366 849.676C488.738 847.313 488.738 843.77 486.366 841.408L465.809 820.542Z" fill="white"/>
<path d="M781.489 820.542C776.745 815.818 768.839 819.361 768.839 825.66V830.385V860.305V865.03C768.839 871.722 776.745 874.872 781.489 870.148L802.046 849.676C804.418 847.313 804.418 843.77 802.046 841.408L781.489 820.542Z" fill="white"/>
<path d="M307.97 677.038C303.226 672.314 295.32 675.857 295.32 682.156V686.88V716.801V721.525C295.32 728.218 303.226 731.367 307.97 726.643L328.526 706.171C330.898 703.809 330.898 700.266 328.526 697.904L307.97 677.038Z" fill="white"/>
<path d="M307.97 748.593C303.226 743.869 295.32 747.412 295.32 753.711V758.435V788.356V793.08C295.32 799.773 303.226 802.923 307.97 798.198L328.526 777.726C330.898 775.364 330.898 771.821 328.526 769.459L307.97 748.593Z" fill="white"/>
<path d="M307.97 820.542C303.226 815.818 295.32 819.361 295.32 825.66V830.385V860.305V865.03C295.32 871.722 303.226 874.872 307.97 870.148L328.526 849.676C330.898 847.313 330.898 843.77 328.526 841.408L307.97 820.542Z" fill="white"/>
<path d="M623.649 677.038C618.905 672.314 610.999 675.857 610.999 682.156V686.88V716.801V721.525C610.999 728.218 618.905 731.367 623.649 726.643L644.206 706.171C646.578 703.809 646.578 700.266 644.206 697.904L623.649 677.038Z" fill="white"/>
<path d="M939.329 677.038C934.585 672.314 926.678 675.857 926.678 682.156V686.88V716.801V721.525C926.678 728.218 934.585 731.367 939.329 726.643L959.885 706.171C962.257 703.809 962.257 700.266 959.885 697.904L939.329 677.038Z" fill="white"/>
<path d="M623.649 748.593C618.905 743.869 610.999 747.412 610.999 753.711V758.435V788.356V793.08C610.999 799.773 618.905 802.923 623.649 798.198L644.206 777.726C646.578 775.364 646.578 771.821 644.206 769.459L623.649 748.593Z" fill="white"/>
<path d="M939.329 748.593C934.585 743.869 926.678 747.412 926.678 753.711V758.435V788.356V793.08C926.678 799.773 934.585 802.923 939.329 798.198L959.885 777.726C962.257 775.364 962.257 771.821 959.885 769.459L939.329 748.593Z" fill="white"/>
<path d="M623.649 820.542C618.905 815.818 610.999 819.361 610.999 825.66V830.385V860.305V865.03C610.999 871.722 618.905 874.872 623.649 870.148L644.206 849.676C646.578 847.313 646.578 843.77 644.206 841.408L623.649 820.542Z" fill="white"/>
<path d="M939.329 820.542C934.585 815.818 926.678 819.361 926.678 825.66V830.385V860.305V865.03C926.678 871.722 934.585 874.872 939.329 870.148L959.885 849.676C962.257 847.313 962.257 843.77 959.885 841.408L939.329 820.542Z" fill="white"/>
<path d="M984.978 466.759C980.234 462.034 972.328 465.578 972.328 471.877V476.601V506.522V511.246C972.328 517.939 980.234 521.088 984.978 516.364L1005.53 495.892C1007.91 493.53 1007.91 489.987 1005.53 487.624L984.978 466.759Z" fill="white"/>
<path d="M984.978 538.313C980.234 533.589 972.328 537.132 972.328 543.431V548.156V578.076V582.801C972.328 589.493 980.234 592.643 984.978 587.919L1005.53 567.447C1007.91 565.084 1007.91 561.541 1005.53 559.179L984.978 538.313Z" fill="white"/>
<path d="M984.978 610.263C980.234 605.539 972.328 609.082 972.328 615.381V620.105V650.026V654.75C972.328 661.443 980.234 664.593 984.978 659.868L1005.53 639.396C1007.91 637.034 1007.91 633.491 1005.53 631.129L984.978 610.263Z" fill="white"/>
<path d="M1300.66 466.759C1295.91 462.034 1288.01 465.578 1288.01 471.877V476.601V506.522V511.246C1288.01 517.939 1295.91 521.088 1300.66 516.364L1321.21 495.892C1323.59 493.53 1323.59 489.987 1321.21 487.624L1300.66 466.759Z" fill="white"/>
<path d="M1616.34 466.759C1611.59 462.034 1603.69 465.578 1603.69 471.877V476.601V506.522V511.246C1603.69 517.939 1611.59 521.088 1616.34 516.364L1636.89 495.892C1639.27 493.53 1639.27 489.987 1636.89 487.624L1616.34 466.759Z" fill="white"/>
<path d="M1300.66 538.313C1295.91 533.589 1288.01 537.132 1288.01 543.431V548.156V578.076V582.801C1288.01 589.493 1295.91 592.643 1300.66 587.919L1321.21 567.447C1323.59 565.084 1323.59 561.541 1321.21 559.179L1300.66 538.313Z" fill="white"/>
<path d="M1616.34 538.313C1611.59 533.589 1603.69 537.132 1603.69 543.431V548.156V578.076V582.801C1603.69 589.493 1611.59 592.643 1616.34 587.919L1636.89 567.447C1639.27 565.084 1639.27 561.541 1636.89 559.179L1616.34 538.313Z" fill="white"/>
<path d="M1300.66 610.263C1295.91 605.539 1288.01 609.082 1288.01 615.381V620.105V650.026V654.75C1288.01 661.443 1295.91 664.593 1300.66 659.868L1321.21 639.396C1323.59 637.034 1323.59 633.491 1321.21 631.129L1300.66 610.263Z" fill="white"/>
<path d="M1616.34 610.263C1611.59 605.539 1603.69 609.082 1603.69 615.381V620.105V650.026V654.75C1603.69 661.443 1611.59 664.593 1616.34 659.868L1636.89 639.396C1639.27 637.034 1639.27 633.491 1636.89 631.129L1616.34 610.263Z" fill="white"/>
<path d="M1142.82 466.759C1138.07 462.034 1130.17 465.578 1130.17 471.877V476.601V506.522V511.246C1130.17 517.939 1138.07 521.088 1142.82 516.364L1163.37 495.892C1165.75 493.53 1165.75 489.987 1163.37 487.624L1142.82 466.759Z" fill="white"/>
<path d="M1142.82 538.313C1138.07 533.589 1130.17 537.132 1130.17 543.431V548.156V578.076V582.801C1130.17 589.493 1138.07 592.643 1142.82 587.919L1163.37 567.447C1165.75 565.084 1165.75 561.541 1163.37 559.179L1142.82 538.313Z" fill="white"/>
<path d="M1142.82 610.263C1138.07 605.539 1130.17 609.082 1130.17 615.381V620.105V650.026V654.75C1130.17 661.443 1138.07 664.593 1142.82 659.868L1163.37 639.396C1165.75 637.034 1165.75 633.491 1163.37 631.129L1142.82 610.263Z" fill="white"/>
<path d="M1458.5 466.759C1453.75 462.034 1445.85 465.578 1445.85 471.877V476.601V506.522V511.246C1445.85 517.939 1453.75 521.088 1458.5 516.364L1479.05 495.892C1481.43 493.53 1481.43 489.987 1479.05 487.624L1458.5 466.759Z" fill="white"/>
<path d="M1774.18 466.759C1769.43 462.034 1761.53 465.578 1761.53 471.877V476.601V506.522V511.246C1761.53 517.939 1769.43 521.088 1774.18 516.364L1794.73 495.892C1797.11 493.53 1797.11 489.987 1794.73 487.624L1774.18 466.759Z" fill="white"/>
<path d="M1458.5 538.313C1453.75 533.589 1445.85 537.132 1445.85 543.431V548.156V578.076V582.801C1445.85 589.493 1453.75 592.643 1458.5 587.919L1479.05 567.447C1481.43 565.084 1481.43 561.541 1479.05 559.179L1458.5 538.313Z" fill="white"/>
<path d="M1774.18 538.313C1769.43 533.589 1761.53 537.132 1761.53 543.431V548.156V578.076V582.801C1761.53 589.493 1769.43 592.643 1774.18 587.919L1794.73 567.447C1797.11 565.084 1797.11 561.541 1794.73 559.179L1774.18 538.313Z" fill="white"/>
<path d="M1458.5 610.263C1453.75 605.539 1445.85 609.082 1445.85 615.381V620.105V650.026V654.75C1445.85 661.443 1453.75 664.593 1458.5 659.868L1479.05 639.396C1481.43 637.034 1481.43 633.491 1479.05 631.129L1458.5 610.263Z" fill="white"/>
<path d="M1774.18 610.263C1769.43 605.539 1761.53 609.082 1761.53 615.381V620.105V650.026V654.75C1761.53 661.443 1769.43 664.593 1774.18 659.868L1794.73 639.396C1797.11 637.034 1797.11 633.491 1794.73 631.129L1774.18 610.263Z" fill="white"/>
<path d="M1037.59 466.759C1032.85 462.034 1024.94 465.578 1024.94 471.877V476.601V506.522V511.246C1024.94 517.939 1032.85 521.088 1037.59 516.364L1058.15 495.892C1060.52 493.53 1060.52 489.987 1058.15 487.624L1037.59 466.759Z" fill="white"/>
<path d="M1037.59 538.313C1032.85 533.589 1024.94 537.132 1024.94 543.431V548.156V578.076V582.801C1024.94 589.493 1032.85 592.643 1037.59 587.919L1058.15 567.447C1060.52 565.084 1060.52 561.541 1058.15 559.179L1037.59 538.313Z" fill="white"/>
<path d="M1037.59 610.263C1032.85 605.539 1024.94 609.082 1024.94 615.381V620.105V650.026V654.75C1024.94 661.443 1032.85 664.593 1037.59 659.868L1058.15 639.396C1060.52 637.034 1060.52 633.491 1058.15 631.129L1037.59 610.263Z" fill="white"/>
<path d="M1353.27 466.759C1348.53 462.034 1340.62 465.578 1340.62 471.877V476.601V506.522V511.246C1340.62 517.939 1348.53 521.088 1353.27 516.364L1373.83 495.892C1376.2 493.53 1376.2 489.987 1373.83 487.624L1353.27 466.759Z" fill="white"/>
<path d="M1668.95 466.759C1664.21 462.034 1656.3 465.578 1656.3 471.877V476.601V506.522V511.246C1656.3 517.939 1664.21 521.088 1668.95 516.364L1689.51 495.892C1691.88 493.53 1691.88 489.987 1689.51 487.624L1668.95 466.759Z" fill="white"/>
<path d="M1353.27 538.313C1348.53 533.589 1340.62 537.132 1340.62 543.431V548.156V578.076V582.801C1340.62 589.493 1348.53 592.643 1353.27 587.919L1373.83 567.447C1376.2 565.084 1376.2 561.541 1373.83 559.179L1353.27 538.313Z" fill="white"/>
<path d="M1668.95 538.313C1664.21 533.589 1656.3 537.132 1656.3 543.431V548.156V578.076V582.801C1656.3 589.493 1664.21 592.643 1668.95 587.919L1689.51 567.447C1691.88 565.084 1691.88 561.541 1689.51 559.179L1668.95 538.313Z" fill="white"/>
<path d="M1353.27 610.263C1348.53 605.539 1340.62 609.082 1340.62 615.381V620.105V650.026V654.75C1340.62 661.443 1348.53 664.593 1353.27 659.868L1373.83 639.396C1376.2 637.034 1376.2 633.491 1373.83 631.129L1353.27 610.263Z" fill="white"/>
<path d="M1668.95 610.263C1664.21 605.539 1656.3 609.082 1656.3 615.381V620.105V650.026V654.75C1656.3 661.443 1664.21 664.593 1668.95 659.868L1689.51 639.396C1691.88 637.034 1691.88 633.491 1689.51 631.129L1668.95 610.263Z" fill="white"/>
<path d="M1195.43 466.759C1190.69 462.034 1182.78 465.578 1182.78 471.877V476.601V506.522V511.246C1182.78 517.939 1190.69 521.088 1195.43 516.364L1215.99 495.892C1218.36 493.53 1218.36 489.987 1215.99 487.624L1195.43 466.759Z" fill="white"/>
<path d="M1195.43 538.313C1190.69 533.589 1182.78 537.132 1182.78 543.431V548.156V578.076V582.801C1182.78 589.493 1190.69 592.643 1195.43 587.919L1215.99 567.447C1218.36 565.084 1218.36 561.541 1215.99 559.179L1195.43 538.313Z" fill="white"/>
<path d="M1195.43 610.263C1190.69 605.539 1182.78 609.082 1182.78 615.381V620.105V650.026V654.75C1182.78 661.443 1190.69 664.593 1195.43 659.868L1215.99 639.396C1218.36 637.034 1218.36 633.491 1215.99 631.129L1195.43 610.263Z" fill="white"/>
<path d="M1511.11 466.759C1506.37 462.034 1498.46 465.578 1498.46 471.877V476.601V506.522V511.246C1498.46 517.939 1506.37 521.088 1511.11 516.364L1531.67 495.892C1534.04 493.53 1534.04 489.987 1531.67 487.624L1511.11 466.759Z" fill="white"/>
<path d="M1826.79 466.759C1822.05 462.034 1814.14 465.578 1814.14 471.877V476.601V506.522V511.246C1814.14 517.939 1822.05 521.088 1826.79 516.364L1847.35 495.892C1849.72 493.53 1849.72 489.987 1847.35 487.624L1826.79 466.759Z" fill="white"/>
<path d="M1511.11 538.313C1506.37 533.589 1498.46 537.132 1498.46 543.431V548.156V578.076V582.801C1498.46 589.493 1506.37 592.643 1511.11 587.919L1531.67 567.447C1534.04 565.084 1534.04 561.541 1531.67 559.179L1511.11 538.313Z" fill="white"/>
<path d="M1826.79 538.313C1822.05 533.589 1814.14 537.132 1814.14 543.431V548.156V578.076V582.801C1814.14 589.493 1822.05 592.643 1826.79 587.919L1847.35 567.447C1849.72 565.084 1849.72 561.541 1847.35 559.179L1826.79 538.313Z" fill="white"/>
<path d="M1511.11 610.263C1506.37 605.539 1498.46 609.082 1498.46 615.381V620.105V650.026V654.75C1498.46 661.443 1506.37 664.593 1511.11 659.868L1531.67 639.396C1534.04 637.034 1534.04 633.491 1531.67 631.129L1511.11 610.263Z" fill="white"/>
<path d="M1826.79 610.263C1822.05 605.539 1814.14 609.082 1814.14 615.381V620.105V650.026V654.75C1814.14 661.443 1822.05 664.593 1826.79 659.868L1847.35 639.396C1849.72 637.034 1849.72 633.491 1847.35 631.129L1826.79 610.263Z" fill="white"/>
<path d="M1090.2 466.365C1085.46 461.64 1077.55 465.184 1077.55 471.483V476.207V506.128V510.852C1077.55 517.545 1085.46 520.694 1090.2 515.97L1110.76 495.498C1113.13 493.136 1113.13 489.592 1110.76 487.23L1090.2 466.365Z" fill="white"/>
<path d="M1090.2 537.92C1085.46 533.196 1077.55 536.739 1077.55 543.038V547.762V577.683V582.407C1077.55 589.1 1085.46 592.249 1090.2 587.525L1110.76 567.053C1113.13 564.691 1113.13 561.148 1110.76 558.785L1090.2 537.92Z" fill="white"/>
<path d="M1090.2 609.869C1085.46 605.145 1077.55 608.688 1077.55 614.987V619.711V649.632V654.356C1077.55 661.049 1085.46 664.199 1090.2 659.474L1110.76 639.002C1113.13 636.64 1113.13 633.097 1110.76 630.735L1090.2 609.869Z" fill="white"/>
<path d="M1405.88 466.365C1401.14 461.64 1393.23 465.184 1393.23 471.483V476.207V506.128V510.852C1393.23 517.545 1401.14 520.694 1405.88 515.97L1426.44 495.498C1428.81 493.136 1428.81 489.592 1426.44 487.23L1405.88 466.365Z" fill="white"/>
<path d="M1721.56 466.365C1716.82 461.64 1708.91 465.184 1708.91 471.483V476.207V506.128V510.852C1708.91 517.545 1716.82 520.694 1721.56 515.97L1742.12 495.498C1744.49 493.136 1744.49 489.592 1742.12 487.23L1721.56 466.365Z" fill="white"/>
<path d="M1405.88 537.92C1401.14 533.196 1393.23 536.739 1393.23 543.038V547.762V577.683V582.407C1393.23 589.1 1401.14 592.249 1405.88 587.525L1426.44 567.053C1428.81 564.691 1428.81 561.148 1426.44 558.785L1405.88 537.92Z" fill="white"/>
<path d="M1721.56 537.92C1716.82 533.196 1708.91 536.739 1708.91 543.038V547.762V577.683V582.407C1708.91 589.1 1716.82 592.249 1721.56 587.525L1742.12 567.053C1744.49 564.691 1744.49 561.148 1742.12 558.785L1721.56 537.92Z" fill="white"/>
<path d="M1405.88 609.869C1401.14 605.145 1393.23 608.688 1393.23 614.987V619.711V649.632V654.356C1393.23 661.049 1401.14 664.199 1405.88 659.474L1426.44 639.002C1428.81 636.64 1428.81 633.097 1426.44 630.735L1405.88 609.869Z" fill="white"/>
<path d="M1721.56 609.869C1716.82 605.145 1708.91 608.688 1708.91 614.987V619.711V649.632V654.356C1708.91 661.049 1716.82 664.199 1721.56 659.474L1742.12 639.002C1744.49 636.64 1744.49 633.097 1742.12 630.735L1721.56 609.869Z" fill="white"/>
<path d="M1248.04 466.365C1243.3 461.64 1235.39 465.184 1235.39 471.483V476.207V506.128V510.852C1235.39 517.545 1243.3 520.694 1248.04 515.97L1268.6 495.498C1270.97 493.136 1270.97 489.592 1268.6 487.23L1248.04 466.365Z" fill="white"/>
<path d="M1248.04 537.92C1243.3 533.196 1235.39 536.739 1235.39 543.038V547.762V577.683V582.407C1235.39 589.1 1243.3 592.249 1248.04 587.525L1268.6 567.053C1270.97 564.691 1270.97 561.148 1268.6 558.785L1248.04 537.92Z" fill="white"/>
<path d="M1248.04 609.869C1243.3 605.145 1235.39 608.688 1235.39 614.987V619.711V649.632V654.356C1235.39 661.049 1243.3 664.199 1248.04 659.474L1268.6 639.002C1270.97 636.64 1270.97 633.097 1268.6 630.735L1248.04 609.869Z" fill="white"/>
<path d="M1563.72 466.365C1558.98 461.64 1551.07 465.184 1551.07 471.483V476.207V506.128V510.852C1551.07 517.545 1558.98 520.694 1563.72 515.97L1584.28 495.498C1586.65 493.136 1586.65 489.592 1584.28 487.23L1563.72 466.365Z" fill="white"/>
<path d="M1879.4 466.365C1874.66 461.64 1866.75 465.184 1866.75 471.483V476.207V506.128V510.852C1866.75 517.545 1874.66 520.694 1879.4 515.97L1899.96 495.498C1902.33 493.136 1902.33 489.592 1899.96 487.23L1879.4 466.365Z" fill="white"/>
<path d="M1563.72 537.92C1558.98 533.196 1551.07 536.739 1551.07 543.038V547.762V577.683V582.407C1551.07 589.1 1558.98 592.249 1563.72 587.525L1584.28 567.053C1586.65 564.691 1586.65 561.148 1584.28 558.785L1563.72 537.92Z" fill="white"/>
<path d="M1879.4 537.92C1874.66 533.196 1866.75 536.739 1866.75 543.038V547.762V577.683V582.407C1866.75 589.1 1874.66 592.249 1879.4 587.525L1899.96 567.053C1902.33 564.691 1902.33 561.148 1899.96 558.785L1879.4 537.92Z" fill="white"/>
<path d="M1563.72 609.869C1558.98 605.145 1551.07 608.688 1551.07 614.987V619.711V649.632V654.356C1551.07 661.049 1558.98 664.199 1563.72 659.474L1584.28 639.002C1586.65 636.64 1586.65 633.097 1584.28 630.735L1563.72 609.869Z" fill="white"/>
<path d="M1879.4 609.869C1874.66 605.145 1866.75 608.688 1866.75 614.987V619.711V649.632V654.356C1866.75 661.049 1874.66 664.199 1879.4 659.474L1899.96 639.002C1902.33 636.64 1902.33 633.097 1899.96 630.735L1879.4 609.869Z" fill="white"/>
<path d="M984.978 677.432C980.234 672.708 972.328 676.251 972.328 682.55V687.274V717.195V721.919C972.328 728.612 980.234 731.762 984.978 727.037L1005.53 706.565C1007.91 704.203 1007.91 700.66 1005.53 698.298L984.978 677.432Z" fill="white"/>
<path d="M984.978 748.987C980.234 744.262 972.328 747.806 972.328 754.105V758.829V788.75V793.474C972.328 800.167 980.234 803.316 984.978 798.592L1005.53 778.12C1007.91 775.758 1007.91 772.215 1005.53 769.852L984.978 748.987Z" fill="white"/>
<path d="M984.978 820.936C980.234 816.212 972.328 819.755 972.328 826.054V830.779V860.699V865.424C972.328 872.116 980.234 875.266 984.978 870.542L1005.53 850.07C1007.91 847.707 1007.91 844.164 1005.53 841.802L984.978 820.936Z" fill="white"/>
<path d="M1300.66 677.432C1295.91 672.708 1288.01 676.251 1288.01 682.55V687.274V717.195V721.919C1288.01 728.612 1295.91 731.762 1300.66 727.037L1321.21 706.565C1323.59 704.203 1323.59 700.66 1321.21 698.298L1300.66 677.432Z" fill="white"/>
<path d="M1616.34 677.432C1611.59 672.708 1603.69 676.251 1603.69 682.55V687.274V717.195V721.919C1603.69 728.612 1611.59 731.762 1616.34 727.037L1636.89 706.565C1639.27 704.203 1639.27 700.66 1636.89 698.298L1616.34 677.432Z" fill="white"/>
<path d="M1300.66 748.987C1295.91 744.262 1288.01 747.806 1288.01 754.105V758.829V788.75V793.474C1288.01 800.167 1295.91 803.316 1300.66 798.592L1321.21 778.12C1323.59 775.758 1323.59 772.215 1321.21 769.852L1300.66 748.987Z" fill="white"/>
<path d="M1616.34 748.987C1611.59 744.262 1603.69 747.806 1603.69 754.105V758.829V788.75V793.474C1603.69 800.167 1611.59 803.316 1616.34 798.592L1636.89 778.12C1639.27 775.758 1639.27 772.215 1636.89 769.852L1616.34 748.987Z" fill="white"/>
<path d="M1300.66 820.936C1295.91 816.212 1288.01 819.755 1288.01 826.054V830.779V860.699V865.424C1288.01 872.116 1295.91 875.266 1300.66 870.542L1321.21 850.07C1323.59 847.707 1323.59 844.164 1321.21 841.802L1300.66 820.936Z" fill="white"/>
<path d="M1616.34 820.936C1611.59 816.212 1603.69 819.755 1603.69 826.054V830.779V860.699V865.424C1603.69 872.116 1611.59 875.266 1616.34 870.542L1636.89 850.07C1639.27 847.707 1639.27 844.164 1636.89 841.802L1616.34 820.936Z" fill="white"/>
<path d="M1142.82 677.432C1138.07 672.708 1130.17 676.251 1130.17 682.55V687.274V717.195V721.919C1130.17 728.612 1138.07 731.762 1142.82 727.037L1163.37 706.565C1165.75 704.203 1165.75 700.66 1163.37 698.298L1142.82 677.432Z" fill="white"/>
<path d="M1142.82 748.987C1138.07 744.262 1130.17 747.806 1130.17 754.105V758.829V788.75V793.474C1130.17 800.167 1138.07 803.316 1142.82 798.592L1163.37 778.12C1165.75 775.758 1165.75 772.215 1163.37 769.852L1142.82 748.987Z" fill="white"/>
<path d="M1142.82 820.936C1138.07 816.212 1130.17 819.755 1130.17 826.054V830.779V860.699V865.424C1130.17 872.116 1138.07 875.266 1142.82 870.542L1163.37 850.07C1165.75 847.707 1165.75 844.164 1163.37 841.802L1142.82 820.936Z" fill="white"/>
<path d="M1458.5 677.432C1453.75 672.708 1445.85 676.251 1445.85 682.55V687.274V717.195V721.919C1445.85 728.612 1453.75 731.762 1458.5 727.037L1479.05 706.565C1481.43 704.203 1481.43 700.66 1479.05 698.298L1458.5 677.432Z" fill="white"/>
<path d="M1774.18 677.432C1769.43 672.708 1761.53 676.251 1761.53 682.55V687.274V717.195V721.919C1761.53 728.612 1769.43 731.762 1774.18 727.037L1794.73 706.565C1797.11 704.203 1797.11 700.66 1794.73 698.298L1774.18 677.432Z" fill="white"/>
<path d="M1458.5 748.987C1453.75 744.262 1445.85 747.806 1445.85 754.105V758.829V788.75V793.474C1445.85 800.167 1453.75 803.316 1458.5 798.592L1479.05 778.12C1481.43 775.758 1481.43 772.215 1479.05 769.852L1458.5 748.987Z" fill="white"/>
<path d="M1774.18 748.987C1769.43 744.262 1761.53 747.806 1761.53 754.105V758.829V788.75V793.474C1761.53 800.167 1769.43 803.316 1774.18 798.592L1794.73 778.12C1797.11 775.758 1797.11 772.215 1794.73 769.852L1774.18 748.987Z" fill="white"/>
<path d="M1458.5 820.936C1453.75 816.212 1445.85 819.755 1445.85 826.054V830.779V860.699V865.424C1445.85 872.116 1453.75 875.266 1458.5 870.542L1479.05 850.07C1481.43 847.707 1481.43 844.164 1479.05 841.802L1458.5 820.936Z" fill="white"/>
<path d="M1774.18 820.936C1769.43 816.212 1761.53 819.755 1761.53 826.054V830.779V860.699V865.424C1761.53 872.116 1769.43 875.266 1774.18 870.542L1794.73 850.07C1797.11 847.707 1797.11 844.164 1794.73 841.802L1774.18 820.936Z" fill="white"/>
<path d="M1037.59 677.432C1032.85 672.708 1024.94 676.251 1024.94 682.55V687.274V717.195V721.919C1024.94 728.612 1032.85 731.762 1037.59 727.037L1058.15 706.565C1060.52 704.203 1060.52 700.66 1058.15 698.298L1037.59 677.432Z" fill="white"/>
<path d="M1037.59 748.987C1032.85 744.262 1024.94 747.806 1024.94 754.105V758.829V788.75V793.474C1024.94 800.167 1032.85 803.316 1037.59 798.592L1058.15 778.12C1060.52 775.758 1060.52 772.215 1058.15 769.852L1037.59 748.987Z" fill="white"/>
<path d="M1037.59 820.936C1032.85 816.212 1024.94 819.755 1024.94 826.054V830.779V860.699V865.424C1024.94 872.116 1032.85 875.266 1037.59 870.542L1058.15 850.07C1060.52 847.707 1060.52 844.164 1058.15 841.802L1037.59 820.936Z" fill="white"/>
<path d="M1353.27 677.432C1348.53 672.708 1340.62 676.251 1340.62 682.55V687.274V717.195V721.919C1340.62 728.612 1348.53 731.762 1353.27 727.037L1373.83 706.565C1376.2 704.203 1376.2 700.66 1373.83 698.298L1353.27 677.432Z" fill="white"/>
<path d="M1668.95 677.432C1664.21 672.708 1656.3 676.251 1656.3 682.55V687.274V717.195V721.919C1656.3 728.612 1664.21 731.762 1668.95 727.037L1689.51 706.565C1691.88 704.203 1691.88 700.66 1689.51 698.298L1668.95 677.432Z" fill="white"/>
<path d="M1353.27 748.987C1348.53 744.262 1340.62 747.806 1340.62 754.105V758.829V788.75V793.474C1340.62 800.167 1348.53 803.316 1353.27 798.592L1373.83 778.12C1376.2 775.758 1376.2 772.215 1373.83 769.852L1353.27 748.987Z" fill="white"/>
<path d="M1668.95 748.987C1664.21 744.262 1656.3 747.806 1656.3 754.105V758.829V788.75V793.474C1656.3 800.167 1664.21 803.316 1668.95 798.592L1689.51 778.12C1691.88 775.758 1691.88 772.215 1689.51 769.852L1668.95 748.987Z" fill="white"/>
<path d="M1353.27 820.936C1348.53 816.212 1340.62 819.755 1340.62 826.054V830.779V860.699V865.424C1340.62 872.116 1348.53 875.266 1353.27 870.542L1373.83 850.07C1376.2 847.707 1376.2 844.164 1373.83 841.802L1353.27 820.936Z" fill="white"/>
<path d="M1668.95 820.936C1664.21 816.212 1656.3 819.755 1656.3 826.054V830.779V860.699V865.424C1656.3 872.116 1664.21 875.266 1668.95 870.542L1689.51 850.07C1691.88 847.707 1691.88 844.164 1689.51 841.802L1668.95 820.936Z" fill="white"/>
<path d="M1195.43 677.432C1190.69 672.708 1182.78 676.251 1182.78 682.55V687.274V717.195V721.919C1182.78 728.612 1190.69 731.762 1195.43 727.037L1215.99 706.565C1218.36 704.203 1218.36 700.66 1215.99 698.298L1195.43 677.432Z" fill="white"/>
<path d="M1195.43 748.987C1190.69 744.262 1182.78 747.806 1182.78 754.105V758.829V788.75V793.474C1182.78 800.167 1190.69 803.316 1195.43 798.592L1215.99 778.12C1218.36 775.758 1218.36 772.215 1215.99 769.852L1195.43 748.987Z" fill="white"/>
<path d="M1195.43 820.936C1190.69 816.212 1182.78 819.755 1182.78 826.054V830.779V860.699V865.424C1182.78 872.116 1190.69 875.266 1195.43 870.542L1215.99 850.07C1218.36 847.707 1218.36 844.164 1215.99 841.802L1195.43 820.936Z" fill="white"/>
<path d="M1511.11 677.432C1506.37 672.708 1498.46 676.251 1498.46 682.55V687.274V717.195V721.919C1498.46 728.612 1506.37 731.762 1511.11 727.037L1531.67 706.565C1534.04 704.203 1534.04 700.66 1531.67 698.298L1511.11 677.432Z" fill="white"/>
<path d="M1826.79 677.432C1822.05 672.708 1814.14 676.251 1814.14 682.55V687.274V717.195V721.919C1814.14 728.612 1822.05 731.762 1826.79 727.037L1847.35 706.565C1849.72 704.203 1849.72 700.66 1847.35 698.298L1826.79 677.432Z" fill="white"/>
<path d="M1511.11 748.987C1506.37 744.262 1498.46 747.806 1498.46 754.105V758.829V788.75V793.474C1498.46 800.167 1506.37 803.316 1511.11 798.592L1531.67 778.12C1534.04 775.758 1534.04 772.215 1531.67 769.852L1511.11 748.987Z" fill="white"/>
<path d="M1826.79 748.987C1822.05 744.262 1814.14 747.806 1814.14 754.105V758.829V788.75V793.474C1814.14 800.167 1822.05 803.316 1826.79 798.592L1847.35 778.12C1849.72 775.758 1849.72 772.215 1847.35 769.852L1826.79 748.987Z" fill="white"/>
<path d="M1511.11 820.936C1506.37 816.212 1498.46 819.755 1498.46 826.054V830.779V860.699V865.424C1498.46 872.116 1506.37 875.266 1511.11 870.542L1531.67 850.07C1534.04 847.707 1534.04 844.164 1531.67 841.802L1511.11 820.936Z" fill="white"/>
<path d="M1826.79 820.936C1822.05 816.212 1814.14 819.755 1814.14 826.054V830.779V860.699V865.424C1814.14 872.116 1822.05 875.266 1826.79 870.542L1847.35 850.07C1849.72 847.707 1849.72 844.164 1847.35 841.802L1826.79 820.936Z" fill="white"/>
<path d="M1090.2 677.038C1085.46 672.314 1077.55 675.857 1077.55 682.156V686.88V716.801V721.525C1077.55 728.218 1085.46 731.367 1090.2 726.643L1110.76 706.171C1113.13 703.809 1113.13 700.266 1110.76 697.904L1090.2 677.038Z" fill="white"/>
<path d="M1090.2 748.593C1085.46 743.869 1077.55 747.412 1077.55 753.711V758.435V788.356V793.08C1077.55 799.773 1085.46 802.923 1090.2 798.198L1110.76 777.726C1113.13 775.364 1113.13 771.821 1110.76 769.459L1090.2 748.593Z" fill="white"/>
<path d="M1090.2 820.542C1085.46 815.818 1077.55 819.361 1077.55 825.66V830.385V860.305V865.03C1077.55 871.722 1085.46 874.872 1090.2 870.148L1110.76 849.676C1113.13 847.313 1113.13 843.77 1110.76 841.408L1090.2 820.542Z" fill="white"/>
<path d="M1405.88 677.038C1401.14 672.314 1393.23 675.857 1393.23 682.156V686.88V716.801V721.525C1393.23 728.218 1401.14 731.367 1405.88 726.643L1426.44 706.171C1428.81 703.809 1428.81 700.266 1426.44 697.904L1405.88 677.038Z" fill="white"/>
<path d="M1721.56 677.038C1716.82 672.314 1708.91 675.857 1708.91 682.156V686.88V716.801V721.525C1708.91 728.218 1716.82 731.367 1721.56 726.643L1742.12 706.171C1744.49 703.809 1744.49 700.266 1742.12 697.904L1721.56 677.038Z" fill="white"/>
<path d="M1405.88 748.593C1401.14 743.869 1393.23 747.412 1393.23 753.711V758.435V788.356V793.08C1393.23 799.773 1401.14 802.923 1405.88 798.198L1426.44 777.726C1428.81 775.364 1428.81 771.821 1426.44 769.459L1405.88 748.593Z" fill="white"/>
<path d="M1721.56 748.593C1716.82 743.869 1708.91 747.412 1708.91 753.711V758.435V788.356V793.08C1708.91 799.773 1716.82 802.923 1721.56 798.198L1742.12 777.726C1744.49 775.364 1744.49 771.821 1742.12 769.459L1721.56 748.593Z" fill="white"/>
<path d="M1405.88 820.542C1401.14 815.818 1393.23 819.361 1393.23 825.66V830.385V860.305V865.03C1393.23 871.722 1401.14 874.872 1405.88 870.148L1426.44 849.676C1428.81 847.313 1428.81 843.77 1426.44 841.408L1405.88 820.542Z" fill="white"/>
<path d="M1721.56 820.542C1716.82 815.818 1708.91 819.361 1708.91 825.66V830.385V860.305V865.03C1708.91 871.722 1716.82 874.872 1721.56 870.148L1742.12 849.676C1744.49 847.313 1744.49 843.77 1742.12 841.408L1721.56 820.542Z" fill="white"/>
<path d="M1248.04 677.038C1243.3 672.314 1235.39 675.857 1235.39 682.156V686.88V716.801V721.525C1235.39 728.218 1243.3 731.367 1248.04 726.643L1268.6 706.171C1270.97 703.809 1270.97 700.266 1268.6 697.904L1248.04 677.038Z" fill="white"/>
<path d="M1248.04 748.593C1243.3 743.869 1235.39 747.412 1235.39 753.711V758.435V788.356V793.08C1235.39 799.773 1243.3 802.923 1248.04 798.198L1268.6 777.726C1270.97 775.364 1270.97 771.821 1268.6 769.459L1248.04 748.593Z" fill="white"/>
<path d="M1248.04 820.542C1243.3 815.818 1235.39 819.361 1235.39 825.66V830.385V860.305V865.03C1235.39 871.722 1243.3 874.872 1248.04 870.148L1268.6 849.676C1270.97 847.313 1270.97 843.77 1268.6 841.408L1248.04 820.542Z" fill="white"/>
<path d="M1563.72 677.038C1558.98 672.314 1551.07 675.857 1551.07 682.156V686.88V716.801V721.525C1551.07 728.218 1558.98 731.367 1563.72 726.643L1584.28 706.171C1586.65 703.809 1586.65 700.266 1584.28 697.904L1563.72 677.038Z" fill="white"/>
<path d="M1879.4 677.038C1874.66 672.314 1866.75 675.857 1866.75 682.156V686.88V716.801V721.525C1866.75 728.218 1874.66 731.367 1879.4 726.643L1899.96 706.171C1902.33 703.809 1902.33 700.266 1899.96 697.904L1879.4 677.038Z" fill="white"/>
<path d="M1563.72 748.593C1558.98 743.869 1551.07 747.412 1551.07 753.711V758.435V788.356V793.08C1551.07 799.773 1558.98 802.923 1563.72 798.198L1584.28 777.726C1586.65 775.364 1586.65 771.821 1584.28 769.459L1563.72 748.593Z" fill="white"/>
<path d="M1879.4 748.593C1874.66 743.869 1866.75 747.412 1866.75 753.711V758.435V788.356V793.08C1866.75 799.773 1874.66 802.923 1879.4 798.198L1899.96 777.726C1902.33 775.364 1902.33 771.821 1899.96 769.459L1879.4 748.593Z" fill="white"/>
<path d="M1563.72 820.542C1558.98 815.818 1551.07 819.361 1551.07 825.66V830.385V860.305V865.03C1551.07 871.722 1558.98 874.872 1563.72 870.148L1584.28 849.676C1586.65 847.313 1586.65 843.77 1584.28 841.408L1563.72 820.542Z" fill="white"/>
<path d="M1879.4 820.542C1874.66 815.818 1866.75 819.361 1866.75 825.66V830.385V860.305V865.03C1866.75 871.722 1874.66 874.872 1879.4 870.148L1899.96 849.676C1902.33 847.313 1902.33 843.77 1899.96 841.408L1879.4 820.542Z" fill="white"/>
<defs>
<linearGradient id="paint0_linear" x1="961.307" y1="-20.464" x2="961.307" y2="1130.53" gradientUnits="userSpaceOnUse">
<stop stop-color="#EEF3FF" stop-opacity="0"/>
<stop offset="1" stop-color="#EEF3FF"/>
</linearGradient>
</defs>
</svg>
