<svg width="156" height="50" fill="none" xmlns="http://www.w3.org/2000/svg"><path d="M90.517.32h5.662v16.276h16.558v5.425H97.995c-.961 0-1.816-.106-2.564-.425-.748-.213-1.388-.639-2.03-1.277-.533-.532-.96-.85-1.281-1.17-.214-.32-.534-.638-.748-1.064a5.673 5.673 0 01-.64-1.49c-.108-.531-.215-1.063-.215-1.701V.319zm-24.355 0h5.661v16.276h16.558v5.425H73.639c-.961 0-1.816-.106-2.563-.425-.748-.213-1.389-.639-2.03-1.277-.534-.532-.961-.85-1.282-1.17-.213-.32-.534-.638-.748-1.064a5.67 5.67 0 01-.64-1.49c-.107-.531-.214-1.063-.214-1.701V.319zM32.94 7.127c0-1.277.32-2.34.855-3.192.534-.85.96-1.49 1.495-1.915.534-.425 1.175-.85 2.03-1.064.427-.106.747-.212 1.282-.319.427-.106 1.068-.106 1.922-.212h15.703c1.175 0 2.137.212 2.991.531.855.32 1.603.958 2.457 1.915A4.958 4.958 0 0162.957 5c.214.745.427 1.596.427 2.66v6.17H38.602v2.66h24.782v5.425h-23.5c-1.069 0-2.03-.213-2.885-.638a7.112 7.112 0 01-2.457-2.022c-.534-.638-.854-1.276-1.175-1.915-.213-.638-.32-1.17-.32-1.595V7.128h-.107zm24.783-1.383H38.602v2.553h19.12V5.745zM6.66.319l2.03 14.894 1.71-10.32c.106-.638.213-1.17.533-1.595.214-.532.535-.958.855-1.383.534-.638 1.175-1.064 1.923-1.383C14.566.106 15.42 0 16.276 0c.854 0 1.709.106 2.457.532.747.32 1.388.851 1.922 1.383.748.851 1.175 1.808 1.389 2.979l1.71 10.319L25.782.319h5.661l-2.136 15.958a8.2 8.2 0 01-.855 2.872c-.427.851-.854 1.49-1.495 1.915-.534.532-1.175.85-1.923 1.064-.534.212-1.282.212-2.03.106-.854-.106-1.602-.532-2.243-1.064-.64-.532-1.175-1.276-1.602-2.234-.107-.319-.32-.638-.427-1.064-.107-.425-.214-.957-.428-1.595L16.17 5.957l-2.03 10.32c-.107.638-.213 1.17-.32 1.489-.107.426-.214.745-.428 1.064-.427.957-1.068 1.808-1.709 2.234-.64.532-1.389.85-2.243 1.064-.748.106-1.496.106-2.137-.107-.747-.213-1.388-.532-1.922-1.064a9.178 9.178 0 01-1.496-1.914c-.427-.851-.64-1.703-.854-2.873L.893.213h5.769v.106zM133.781 27.979h5.661v16.276H156v5.426h-14.848c-.962 0-1.816-.106-2.564-.426-.748-.212-1.389-.638-2.03-1.276-.534-.532-.961-.851-1.282-1.17-.213-.32-.534-.639-.747-1.064a5.628 5.628 0 01-.641-1.49c-.107-.532-.214-1.063-.214-1.702V27.98h.107zm-33.222 6.808c0-1.276.32-2.34.854-3.191.535-.851.962-1.49 1.496-1.915.534-.426 1.175-.851 2.03-1.064.427-.106.747-.213 1.282-.319.427-.106 1.068-.106 1.922-.213h15.703c1.175 0 2.137.213 2.991.532.855.32 1.603.958 2.457 1.915a4.952 4.952 0 011.282 2.128c.214.744.427 1.595.427 2.66v6.17h-24.782v2.659h24.782v5.426h-23.501c-1.068 0-2.029-.213-2.884-.639a7.123 7.123 0 01-2.457-2.021c-.534-.638-.854-1.277-1.175-1.915-.213-.638-.32-1.17-.32-1.596v-8.617h-.107zm24.783-1.383h-19.121v2.553h19.121v-2.553zm-57.898 1.383c0-1.276.32-2.34.854-3.191s.962-1.49 1.496-1.915c.534-.426 1.175-.851 2.03-1.064.427-.106.747-.213 1.281-.319.428-.106 1.069-.106 1.923-.213h15.703c1.175 0 2.137.213 2.991.532.855.32 1.603.958 2.457 1.915a4.96 4.96 0 011.282 2.128c.214.744.427 1.595.427 2.66v6.17H73.105v2.659h24.783v5.426h-23.5c-1.069 0-2.03-.213-2.885-.639a7.115 7.115 0 01-2.457-2.021c-.534-.638-.854-1.277-1.175-1.915-.32-.638-.32-1.17-.32-1.596v-8.617h-.107zm24.783-1.383H73.105v2.553h19.122v-2.553zM33.26 27.98h5.662v7.872h20.19V27.98h5.661v21.596h-5.661V41.17H38.815v8.405h-5.661V27.979h.106zm-26.492 0l2.03 14.893 1.71-10.319c.106-.638.213-1.17.533-1.595.214-.532.534-.958.855-1.383.534-.639 1.175-1.064 1.923-1.383.747-.32 1.602-.532 2.457-.532.854 0 1.709.106 2.457.532.747.319 1.388.85 1.922 1.383.748.85 1.175 1.808 1.39 2.978l1.708 10.32 2.03-14.894h5.662l-2.137 15.957a8.203 8.203 0 01-.855 2.873c-.427.85-.854 1.489-1.495 1.915-.534.531-1.175.85-1.923 1.063-.748.213-1.389.213-2.243.107-.855-.107-1.603-.532-2.243-1.064-.641-.532-1.175-1.277-1.603-2.234-.107-.32-.32-.638-.427-1.064-.107-.425-.214-.957-.427-1.596l-2.137-10.319-2.03 10.32c-.106.638-.213 1.17-.32 1.489-.107.425-.213.744-.427 1.063-.428.958-1.068 1.809-1.71 2.235-.64.531-1.388.85-2.243 1.063-.427.213-1.068.213-1.816 0-.747-.212-1.388-.532-1.922-1.063a9.177 9.177 0 01-1.496-1.915c-.427-.851-.64-1.703-.855-2.873L1 27.98h5.768z" fill="#3F4559"/><path d="M121.176 7.979c-1.282-1.277-3.419-.32-3.419 1.383V20c0 1.808 2.137 2.66 3.419 1.383l5.554-5.532c.641-.638.641-1.596 0-2.234l-5.554-5.638z" fill="red"/><path d="M135.49 7.979c-1.282-1.277-3.418-.32-3.418 1.383V20c0 1.808 2.136 2.66 3.418 1.383l5.555-5.532c.641-.638.641-1.596 0-2.234l-5.555-5.638z" fill="#FFB53F"/><path d="M149.59 7.872c-1.281-1.276-3.418-.319-3.418 1.383v10.638c0 1.809 2.137 2.66 3.418 1.383l5.555-5.531c.641-.639.641-1.596 0-2.234l-5.555-5.639z" fill="#32C700"/></svg>