<svg width="1920" height="1015" fill="none" xmlns="http://www.w3.org/2000/svg"><path transform="matrix(1 0 0 -1 -.556 1014.22)" fill="url(#paint0_linear)" d="M0 0h1920v1013.45H0z"/><path d="M38.474 390.823c-4.743-4.724-12.65-1.181-12.65 5.118V435.311c0 6.692 7.906 9.842 12.65 5.118l20.557-20.472c2.372-2.363 2.372-5.906 0-8.268l-20.557-20.866zM354.154 390.823c-4.744-4.724-12.65-1.181-12.65 5.118V435.311c0 6.692 7.906 9.842 12.65 5.118l20.557-20.472c2.372-2.363 2.372-5.906 0-8.268l-20.557-20.866zM38.474 462.378c-4.743-4.724-12.65-1.181-12.65 5.118v39.369c0 6.693 7.906 9.843 12.65 5.118l20.557-20.471c2.372-2.363 2.372-5.906 0-8.268l-20.557-20.866zM354.154 462.378c-4.744-4.724-12.65-1.181-12.65 5.118v39.369c0 6.693 7.906 9.843 12.65 5.118l20.557-20.471c2.372-2.363 2.372-5.906 0-8.268l-20.557-20.866zM38.474 534.328c-4.743-4.725-12.65-1.181-12.65 5.118v39.369c0 6.693 7.906 9.842 12.65 5.118l20.557-20.472c2.372-2.362 2.372-5.905 0-8.268l-20.557-20.865zM354.154 534.328c-4.744-4.725-12.65-1.181-12.65 5.118v39.369c0 6.693 7.906 9.842 12.65 5.118l20.557-20.472c2.372-2.362 2.372-5.905 0-8.268l-20.557-20.865zM196.314 390.823c-4.744-4.724-12.65-1.181-12.65 5.118V435.311c0 6.692 7.906 9.842 12.65 5.118l20.557-20.472c2.371-2.363 2.371-5.906 0-8.268l-20.557-20.866zM511.994 390.823c-4.744-4.724-12.65-1.181-12.65 5.118V435.311c0 6.692 7.906 9.842 12.65 5.118l20.556-20.472c2.372-2.363 2.372-5.906 0-8.268l-20.556-20.866zM196.314 462.378c-4.744-4.724-12.65-1.181-12.65 5.118v39.369c0 6.693 7.906 9.843 12.65 5.118l20.557-20.471c2.371-2.363 2.371-5.906 0-8.268l-20.557-20.866zM511.994 462.378c-4.744-4.724-12.65-1.181-12.65 5.118v39.369c0 6.693 7.906 9.843 12.65 5.118l20.556-20.471c2.372-2.363 2.372-5.906 0-8.268l-20.556-20.866zM196.314 534.328c-4.744-4.725-12.65-1.181-12.65 5.118v39.369c0 6.693 7.906 9.842 12.65 5.118l20.557-20.472c2.371-2.362 2.371-5.905 0-8.268l-20.557-20.865zM511.994 534.328c-4.744-4.725-12.65-1.181-12.65 5.118v39.369c0 6.693 7.906 9.842 12.65 5.118l20.556-20.472c2.372-2.362 2.372-5.905 0-8.268l-20.556-20.865zM91.088 390.823c-4.744-4.724-12.65-1.181-12.65 5.118V435.311c0 6.692 7.906 9.842 12.65 5.118l20.556-20.472c2.372-2.363 2.372-5.906 0-8.268l-20.556-20.866zM406.767 390.823c-4.743-4.724-12.65-1.181-12.65 5.118V435.311c0 6.692 7.907 9.842 12.65 5.118l20.557-20.472c2.372-2.363 2.372-5.906 0-8.268l-20.557-20.866zM91.088 462.378c-4.744-4.724-12.65-1.181-12.65 5.118v39.369c0 6.693 7.906 9.843 12.65 5.118l20.556-20.471c2.372-2.363 2.372-5.906 0-8.268l-20.556-20.866zM406.767 462.378c-4.743-4.724-12.65-1.181-12.65 5.118v39.369c0 6.693 7.907 9.843 12.65 5.118l20.557-20.471c2.372-2.363 2.372-5.906 0-8.268l-20.557-20.866zM91.088 534.328c-4.744-4.725-12.65-1.181-12.65 5.118v39.369c0 6.693 7.906 9.842 12.65 5.118l20.556-20.472c2.372-2.362 2.372-5.905 0-8.268l-20.556-20.865zM406.767 534.328c-4.743-4.725-12.65-1.181-12.65 5.118v39.369c0 6.693 7.907 9.842 12.65 5.118l20.557-20.472c2.372-2.362 2.372-5.905 0-8.268l-20.557-20.865zM248.927 390.823c-4.744-4.724-12.65-1.181-12.65 5.118V435.311c0 6.692 7.906 9.842 12.65 5.118l20.557-20.472c2.372-2.363 2.372-5.906 0-8.268l-20.557-20.866zM564.607 390.823c-4.744-4.724-12.65-1.181-12.65 5.118V435.311c0 6.692 7.906 9.842 12.65 5.118l20.556-20.472c2.372-2.363 2.372-5.906 0-8.268l-20.556-20.866zM248.927 462.378c-4.744-4.724-12.65-1.181-12.65 5.118v39.369c0 6.693 7.906 9.843 12.65 5.118l20.557-20.471c2.372-2.363 2.372-5.906 0-8.268l-20.557-20.866zM564.607 462.378c-4.744-4.724-12.65-1.181-12.65 5.118v39.369c0 6.693 7.906 9.843 12.65 5.118l20.556-20.471c2.372-2.363 2.372-5.906 0-8.268l-20.556-20.866zM248.927 534.328c-4.744-4.725-12.65-1.181-12.65 5.118v39.369c0 6.693 7.906 9.842 12.65 5.118l20.557-20.472c2.372-2.362 2.372-5.905 0-8.268l-20.557-20.865zM564.607 534.328c-4.744-4.725-12.65-1.181-12.65 5.118v39.369c0 6.693 7.906 9.842 12.65 5.118l20.556-20.472c2.372-2.362 2.372-5.905 0-8.268l-20.556-20.865zM143.701 390.429c-4.744-4.724-12.651-1.181-12.651 5.118V434.917c0 6.692 7.907 9.842 12.651 5.118l20.556-20.472c2.372-2.363 2.372-5.906 0-8.268l-20.556-20.866zM459.381 390.429c-4.744-4.724-12.651-1.181-12.651 5.118V434.917c0 6.692 7.907 9.842 12.651 5.118l20.556-20.472c2.372-2.363 2.372-5.906 0-8.268l-20.556-20.866zM143.701 461.985c-4.744-4.725-12.651-1.182-12.651 5.117V506.472c0 6.692 7.907 9.842 12.651 5.118l20.556-20.472c2.372-2.362 2.372-5.906 0-8.268l-20.556-20.865zM459.381 461.985c-4.744-4.725-12.651-1.182-12.651 5.117V506.472c0 6.692 7.907 9.842 12.651 5.118l20.556-20.472c2.372-2.362 2.372-5.906 0-8.268l-20.556-20.865zM143.701 533.934c-4.744-4.725-12.651-1.181-12.651 5.118v39.369c0 6.693 7.907 9.842 12.651 5.118l20.556-20.472c2.372-2.362 2.372-5.905 0-8.268l-20.556-20.865zM459.381 533.934c-4.744-4.725-12.651-1.181-12.651 5.118v39.369c0 6.693 7.907 9.842 12.651 5.118l20.556-20.472c2.372-2.362 2.372-5.905 0-8.268l-20.556-20.865zM-14.139 390.429c-4.744-4.724-12.65-1.181-12.65 5.118V434.917c0 6.692 7.906 9.842 12.65 5.118l20.557-20.472c2.372-2.363 2.372-5.906 0-8.268l-20.557-20.866zM-14.139 461.985c-4.744-4.725-12.65-1.182-12.65 5.117V506.472c0 6.692 7.906 9.842 12.65 5.118l20.557-20.472c2.372-2.362 2.372-5.906 0-8.268l-20.557-20.865zM-14.139 533.934c-4.744-4.725-12.65-1.181-12.65 5.118v39.369c0 6.693 7.906 9.842 12.65 5.118l20.557-20.472c2.372-2.362 2.372-5.905 0-8.268l-20.557-20.865zM301.54 390.429c-4.743-4.724-12.65-1.181-12.65 5.118V434.917c0 6.692 7.907 9.842 12.65 5.118l20.557-20.472c2.372-2.363 2.372-5.906 0-8.268l-20.557-20.866zM617.22 390.429c-4.744-4.724-12.65-1.181-12.65 5.118V434.917c0 6.692 7.906 9.842 12.65 5.118l20.557-20.472c2.372-2.363 2.372-5.906 0-8.268l-20.557-20.866zM301.54 461.985c-4.743-4.725-12.65-1.182-12.65 5.117V506.472c0 6.692 7.907 9.842 12.65 5.118l20.557-20.472c2.372-2.362 2.372-5.906 0-8.268l-20.557-20.865zM617.22 461.985c-4.744-4.725-12.65-1.182-12.65 5.117V506.472c0 6.692 7.906 9.842 12.65 5.118l20.557-20.472c2.372-2.362 2.372-5.906 0-8.268l-20.557-20.865zM301.54 533.934c-4.743-4.725-12.65-1.181-12.65 5.118v39.369c0 6.693 7.907 9.842 12.65 5.118l20.557-20.472c2.372-2.362 2.372-5.905 0-8.268l-20.557-20.865zM617.22 533.934c-4.744-4.725-12.65-1.181-12.65 5.118v39.369c0 6.693 7.906 9.842 12.65 5.118l20.557-20.472c2.372-2.362 2.372-5.905 0-8.268l-20.557-20.865zM38.474 601.497c-4.743-4.725-12.65-1.181-12.65 5.118v39.369c0 6.693 7.906 9.842 12.65 5.118l20.557-20.472c2.372-2.362 2.372-5.905 0-8.268l-20.557-20.865zM354.154 601.497c-4.744-4.725-12.65-1.181-12.65 5.118v39.369c0 6.693 7.906 9.842 12.65 5.118l20.557-20.472c2.372-2.362 2.372-5.905 0-8.268l-20.557-20.865zM38.474 673.052c-4.743-4.725-12.65-1.181-12.65 5.118v39.369c0 6.693 7.906 9.842 12.65 5.118l20.557-20.472c2.372-2.362 2.372-5.906 0-8.268l-20.557-20.865zM354.154 673.052c-4.744-4.725-12.65-1.181-12.65 5.118v39.369c0 6.693 7.906 9.842 12.65 5.118l20.557-20.472c2.372-2.362 2.372-5.906 0-8.268l-20.557-20.865zM38.474 745.001c-4.743-4.724-12.65-1.181-12.65 5.118v39.369c0 6.693 7.906 9.843 12.65 5.118l20.557-20.472c2.372-2.362 2.372-5.905 0-8.267l-20.557-20.866zM354.154 745.001c-4.744-4.724-12.65-1.181-12.65 5.118v39.369c0 6.693 7.906 9.843 12.65 5.118l20.557-20.472c2.372-2.362 2.372-5.905 0-8.267l-20.557-20.866zM196.314 601.497c-4.744-4.725-12.65-1.181-12.65 5.118v39.369c0 6.693 7.906 9.842 12.65 5.118l20.557-20.472c2.371-2.362 2.371-5.905 0-8.268l-20.557-20.865zM511.994 601.497c-4.744-4.725-12.65-1.181-12.65 5.118v39.369c0 6.693 7.906 9.842 12.65 5.118l20.556-20.472c2.372-2.362 2.372-5.905 0-8.268l-20.556-20.865zM196.314 673.052c-4.744-4.725-12.65-1.181-12.65 5.118v39.369c0 6.693 7.906 9.842 12.65 5.118l20.557-20.472c2.371-2.362 2.371-5.906 0-8.268l-20.557-20.865zM511.994 673.052c-4.744-4.725-12.65-1.181-12.65 5.118v39.369c0 6.693 7.906 9.842 12.65 5.118l20.556-20.472c2.372-2.362 2.372-5.906 0-8.268l-20.556-20.865zM196.314 745.001c-4.744-4.724-12.65-1.181-12.65 5.118v39.369c0 6.693 7.906 9.843 12.65 5.118l20.557-20.472c2.371-2.362 2.371-5.905 0-8.267l-20.557-20.866zM511.994 745.001c-4.744-4.724-12.65-1.181-12.65 5.118v39.369c0 6.693 7.906 9.843 12.65 5.118l20.556-20.472c2.372-2.362 2.372-5.905 0-8.267l-20.556-20.866zM91.088 601.497c-4.744-4.725-12.65-1.181-12.65 5.118v39.369c0 6.693 7.906 9.842 12.65 5.118l20.556-20.472c2.372-2.362 2.372-5.905 0-8.268l-20.556-20.865zM406.767 601.497c-4.743-4.725-12.65-1.181-12.65 5.118v39.369c0 6.693 7.907 9.842 12.65 5.118l20.557-20.472c2.372-2.362 2.372-5.905 0-8.268l-20.557-20.865zM91.088 673.052c-4.744-4.725-12.65-1.181-12.65 5.118v39.369c0 6.693 7.906 9.842 12.65 5.118l20.556-20.472c2.372-2.362 2.372-5.906 0-8.268l-20.556-20.865zM406.767 673.052c-4.743-4.725-12.65-1.181-12.65 5.118v39.369c0 6.693 7.907 9.842 12.65 5.118l20.557-20.472c2.372-2.362 2.372-5.906 0-8.268l-20.557-20.865zM91.088 745.001c-4.744-4.724-12.65-1.181-12.65 5.118v39.369c0 6.693 7.906 9.843 12.65 5.118l20.556-20.472c2.372-2.362 2.372-5.905 0-8.267l-20.556-20.866zM406.767 745.001c-4.743-4.724-12.65-1.181-12.65 5.118v39.369c0 6.693 7.907 9.843 12.65 5.118l20.557-20.472c2.372-2.362 2.372-5.905 0-8.267l-20.557-20.866zM248.927 601.497c-4.744-4.725-12.65-1.181-12.65 5.118v39.369c0 6.693 7.906 9.842 12.65 5.118l20.557-20.472c2.372-2.362 2.372-5.905 0-8.268l-20.557-20.865zM564.607 601.497c-4.744-4.725-12.65-1.181-12.65 5.118v39.369c0 6.693 7.906 9.842 12.65 5.118l20.556-20.472c2.372-2.362 2.372-5.905 0-8.268l-20.556-20.865zM248.927 673.052c-4.744-4.725-12.65-1.181-12.65 5.118v39.369c0 6.693 7.906 9.842 12.65 5.118l20.557-20.472c2.372-2.362 2.372-5.906 0-8.268l-20.557-20.865zM564.607 673.052c-4.744-4.725-12.65-1.181-12.65 5.118v39.369c0 6.693 7.906 9.842 12.65 5.118l20.556-20.472c2.372-2.362 2.372-5.906 0-8.268l-20.556-20.865zM248.927 745.001c-4.744-4.724-12.65-1.181-12.65 5.118v39.369c0 6.693 7.906 9.843 12.65 5.118l20.557-20.472c2.372-2.362 2.372-5.905 0-8.267l-20.557-20.866zM564.607 745.001c-4.744-4.724-12.65-1.181-12.65 5.118v39.369c0 6.693 7.906 9.843 12.65 5.118l20.556-20.472c2.372-2.362 2.372-5.905 0-8.267l-20.556-20.866zM143.701 601.103c-4.744-4.725-12.651-1.181-12.651 5.118v39.369c0 6.693 7.907 9.842 12.651 5.118l20.556-20.472c2.372-2.362 2.372-5.906 0-8.268l-20.556-20.865zM459.381 601.103c-4.744-4.725-12.651-1.181-12.651 5.118v39.369c0 6.693 7.907 9.842 12.651 5.118l20.556-20.472c2.372-2.362 2.372-5.906 0-8.268l-20.556-20.865zM143.701 672.658c-4.744-4.724-12.651-1.181-12.651 5.118v39.369c0 6.693 7.907 9.843 12.651 5.118l20.556-20.472c2.372-2.362 2.372-5.905 0-8.267l-20.556-20.866zM459.381 672.658c-4.744-4.724-12.651-1.181-12.651 5.118v39.369c0 6.693 7.907 9.843 12.651 5.118l20.556-20.472c2.372-2.362 2.372-5.905 0-8.267l-20.556-20.866zM143.701 744.607c-4.744-4.724-12.651-1.181-12.651 5.118v39.369c0 6.693 7.907 9.843 12.651 5.118l20.556-20.472c2.372-2.362 2.372-5.905 0-8.267l-20.556-20.866zM459.381 744.607c-4.744-4.724-12.651-1.181-12.651 5.118v39.369c0 6.693 7.907 9.843 12.651 5.118l20.556-20.472c2.372-2.362 2.372-5.905 0-8.267l-20.556-20.866zM-14.139 601.103c-4.744-4.725-12.65-1.181-12.65 5.118v39.369c0 6.693 7.906 9.842 12.65 5.118l20.557-20.472c2.372-2.362 2.372-5.906 0-8.268l-20.557-20.865zM-14.139 672.658c-4.744-4.724-12.65-1.181-12.65 5.118v39.369c0 6.693 7.906 9.843 12.65 5.118l20.557-20.472c2.372-2.362 2.372-5.905 0-8.267l-20.557-20.866zM-14.139 744.607c-4.744-4.724-12.65-1.181-12.65 5.118v39.369c0 6.693 7.906 9.843 12.65 5.118L6.418 773.74c2.372-2.362 2.372-5.905 0-8.267l-20.557-20.866zM301.54 601.103c-4.743-4.725-12.65-1.181-12.65 5.118v39.369c0 6.693 7.907 9.842 12.65 5.118l20.557-20.472c2.372-2.362 2.372-5.906 0-8.268l-20.557-20.865zM617.22 601.103c-4.744-4.725-12.65-1.181-12.65 5.118v39.369c0 6.693 7.906 9.842 12.65 5.118l20.557-20.472c2.372-2.362 2.372-5.906 0-8.268l-20.557-20.865zM301.54 672.658c-4.743-4.724-12.65-1.181-12.65 5.118v39.369c0 6.693 7.907 9.843 12.65 5.118l20.557-20.472c2.372-2.362 2.372-5.905 0-8.267l-20.557-20.866zM617.22 672.658c-4.744-4.724-12.65-1.181-12.65 5.118v39.369c0 6.693 7.906 9.843 12.65 5.118l20.557-20.472c2.372-2.362 2.372-5.905 0-8.267l-20.557-20.866zM301.54 744.607c-4.743-4.724-12.65-1.181-12.65 5.118v39.369c0 6.693 7.907 9.843 12.65 5.118l20.557-20.472c2.372-2.362 2.372-5.905 0-8.267l-20.557-20.866zM617.22 744.607c-4.744-4.724-12.65-1.181-12.65 5.118v39.369c0 6.693 7.906 9.843 12.65 5.118l20.557-20.472c2.372-2.362 2.372-5.905 0-8.267l-20.557-20.866zM1298.83 390.823c-4.74-4.724-12.65-1.181-12.65 5.118V435.311c0 6.692 7.91 9.842 12.65 5.118l20.56-20.472c2.37-2.363 2.37-5.906 0-8.268l-20.56-20.866zM1298.83 462.378c-4.74-4.724-12.65-1.181-12.65 5.118v39.369c0 6.693 7.91 9.843 12.65 5.118l20.56-20.471c2.37-2.363 2.37-5.906 0-8.268l-20.56-20.866zM1298.83 534.328c-4.74-4.725-12.65-1.181-12.65 5.118v39.369c0 6.693 7.91 9.842 12.65 5.118l20.56-20.472c2.37-2.362 2.37-5.905 0-8.268l-20.56-20.865zM1614.51 390.823c-4.74-4.724-12.65-1.181-12.65 5.118V435.311c0 6.692 7.91 9.842 12.65 5.118l20.56-20.472c2.37-2.363 2.37-5.906 0-8.268l-20.56-20.866zM1930.19 390.823c-4.75-4.724-12.65-1.181-12.65 5.118V435.311c0 6.692 7.9 9.842 12.65 5.118l20.56-20.472c2.37-2.363 2.37-5.906 0-8.268l-20.56-20.866zM1614.51 462.378c-4.74-4.724-12.65-1.181-12.65 5.118v39.369c0 6.693 7.91 9.843 12.65 5.118l20.56-20.471c2.37-2.363 2.37-5.906 0-8.268l-20.56-20.866zM1930.19 462.378c-4.75-4.724-12.65-1.181-12.65 5.118v39.369c0 6.693 7.9 9.843 12.65 5.118l20.56-20.471c2.37-2.363 2.37-5.906 0-8.268l-20.56-20.866zM1614.51 534.328c-4.74-4.725-12.65-1.181-12.65 5.118v39.369c0 6.693 7.91 9.842 12.65 5.118l20.56-20.472c2.37-2.362 2.37-5.905 0-8.268l-20.56-20.865zM1930.19 534.328c-4.75-4.725-12.65-1.181-12.65 5.118v39.369c0 6.693 7.9 9.842 12.65 5.118l20.56-20.472c2.37-2.362 2.37-5.905 0-8.268l-20.56-20.865zM1456.67 390.823c-4.74-4.724-12.65-1.181-12.65 5.118V435.311c0 6.692 7.91 9.842 12.65 5.118l20.56-20.472c2.37-2.363 2.37-5.906 0-8.268l-20.56-20.866zM1456.67 462.378c-4.74-4.724-12.65-1.181-12.65 5.118v39.369c0 6.693 7.91 9.843 12.65 5.118l20.56-20.471c2.37-2.363 2.37-5.906 0-8.268l-20.56-20.866zM1456.67 534.328c-4.74-4.725-12.65-1.181-12.65 5.118v39.369c0 6.693 7.91 9.842 12.65 5.118l20.56-20.472c2.37-2.362 2.37-5.905 0-8.268l-20.56-20.865zM1772.35 390.823c-4.75-4.724-12.65-1.181-12.65 5.118V435.311c0 6.692 7.9 9.842 12.65 5.118l20.56-20.472c2.37-2.363 2.37-5.906 0-8.268l-20.56-20.866zM1772.35 462.378c-4.75-4.724-12.65-1.181-12.65 5.118v39.369c0 6.693 7.9 9.843 12.65 5.118l20.56-20.471c2.37-2.363 2.37-5.906 0-8.268l-20.56-20.866zM1772.35 534.328c-4.75-4.725-12.65-1.181-12.65 5.118v39.369c0 6.693 7.9 9.842 12.65 5.118l20.56-20.472c2.37-2.362 2.37-5.905 0-8.268l-20.56-20.865zM1351.44 390.823c-4.74-4.724-12.65-1.181-12.65 5.118V435.311c0 6.692 7.91 9.842 12.65 5.118l20.56-20.472c2.37-2.363 2.37-5.906 0-8.268l-20.56-20.866zM1351.44 462.378c-4.74-4.724-12.65-1.181-12.65 5.118v39.369c0 6.693 7.91 9.843 12.65 5.118l20.56-20.471c2.37-2.363 2.37-5.906 0-8.268l-20.56-20.866zM1351.44 534.328c-4.74-4.725-12.65-1.181-12.65 5.118v39.369c0 6.693 7.91 9.842 12.65 5.118l20.56-20.472c2.37-2.362 2.37-5.905 0-8.268l-20.56-20.865zM1667.12 390.823c-4.74-4.724-12.65-1.181-12.65 5.118V435.311c0 6.692 7.91 9.842 12.65 5.118l20.56-20.472c2.37-2.363 2.37-5.906 0-8.268l-20.56-20.866zM1667.12 462.378c-4.74-4.724-12.65-1.181-12.65 5.118v39.369c0 6.693 7.91 9.843 12.65 5.118l20.56-20.471c2.37-2.363 2.37-5.906 0-8.268l-20.56-20.866zM1667.12 534.328c-4.74-4.725-12.65-1.181-12.65 5.118v39.369c0 6.693 7.91 9.842 12.65 5.118l20.56-20.472c2.37-2.362 2.37-5.905 0-8.268l-20.56-20.865zM1509.28 390.823c-4.74-4.724-12.65-1.181-12.65 5.118V435.311c0 6.692 7.91 9.842 12.65 5.118l20.56-20.472c2.37-2.363 2.37-5.906 0-8.268l-20.56-20.866zM1509.28 462.378c-4.74-4.724-12.65-1.181-12.65 5.118v39.369c0 6.693 7.91 9.843 12.65 5.118l20.56-20.471c2.37-2.363 2.37-5.906 0-8.268l-20.56-20.866zM1509.28 534.328c-4.74-4.725-12.65-1.181-12.65 5.118v39.369c0 6.693 7.91 9.842 12.65 5.118l20.56-20.472c2.37-2.362 2.37-5.905 0-8.268l-20.56-20.865zM1824.96 390.823c-4.74-4.724-12.65-1.181-12.65 5.118V435.311c0 6.692 7.91 9.842 12.65 5.118l20.56-20.472c2.37-2.363 2.37-5.906 0-8.268l-20.56-20.866zM1824.96 462.378c-4.74-4.724-12.65-1.181-12.65 5.118v39.369c0 6.693 7.91 9.843 12.65 5.118l20.56-20.471c2.37-2.363 2.37-5.906 0-8.268l-20.56-20.866zM1824.96 534.328c-4.74-4.725-12.65-1.181-12.65 5.118v39.369c0 6.693 7.91 9.842 12.65 5.118l20.56-20.472c2.37-2.362 2.37-5.905 0-8.268l-20.56-20.865zM1404.06 390.429c-4.75-4.724-12.65-1.181-12.65 5.118V434.917c0 6.692 7.9 9.842 12.65 5.118l20.55-20.472c2.37-2.363 2.37-5.906 0-8.268l-20.55-20.866zM1404.06 461.985c-4.75-4.725-12.65-1.182-12.65 5.117V506.472c0 6.692 7.9 9.842 12.65 5.118l20.55-20.472c2.37-2.362 2.37-5.906 0-8.268l-20.55-20.865zM1404.06 533.934c-4.75-4.725-12.65-1.181-12.65 5.118v39.369c0 6.693 7.9 9.842 12.65 5.118l20.55-20.472c2.37-2.362 2.37-5.905 0-8.268l-20.55-20.865zM1719.74 390.429c-4.75-4.724-12.65-1.181-12.65 5.118V434.917c0 6.692 7.9 9.842 12.65 5.118l20.55-20.472c2.37-2.363 2.37-5.906 0-8.268l-20.55-20.866zM1719.74 461.985c-4.75-4.725-12.65-1.182-12.65 5.117V506.472c0 6.692 7.9 9.842 12.65 5.118l20.55-20.472c2.37-2.362 2.37-5.906 0-8.268l-20.55-20.865zM1719.74 533.934c-4.75-4.725-12.65-1.181-12.65 5.118v39.369c0 6.693 7.9 9.842 12.65 5.118l20.55-20.472c2.37-2.362 2.37-5.905 0-8.268l-20.55-20.865zM1561.9 390.429c-4.75-4.724-12.65-1.181-12.65 5.118V434.917c0 6.692 7.9 9.842 12.65 5.118l20.55-20.472c2.37-2.363 2.37-5.906 0-8.268l-20.55-20.866zM1561.9 461.985c-4.75-4.725-12.65-1.182-12.65 5.117V506.472c0 6.692 7.9 9.842 12.65 5.118l20.55-20.472c2.37-2.362 2.37-5.906 0-8.268l-20.55-20.865zM1561.9 533.934c-4.75-4.725-12.65-1.181-12.65 5.118v39.369c0 6.693 7.9 9.842 12.65 5.118l20.55-20.472c2.37-2.362 2.37-5.905 0-8.268l-20.55-20.865zM1877.58 390.429c-4.75-4.724-12.66-1.181-12.66 5.118V434.917c0 6.692 7.91 9.842 12.66 5.118l20.55-20.472c2.37-2.363 2.37-5.906 0-8.268l-20.55-20.866zM1877.58 461.985c-4.75-4.725-12.66-1.182-12.66 5.117V506.472c0 6.692 7.91 9.842 12.66 5.118l20.55-20.472c2.37-2.362 2.37-5.906 0-8.268l-20.55-20.865zM1877.58 533.934c-4.75-4.725-12.66-1.181-12.66 5.118v39.369c0 6.693 7.91 9.842 12.66 5.118l20.55-20.472c2.37-2.362 2.37-5.905 0-8.268l-20.55-20.865zM1298.83 601.497c-4.74-4.725-12.65-1.181-12.65 5.118v39.369c0 6.693 7.91 9.842 12.65 5.118l20.56-20.472c2.37-2.362 2.37-5.905 0-8.268l-20.56-20.865zM1298.83 673.052c-4.74-4.725-12.65-1.181-12.65 5.118v39.369c0 6.693 7.91 9.842 12.65 5.118l20.56-20.472c2.37-2.362 2.37-5.906 0-8.268l-20.56-20.865zM1298.83 745.001c-4.74-4.724-12.65-1.181-12.65 5.118v39.369c0 6.693 7.91 9.843 12.65 5.118l20.56-20.472c2.37-2.362 2.37-5.905 0-8.267l-20.56-20.866zM1614.51 601.497c-4.74-4.725-12.65-1.181-12.65 5.118v39.369c0 6.693 7.91 9.842 12.65 5.118l20.56-20.472c2.37-2.362 2.37-5.905 0-8.268l-20.56-20.865zM1930.19 601.497c-4.75-4.725-12.65-1.181-12.65 5.118v39.369c0 6.693 7.9 9.842 12.65 5.118l20.56-20.472c2.37-2.362 2.37-5.905 0-8.268l-20.56-20.865zM1614.51 673.052c-4.74-4.725-12.65-1.181-12.65 5.118v39.369c0 6.693 7.91 9.842 12.65 5.118l20.56-20.472c2.37-2.362 2.37-5.906 0-8.268l-20.56-20.865zM1930.19 673.052c-4.75-4.725-12.65-1.181-12.65 5.118v39.369c0 6.693 7.9 9.842 12.65 5.118l20.56-20.472c2.37-2.362 2.37-5.906 0-8.268l-20.56-20.865zM1614.51 745.001c-4.74-4.724-12.65-1.181-12.65 5.118v39.369c0 6.693 7.91 9.843 12.65 5.118l20.56-20.472c2.37-2.362 2.37-5.905 0-8.267l-20.56-20.866zM1930.19 745.001c-4.75-4.724-12.65-1.181-12.65 5.118v39.369c0 6.693 7.9 9.843 12.65 5.118l20.56-20.472c2.37-2.362 2.37-5.905 0-8.267l-20.56-20.866zM1456.67 601.497c-4.74-4.725-12.65-1.181-12.65 5.118v39.369c0 6.693 7.91 9.842 12.65 5.118l20.56-20.472c2.37-2.362 2.37-5.905 0-8.268l-20.56-20.865zM1456.67 673.052c-4.74-4.725-12.65-1.181-12.65 5.118v39.369c0 6.693 7.91 9.842 12.65 5.118l20.56-20.472c2.37-2.362 2.37-5.906 0-8.268l-20.56-20.865zM1456.67 745.001c-4.74-4.724-12.65-1.181-12.65 5.118v39.369c0 6.693 7.91 9.843 12.65 5.118l20.56-20.472c2.37-2.362 2.37-5.905 0-8.267l-20.56-20.866zM1772.35 601.497c-4.75-4.725-12.65-1.181-12.65 5.118v39.369c0 6.693 7.9 9.842 12.65 5.118l20.56-20.472c2.37-2.362 2.37-5.905 0-8.268l-20.56-20.865zM1772.35 673.052c-4.75-4.725-12.65-1.181-12.65 5.118v39.369c0 6.693 7.9 9.842 12.65 5.118l20.56-20.472c2.37-2.362 2.37-5.906 0-8.268l-20.56-20.865zM1772.35 745.001c-4.75-4.724-12.65-1.181-12.65 5.118v39.369c0 6.693 7.9 9.843 12.65 5.118l20.56-20.472c2.37-2.362 2.37-5.905 0-8.267l-20.56-20.866zM1351.44 601.497c-4.74-4.725-12.65-1.181-12.65 5.118v39.369c0 6.693 7.91 9.842 12.65 5.118L1372 630.63c2.37-2.362 2.37-5.905 0-8.268l-20.56-20.865zM1351.44 673.052c-4.74-4.725-12.65-1.181-12.65 5.118v39.369c0 6.693 7.91 9.842 12.65 5.118l20.56-20.472c2.37-2.362 2.37-5.906 0-8.268l-20.56-20.865zM1351.44 745.001c-4.74-4.724-12.65-1.181-12.65 5.118v39.369c0 6.693 7.91 9.843 12.65 5.118l20.56-20.472c2.37-2.362 2.37-5.905 0-8.267l-20.56-20.866zM1667.12 601.497c-4.74-4.725-12.65-1.181-12.65 5.118v39.369c0 6.693 7.91 9.842 12.65 5.118l20.56-20.472c2.37-2.362 2.37-5.905 0-8.268l-20.56-20.865zM1667.12 673.052c-4.74-4.725-12.65-1.181-12.65 5.118v39.369c0 6.693 7.91 9.842 12.65 5.118l20.56-20.472c2.37-2.362 2.37-5.906 0-8.268l-20.56-20.865zM1667.12 745.001c-4.74-4.724-12.65-1.181-12.65 5.118v39.369c0 6.693 7.91 9.843 12.65 5.118l20.56-20.472c2.37-2.362 2.37-5.905 0-8.267l-20.56-20.866zM1509.28 601.497c-4.74-4.725-12.65-1.181-12.65 5.118v39.369c0 6.693 7.91 9.842 12.65 5.118l20.56-20.472c2.37-2.362 2.37-5.905 0-8.268l-20.56-20.865zM1509.28 673.052c-4.74-4.725-12.65-1.181-12.65 5.118v39.369c0 6.693 7.91 9.842 12.65 5.118l20.56-20.472c2.37-2.362 2.37-5.906 0-8.268l-20.56-20.865zM1509.28 745.001c-4.74-4.724-12.65-1.181-12.65 5.118v39.369c0 6.693 7.91 9.843 12.65 5.118l20.56-20.472c2.37-2.362 2.37-5.905 0-8.267l-20.56-20.866zM1824.96 601.497c-4.74-4.725-12.65-1.181-12.65 5.118v39.369c0 6.693 7.91 9.842 12.65 5.118l20.56-20.472c2.37-2.362 2.37-5.905 0-8.268l-20.56-20.865zM1824.96 673.052c-4.74-4.725-12.65-1.181-12.65 5.118v39.369c0 6.693 7.91 9.842 12.65 5.118l20.56-20.472c2.37-2.362 2.37-5.906 0-8.268l-20.56-20.865zM1824.96 745.001c-4.74-4.724-12.65-1.181-12.65 5.118v39.369c0 6.693 7.91 9.843 12.65 5.118l20.56-20.472c2.37-2.362 2.37-5.905 0-8.267l-20.56-20.866zM1404.06 601.103c-4.75-4.725-12.65-1.181-12.65 5.118v39.369c0 6.693 7.9 9.842 12.65 5.118l20.55-20.472c2.37-2.362 2.37-5.906 0-8.268l-20.55-20.865zM1404.06 672.658c-4.75-4.724-12.65-1.181-12.65 5.118v39.369c0 6.693 7.9 9.843 12.65 5.118l20.55-20.472c2.37-2.362 2.37-5.905 0-8.267l-20.55-20.866zM1404.06 744.607c-4.75-4.724-12.65-1.181-12.65 5.118v39.369c0 6.693 7.9 9.843 12.65 5.118l20.55-20.472c2.37-2.362 2.37-5.905 0-8.267l-20.55-20.866zM1719.74 601.103c-4.75-4.725-12.65-1.181-12.65 5.118v39.369c0 6.693 7.9 9.842 12.65 5.118l20.55-20.472c2.37-2.362 2.37-5.906 0-8.268l-20.55-20.865zM1719.74 672.658c-4.75-4.724-12.65-1.181-12.65 5.118v39.369c0 6.693 7.9 9.843 12.65 5.118l20.55-20.472c2.37-2.362 2.37-5.905 0-8.267l-20.55-20.866zM1719.74 744.607c-4.75-4.724-12.65-1.181-12.65 5.118v39.369c0 6.693 7.9 9.843 12.65 5.118l20.55-20.472c2.37-2.362 2.37-5.905 0-8.267l-20.55-20.866zM1561.9 601.103c-4.75-4.725-12.65-1.181-12.65 5.118v39.369c0 6.693 7.9 9.842 12.65 5.118l20.55-20.472c2.37-2.362 2.37-5.906 0-8.268l-20.55-20.865zM1561.9 672.658c-4.75-4.724-12.65-1.181-12.65 5.118v39.369c0 6.693 7.9 9.843 12.65 5.118l20.55-20.472c2.37-2.362 2.37-5.905 0-8.267l-20.55-20.866zM1561.9 744.607c-4.75-4.724-12.65-1.181-12.65 5.118v39.369c0 6.693 7.9 9.843 12.65 5.118l20.55-20.472c2.37-2.362 2.37-5.905 0-8.267l-20.55-20.866zM1877.58 601.103c-4.75-4.725-12.66-1.181-12.66 5.118v39.369c0 6.693 7.91 9.842 12.66 5.118l20.55-20.472c2.37-2.362 2.37-5.906 0-8.268l-20.55-20.865zM1877.58 672.658c-4.75-4.724-12.66-1.181-12.66 5.118v39.369c0 6.693 7.91 9.843 12.66 5.118l20.55-20.472c2.37-2.362 2.37-5.905 0-8.267l-20.55-20.866zM1877.58 744.607c-4.75-4.724-12.66-1.181-12.66 5.118v39.369c0 6.693 7.91 9.843 12.66 5.118l20.55-20.472c2.37-2.362 2.37-5.905 0-8.267l-20.55-20.866z" fill="#fff"/><defs><linearGradient id="paint0_linear" x1="1539" y1="899.578" x2="1529.65" y2="154.656" gradientUnits="userSpaceOnUse"><stop stop-color="#fff" stop-opacity="0"/><stop offset="1" stop-color="#EEF3FF"/></linearGradient></defs></svg>