<svg width="1920" height="1015" viewBox="0 0 1920 1015" fill="none" xmlns="http://www.w3.org/2000/svg">
<rect width="1920" height="1013.45" transform="matrix(1 0 0 -1 -0.556396 1014.22)" fill="url(#paint0_linear)"/>
<path d="M38.4743 390.823C33.7305 386.099 25.8241 389.642 25.8241 395.941V400.666V430.586V435.311C25.8241 442.003 33.7305 445.153 38.4743 440.429L59.031 419.957C61.4029 417.594 61.4029 414.051 59.031 411.689L38.4743 390.823Z" fill="white"/>
<path d="M354.154 390.823C349.41 386.099 341.504 389.642 341.504 395.941V400.666V430.586V435.311C341.504 442.003 349.41 445.153 354.154 440.429L374.711 419.957C377.083 417.594 377.083 414.051 374.711 411.689L354.154 390.823Z" fill="white"/>
<path d="M38.4743 462.378C33.7305 457.654 25.8241 461.197 25.8241 467.496V472.221V502.141V506.865C25.8241 513.558 33.7305 516.708 38.4743 511.983L59.031 491.512C61.4029 489.149 61.4029 485.606 59.031 483.244L38.4743 462.378Z" fill="white"/>
<path d="M354.154 462.378C349.41 457.654 341.504 461.197 341.504 467.496V472.221V502.141V506.865C341.504 513.558 349.41 516.708 354.154 511.983L374.711 491.512C377.083 489.149 377.083 485.606 374.711 483.244L354.154 462.378Z" fill="white"/>
<path d="M38.4743 534.328C33.7305 529.603 25.8241 533.147 25.8241 539.446V544.17V574.091V578.815C25.8241 585.508 33.7305 588.657 38.4743 583.933L59.031 563.461C61.4029 561.099 61.4029 557.556 59.031 555.193L38.4743 534.328Z" fill="white"/>
<path d="M354.154 534.328C349.41 529.603 341.504 533.147 341.504 539.446V544.17V574.091V578.815C341.504 585.508 349.41 588.657 354.154 583.933L374.711 563.461C377.083 561.099 377.083 557.556 374.711 555.193L354.154 534.328Z" fill="white"/>
<path d="M196.314 390.823C191.57 386.099 183.664 389.642 183.664 395.941V400.666V430.586V435.311C183.664 442.003 191.57 445.153 196.314 440.429L216.871 419.957C219.242 417.594 219.242 414.051 216.871 411.689L196.314 390.823Z" fill="white"/>
<path d="M511.994 390.823C507.25 386.099 499.344 389.642 499.344 395.941V400.666V430.586V435.311C499.344 442.003 507.25 445.153 511.994 440.429L532.55 419.957C534.922 417.594 534.922 414.051 532.55 411.689L511.994 390.823Z" fill="white"/>
<path d="M196.314 462.378C191.57 457.654 183.664 461.197 183.664 467.496V472.221V502.141V506.865C183.664 513.558 191.57 516.708 196.314 511.983L216.871 491.512C219.242 489.149 219.242 485.606 216.871 483.244L196.314 462.378Z" fill="white"/>
<path d="M511.994 462.378C507.25 457.654 499.344 461.197 499.344 467.496V472.221V502.141V506.865C499.344 513.558 507.25 516.708 511.994 511.983L532.55 491.512C534.922 489.149 534.922 485.606 532.55 483.244L511.994 462.378Z" fill="white"/>
<path d="M196.314 534.328C191.57 529.603 183.664 533.147 183.664 539.446V544.17V574.091V578.815C183.664 585.508 191.57 588.657 196.314 583.933L216.871 563.461C219.242 561.099 219.242 557.556 216.871 555.193L196.314 534.328Z" fill="white"/>
<path d="M511.994 534.328C507.25 529.603 499.344 533.147 499.344 539.446V544.17V574.091V578.815C499.344 585.508 507.25 588.657 511.994 583.933L532.55 563.461C534.922 561.099 534.922 557.556 532.55 555.193L511.994 534.328Z" fill="white"/>
<path d="M91.0876 390.823C86.3438 386.099 78.4374 389.642 78.4374 395.941V400.666V430.586V435.311C78.4374 442.003 86.3438 445.153 91.0876 440.429L111.644 419.957C114.016 417.594 114.016 414.051 111.644 411.689L91.0876 390.823Z" fill="white"/>
<path d="M406.767 390.823C402.024 386.099 394.117 389.642 394.117 395.941V400.666V430.586V435.311C394.117 442.003 402.024 445.153 406.767 440.429L427.324 419.957C429.696 417.594 429.696 414.051 427.324 411.689L406.767 390.823Z" fill="white"/>
<path d="M91.0876 462.378C86.3438 457.654 78.4374 461.197 78.4374 467.496V472.221V502.141V506.865C78.4374 513.558 86.3438 516.708 91.0876 511.983L111.644 491.512C114.016 489.149 114.016 485.606 111.644 483.244L91.0876 462.378Z" fill="white"/>
<path d="M406.767 462.378C402.024 457.654 394.117 461.197 394.117 467.496V472.221V502.141V506.865C394.117 513.558 402.024 516.708 406.767 511.983L427.324 491.512C429.696 489.149 429.696 485.606 427.324 483.244L406.767 462.378Z" fill="white"/>
<path d="M91.0876 534.328C86.3438 529.603 78.4374 533.147 78.4374 539.446V544.17V574.091V578.815C78.4374 585.508 86.3438 588.657 91.0876 583.933L111.644 563.461C114.016 561.099 114.016 557.556 111.644 555.193L91.0876 534.328Z" fill="white"/>
<path d="M406.767 534.328C402.024 529.603 394.117 533.147 394.117 539.446V544.17V574.091V578.815C394.117 585.508 402.024 588.657 406.767 583.933L427.324 563.461C429.696 561.099 429.696 557.556 427.324 555.193L406.767 534.328Z" fill="white"/>
<path d="M248.927 390.823C244.183 386.099 236.277 389.642 236.277 395.941V400.666V430.586V435.311C236.277 442.003 244.183 445.153 248.927 440.429L269.484 419.957C271.856 417.594 271.856 414.051 269.484 411.689L248.927 390.823Z" fill="white"/>
<path d="M564.607 390.823C559.863 386.099 551.957 389.642 551.957 395.941V400.666V430.586V435.311C551.957 442.003 559.863 445.153 564.607 440.429L585.163 419.957C587.535 417.594 587.535 414.051 585.163 411.689L564.607 390.823Z" fill="white"/>
<path d="M248.927 462.378C244.183 457.654 236.277 461.197 236.277 467.496V472.221V502.141V506.865C236.277 513.558 244.183 516.708 248.927 511.983L269.484 491.512C271.856 489.149 271.856 485.606 269.484 483.244L248.927 462.378Z" fill="white"/>
<path d="M564.607 462.378C559.863 457.654 551.957 461.197 551.957 467.496V472.221V502.141V506.865C551.957 513.558 559.863 516.708 564.607 511.983L585.163 491.512C587.535 489.149 587.535 485.606 585.163 483.244L564.607 462.378Z" fill="white"/>
<path d="M248.927 534.328C244.183 529.603 236.277 533.147 236.277 539.446V544.17V574.091V578.815C236.277 585.508 244.183 588.657 248.927 583.933L269.484 563.461C271.856 561.099 271.856 557.556 269.484 555.193L248.927 534.328Z" fill="white"/>
<path d="M564.607 534.328C559.863 529.603 551.957 533.147 551.957 539.446V544.17V574.091V578.815C551.957 585.508 559.863 588.657 564.607 583.933L585.163 563.461C587.535 561.099 587.535 557.556 585.163 555.193L564.607 534.328Z" fill="white"/>
<path d="M143.701 390.429C138.957 385.705 131.05 389.248 131.05 395.547V400.272V430.192V434.917C131.05 441.609 138.957 444.759 143.701 440.035L164.257 419.563C166.629 417.2 166.629 413.657 164.257 411.295L143.701 390.429Z" fill="white"/>
<path d="M459.381 390.429C454.637 385.705 446.73 389.248 446.73 395.547V400.272V430.192V434.917C446.73 441.609 454.637 444.759 459.381 440.035L479.937 419.563C482.309 417.2 482.309 413.657 479.937 411.295L459.381 390.429Z" fill="white"/>
<path d="M143.701 461.985C138.957 457.26 131.05 460.803 131.05 467.102V471.827V501.747V506.472C131.05 513.164 138.957 516.314 143.701 511.59L164.257 491.118C166.629 488.756 166.629 485.212 164.257 482.85L143.701 461.985Z" fill="white"/>
<path d="M459.381 461.985C454.637 457.26 446.73 460.803 446.73 467.102V471.827V501.747V506.472C446.73 513.164 454.637 516.314 459.381 511.59L479.937 491.118C482.309 488.756 482.309 485.212 479.937 482.85L459.381 461.985Z" fill="white"/>
<path d="M143.701 533.934C138.957 529.209 131.05 532.753 131.05 539.052V543.776V573.697V578.421C131.05 585.114 138.957 588.263 143.701 583.539L164.257 563.067C166.629 560.705 166.629 557.162 164.257 554.799L143.701 533.934Z" fill="white"/>
<path d="M459.381 533.934C454.637 529.209 446.73 532.753 446.73 539.052V543.776V573.697V578.421C446.73 585.114 454.637 588.263 459.381 583.539L479.937 563.067C482.309 560.705 482.309 557.162 479.937 554.799L459.381 533.934Z" fill="white"/>
<path d="M-14.1388 390.429C-18.8826 385.705 -26.7891 389.248 -26.7891 395.547V400.272V430.192V434.917C-26.7891 441.609 -18.8826 444.759 -14.1388 440.035L6.41783 419.563C8.78975 417.2 8.78975 413.657 6.41783 411.295L-14.1388 390.429Z" fill="white"/>
<path d="M-14.1388 461.985C-18.8826 457.26 -26.7891 460.803 -26.7891 467.102V471.827V501.747V506.472C-26.7891 513.164 -18.8826 516.314 -14.1388 511.59L6.41783 491.118C8.78975 488.756 8.78975 485.212 6.41783 482.85L-14.1388 461.985Z" fill="white"/>
<path d="M-14.1388 533.934C-18.8826 529.209 -26.7891 532.753 -26.7891 539.052V543.776V573.697V578.421C-26.7891 585.114 -18.8826 588.263 -14.1388 583.539L6.41783 563.067C8.78975 560.705 8.78975 557.162 6.41783 554.799L-14.1388 533.934Z" fill="white"/>
<path d="M301.54 390.429C296.797 385.705 288.89 389.248 288.89 395.547V400.272V430.192V434.917C288.89 441.609 296.797 444.759 301.54 440.035L322.097 419.563C324.469 417.2 324.469 413.657 322.097 411.295L301.54 390.429Z" fill="white"/>
<path d="M617.22 390.429C612.476 385.705 604.57 389.248 604.57 395.547V400.272V430.192V434.917C604.57 441.609 612.476 444.759 617.22 440.035L637.777 419.563C640.149 417.2 640.149 413.657 637.777 411.295L617.22 390.429Z" fill="white"/>
<path d="M301.54 461.985C296.797 457.26 288.89 460.803 288.89 467.102V471.827V501.747V506.472C288.89 513.164 296.797 516.314 301.54 511.59L322.097 491.118C324.469 488.756 324.469 485.212 322.097 482.85L301.54 461.985Z" fill="white"/>
<path d="M617.22 461.985C612.476 457.26 604.57 460.803 604.57 467.102V471.827V501.747V506.472C604.57 513.164 612.476 516.314 617.22 511.59L637.777 491.118C640.149 488.756 640.149 485.212 637.777 482.85L617.22 461.985Z" fill="white"/>
<path d="M301.54 533.934C296.797 529.209 288.89 532.753 288.89 539.052V543.776V573.697V578.421C288.89 585.114 296.797 588.263 301.54 583.539L322.097 563.067C324.469 560.705 324.469 557.162 322.097 554.799L301.54 533.934Z" fill="white"/>
<path d="M617.22 533.934C612.476 529.209 604.57 532.753 604.57 539.052V543.776V573.697V578.421C604.57 585.114 612.476 588.263 617.22 583.539L637.777 563.067C640.149 560.705 640.149 557.162 637.777 554.799L617.22 533.934Z" fill="white"/>
<path d="M38.4743 601.497C33.7305 596.772 25.8241 600.316 25.8241 606.615V611.339V641.26V645.984C25.8241 652.677 33.7305 655.826 38.4743 651.102L59.031 630.63C61.4029 628.268 61.4029 624.725 59.031 622.362L38.4743 601.497Z" fill="white"/>
<path d="M354.154 601.497C349.41 596.772 341.504 600.316 341.504 606.615V611.339V641.26V645.984C341.504 652.677 349.41 655.826 354.154 651.102L374.711 630.63C377.083 628.268 377.083 624.725 374.711 622.362L354.154 601.497Z" fill="white"/>
<path d="M38.4743 673.052C33.7305 668.327 25.8241 671.871 25.8241 678.17V682.894V712.815V717.539C25.8241 724.232 33.7305 727.381 38.4743 722.657L59.031 702.185C61.4029 699.823 61.4029 696.279 59.031 693.917L38.4743 673.052Z" fill="white"/>
<path d="M354.154 673.052C349.41 668.327 341.504 671.871 341.504 678.17V682.894V712.815V717.539C341.504 724.232 349.41 727.381 354.154 722.657L374.711 702.185C377.083 699.823 377.083 696.279 374.711 693.917L354.154 673.052Z" fill="white"/>
<path d="M38.4743 745.001C33.7305 740.277 25.8241 743.82 25.8241 750.119V754.843V784.764V789.488C25.8241 796.181 33.7305 799.331 38.4743 794.606L59.031 774.134C61.4029 771.772 61.4029 768.229 59.031 765.867L38.4743 745.001Z" fill="white"/>
<path d="M354.154 745.001C349.41 740.277 341.504 743.82 341.504 750.119V754.843V784.764V789.488C341.504 796.181 349.41 799.331 354.154 794.606L374.711 774.134C377.083 771.772 377.083 768.229 374.711 765.867L354.154 745.001Z" fill="white"/>
<path d="M196.314 601.497C191.57 596.772 183.664 600.316 183.664 606.615V611.339V641.26V645.984C183.664 652.677 191.57 655.826 196.314 651.102L216.871 630.63C219.242 628.268 219.242 624.725 216.871 622.362L196.314 601.497Z" fill="white"/>
<path d="M511.994 601.497C507.25 596.772 499.344 600.316 499.344 606.615V611.339V641.26V645.984C499.344 652.677 507.25 655.826 511.994 651.102L532.55 630.63C534.922 628.268 534.922 624.725 532.55 622.362L511.994 601.497Z" fill="white"/>
<path d="M196.314 673.052C191.57 668.327 183.664 671.871 183.664 678.17V682.894V712.815V717.539C183.664 724.232 191.57 727.381 196.314 722.657L216.871 702.185C219.242 699.823 219.242 696.279 216.871 693.917L196.314 673.052Z" fill="white"/>
<path d="M511.994 673.052C507.25 668.327 499.344 671.871 499.344 678.17V682.894V712.815V717.539C499.344 724.232 507.25 727.381 511.994 722.657L532.55 702.185C534.922 699.823 534.922 696.279 532.55 693.917L511.994 673.052Z" fill="white"/>
<path d="M196.314 745.001C191.57 740.277 183.664 743.82 183.664 750.119V754.843V784.764V789.488C183.664 796.181 191.57 799.331 196.314 794.606L216.871 774.134C219.242 771.772 219.242 768.229 216.871 765.867L196.314 745.001Z" fill="white"/>
<path d="M511.994 745.001C507.25 740.277 499.344 743.82 499.344 750.119V754.843V784.764V789.488C499.344 796.181 507.25 799.331 511.994 794.606L532.55 774.134C534.922 771.772 534.922 768.229 532.55 765.867L511.994 745.001Z" fill="white"/>
<path d="M91.0876 601.497C86.3438 596.772 78.4374 600.316 78.4374 606.615V611.339V641.26V645.984C78.4374 652.677 86.3438 655.826 91.0876 651.102L111.644 630.63C114.016 628.268 114.016 624.725 111.644 622.362L91.0876 601.497Z" fill="white"/>
<path d="M406.767 601.497C402.024 596.772 394.117 600.316 394.117 606.615V611.339V641.26V645.984C394.117 652.677 402.024 655.826 406.767 651.102L427.324 630.63C429.696 628.268 429.696 624.725 427.324 622.362L406.767 601.497Z" fill="white"/>
<path d="M91.0876 673.052C86.3438 668.327 78.4374 671.871 78.4374 678.17V682.894V712.815V717.539C78.4374 724.232 86.3438 727.381 91.0876 722.657L111.644 702.185C114.016 699.823 114.016 696.279 111.644 693.917L91.0876 673.052Z" fill="white"/>
<path d="M406.767 673.052C402.024 668.327 394.117 671.871 394.117 678.17V682.894V712.815V717.539C394.117 724.232 402.024 727.381 406.767 722.657L427.324 702.185C429.696 699.823 429.696 696.279 427.324 693.917L406.767 673.052Z" fill="white"/>
<path d="M91.0876 745.001C86.3438 740.277 78.4374 743.82 78.4374 750.119V754.843V784.764V789.488C78.4374 796.181 86.3438 799.331 91.0876 794.606L111.644 774.134C114.016 771.772 114.016 768.229 111.644 765.867L91.0876 745.001Z" fill="white"/>
<path d="M406.767 745.001C402.024 740.277 394.117 743.82 394.117 750.119V754.843V784.764V789.488C394.117 796.181 402.024 799.331 406.767 794.606L427.324 774.134C429.696 771.772 429.696 768.229 427.324 765.867L406.767 745.001Z" fill="white"/>
<path d="M248.927 601.497C244.183 596.772 236.277 600.316 236.277 606.615V611.339V641.26V645.984C236.277 652.677 244.183 655.826 248.927 651.102L269.484 630.63C271.856 628.268 271.856 624.725 269.484 622.362L248.927 601.497Z" fill="white"/>
<path d="M564.607 601.497C559.863 596.772 551.957 600.316 551.957 606.615V611.339V641.26V645.984C551.957 652.677 559.863 655.826 564.607 651.102L585.163 630.63C587.535 628.268 587.535 624.725 585.163 622.362L564.607 601.497Z" fill="white"/>
<path d="M248.927 673.052C244.183 668.327 236.277 671.871 236.277 678.17V682.894V712.815V717.539C236.277 724.232 244.183 727.381 248.927 722.657L269.484 702.185C271.856 699.823 271.856 696.279 269.484 693.917L248.927 673.052Z" fill="white"/>
<path d="M564.607 673.052C559.863 668.327 551.957 671.871 551.957 678.17V682.894V712.815V717.539C551.957 724.232 559.863 727.381 564.607 722.657L585.163 702.185C587.535 699.823 587.535 696.279 585.163 693.917L564.607 673.052Z" fill="white"/>
<path d="M248.927 745.001C244.183 740.277 236.277 743.82 236.277 750.119V754.843V784.764V789.488C236.277 796.181 244.183 799.331 248.927 794.606L269.484 774.134C271.856 771.772 271.856 768.229 269.484 765.867L248.927 745.001Z" fill="white"/>
<path d="M564.607 745.001C559.863 740.277 551.957 743.82 551.957 750.119V754.843V784.764V789.488C551.957 796.181 559.863 799.331 564.607 794.606L585.163 774.134C587.535 771.772 587.535 768.229 585.163 765.867L564.607 745.001Z" fill="white"/>
<path d="M143.701 601.103C138.957 596.378 131.05 599.922 131.05 606.221V610.945V640.866V645.59C131.05 652.283 138.957 655.432 143.701 650.708L164.257 630.236C166.629 627.874 166.629 624.33 164.257 621.968L143.701 601.103Z" fill="white"/>
<path d="M459.381 601.103C454.637 596.378 446.73 599.922 446.73 606.221V610.945V640.866V645.59C446.73 652.283 454.637 655.432 459.381 650.708L479.937 630.236C482.309 627.874 482.309 624.33 479.937 621.968L459.381 601.103Z" fill="white"/>
<path d="M143.701 672.658C138.957 667.934 131.05 671.477 131.05 677.776V682.5V712.421V717.145C131.05 723.838 138.957 726.988 143.701 722.263L164.257 701.791C166.629 699.429 166.629 695.886 164.257 693.524L143.701 672.658Z" fill="white"/>
<path d="M459.381 672.658C454.637 667.934 446.73 671.477 446.73 677.776V682.5V712.421V717.145C446.73 723.838 454.637 726.988 459.381 722.263L479.937 701.791C482.309 699.429 482.309 695.886 479.937 693.524L459.381 672.658Z" fill="white"/>
<path d="M143.701 744.607C138.957 739.883 131.05 743.426 131.05 749.725V754.449V784.37V789.094C131.05 795.787 138.957 798.937 143.701 794.212L164.257 773.74C166.629 771.378 166.629 767.835 164.257 765.473L143.701 744.607Z" fill="white"/>
<path d="M459.381 744.607C454.637 739.883 446.73 743.426 446.73 749.725V754.449V784.37V789.094C446.73 795.787 454.637 798.937 459.381 794.212L479.937 773.74C482.309 771.378 482.309 767.835 479.937 765.473L459.381 744.607Z" fill="white"/>
<path d="M-14.1388 601.103C-18.8826 596.378 -26.7891 599.922 -26.7891 606.221V610.945V640.866V645.59C-26.7891 652.283 -18.8826 655.432 -14.1388 650.708L6.41783 630.236C8.78975 627.874 8.78975 624.33 6.41783 621.968L-14.1388 601.103Z" fill="white"/>
<path d="M-14.1388 672.658C-18.8826 667.934 -26.7891 671.477 -26.7891 677.776V682.5V712.421V717.145C-26.7891 723.838 -18.8826 726.988 -14.1388 722.263L6.41783 701.791C8.78975 699.429 8.78975 695.886 6.41783 693.524L-14.1388 672.658Z" fill="white"/>
<path d="M-14.1388 744.607C-18.8826 739.883 -26.7891 743.426 -26.7891 749.725V754.449V784.37V789.094C-26.7891 795.787 -18.8826 798.937 -14.1388 794.212L6.41783 773.74C8.78975 771.378 8.78975 767.835 6.41783 765.473L-14.1388 744.607Z" fill="white"/>
<path d="M301.54 601.103C296.797 596.378 288.89 599.922 288.89 606.221V610.945V640.866V645.59C288.89 652.283 296.797 655.432 301.54 650.708L322.097 630.236C324.469 627.874 324.469 624.33 322.097 621.968L301.54 601.103Z" fill="white"/>
<path d="M617.22 601.103C612.476 596.378 604.57 599.922 604.57 606.221V610.945V640.866V645.59C604.57 652.283 612.476 655.432 617.22 650.708L637.777 630.236C640.149 627.874 640.149 624.33 637.777 621.968L617.22 601.103Z" fill="white"/>
<path d="M301.54 672.658C296.797 667.934 288.89 671.477 288.89 677.776V682.5V712.421V717.145C288.89 723.838 296.797 726.988 301.54 722.263L322.097 701.791C324.469 699.429 324.469 695.886 322.097 693.524L301.54 672.658Z" fill="white"/>
<path d="M617.22 672.658C612.476 667.934 604.57 671.477 604.57 677.776V682.5V712.421V717.145C604.57 723.838 612.476 726.988 617.22 722.263L637.777 701.791C640.149 699.429 640.149 695.886 637.777 693.524L617.22 672.658Z" fill="white"/>
<path d="M301.54 744.607C296.797 739.883 288.89 743.426 288.89 749.725V754.449V784.37V789.094C288.89 795.787 296.797 798.937 301.54 794.212L322.097 773.74C324.469 771.378 324.469 767.835 322.097 765.473L301.54 744.607Z" fill="white"/>
<path d="M617.22 744.607C612.476 739.883 604.57 743.426 604.57 749.725V754.449V784.37V789.094C604.57 795.787 612.476 798.937 617.22 794.212L637.777 773.74C640.149 771.378 640.149 767.835 637.777 765.473L617.22 744.607Z" fill="white"/>
<path d="M1298.83 390.823C1294.09 386.099 1286.18 389.642 1286.18 395.941V400.666V430.586V435.311C1286.18 442.003 1294.09 445.153 1298.83 440.429L1319.39 419.957C1321.76 417.594 1321.76 414.051 1319.39 411.689L1298.83 390.823Z" fill="white"/>
<path d="M1298.83 462.378C1294.09 457.654 1286.18 461.197 1286.18 467.496V472.221V502.141V506.865C1286.18 513.558 1294.09 516.708 1298.83 511.983L1319.39 491.512C1321.76 489.149 1321.76 485.606 1319.39 483.244L1298.83 462.378Z" fill="white"/>
<path d="M1298.83 534.328C1294.09 529.603 1286.18 533.147 1286.18 539.446V544.17V574.091V578.815C1286.18 585.508 1294.09 588.657 1298.83 583.933L1319.39 563.461C1321.76 561.099 1321.76 557.556 1319.39 555.193L1298.83 534.328Z" fill="white"/>
<path d="M1614.51 390.823C1609.77 386.099 1601.86 389.642 1601.86 395.941V400.666V430.586V435.311C1601.86 442.003 1609.77 445.153 1614.51 440.429L1635.07 419.957C1637.44 417.594 1637.44 414.051 1635.07 411.689L1614.51 390.823Z" fill="white"/>
<path d="M1930.19 390.823C1925.44 386.099 1917.54 389.642 1917.54 395.941V400.666V430.586V435.311C1917.54 442.003 1925.44 445.153 1930.19 440.429L1950.75 419.957C1953.12 417.594 1953.12 414.051 1950.75 411.689L1930.19 390.823Z" fill="white"/>
<path d="M1614.51 462.378C1609.77 457.654 1601.86 461.197 1601.86 467.496V472.221V502.141V506.865C1601.86 513.558 1609.77 516.708 1614.51 511.983L1635.07 491.512C1637.44 489.149 1637.44 485.606 1635.07 483.244L1614.51 462.378Z" fill="white"/>
<path d="M1930.19 462.378C1925.44 457.654 1917.54 461.197 1917.54 467.496V472.221V502.141V506.865C1917.54 513.558 1925.44 516.708 1930.19 511.983L1950.75 491.512C1953.12 489.149 1953.12 485.606 1950.75 483.244L1930.19 462.378Z" fill="white"/>
<path d="M1614.51 534.328C1609.77 529.603 1601.86 533.147 1601.86 539.446V544.17V574.091V578.815C1601.86 585.508 1609.77 588.657 1614.51 583.933L1635.07 563.461C1637.44 561.099 1637.44 557.556 1635.07 555.193L1614.51 534.328Z" fill="white"/>
<path d="M1930.19 534.328C1925.44 529.603 1917.54 533.147 1917.54 539.446V544.17V574.091V578.815C1917.54 585.508 1925.44 588.657 1930.19 583.933L1950.75 563.461C1953.12 561.099 1953.12 557.556 1950.75 555.193L1930.19 534.328Z" fill="white"/>
<path d="M1456.67 390.823C1451.93 386.099 1444.02 389.642 1444.02 395.941V400.666V430.586V435.311C1444.02 442.003 1451.93 445.153 1456.67 440.429L1477.23 419.957C1479.6 417.594 1479.6 414.051 1477.23 411.689L1456.67 390.823Z" fill="white"/>
<path d="M1456.67 462.378C1451.93 457.654 1444.02 461.197 1444.02 467.496V472.221V502.141V506.865C1444.02 513.558 1451.93 516.708 1456.67 511.983L1477.23 491.512C1479.6 489.149 1479.6 485.606 1477.23 483.244L1456.67 462.378Z" fill="white"/>
<path d="M1456.67 534.328C1451.93 529.603 1444.02 533.147 1444.02 539.446V544.17V574.091V578.815C1444.02 585.508 1451.93 588.657 1456.67 583.933L1477.23 563.461C1479.6 561.099 1479.6 557.556 1477.23 555.193L1456.67 534.328Z" fill="white"/>
<path d="M1772.35 390.823C1767.6 386.099 1759.7 389.642 1759.7 395.941V400.666V430.586V435.311C1759.7 442.003 1767.6 445.153 1772.35 440.429L1792.91 419.957C1795.28 417.594 1795.28 414.051 1792.91 411.689L1772.35 390.823Z" fill="white"/>
<path d="M1772.35 462.378C1767.6 457.654 1759.7 461.197 1759.7 467.496V472.221V502.141V506.865C1759.7 513.558 1767.6 516.708 1772.35 511.983L1792.91 491.512C1795.28 489.149 1795.28 485.606 1792.91 483.244L1772.35 462.378Z" fill="white"/>
<path d="M1772.35 534.328C1767.6 529.603 1759.7 533.147 1759.7 539.446V544.17V574.091V578.815C1759.7 585.508 1767.6 588.657 1772.35 583.933L1792.91 563.461C1795.28 561.099 1795.28 557.556 1792.91 555.193L1772.35 534.328Z" fill="white"/>
<path d="M1351.44 390.823C1346.7 386.099 1338.79 389.642 1338.79 395.941V400.666V430.586V435.311C1338.79 442.003 1346.7 445.153 1351.44 440.429L1372 419.957C1374.37 417.594 1374.37 414.051 1372 411.689L1351.44 390.823Z" fill="white"/>
<path d="M1351.44 462.378C1346.7 457.654 1338.79 461.197 1338.79 467.496V472.221V502.141V506.865C1338.79 513.558 1346.7 516.708 1351.44 511.983L1372 491.512C1374.37 489.149 1374.37 485.606 1372 483.244L1351.44 462.378Z" fill="white"/>
<path d="M1351.44 534.328C1346.7 529.603 1338.79 533.147 1338.79 539.446V544.17V574.091V578.815C1338.79 585.508 1346.7 588.657 1351.44 583.933L1372 563.461C1374.37 561.099 1374.37 557.556 1372 555.193L1351.44 534.328Z" fill="white"/>
<path d="M1667.12 390.823C1662.38 386.099 1654.47 389.642 1654.47 395.941V400.666V430.586V435.311C1654.47 442.003 1662.38 445.153 1667.12 440.429L1687.68 419.957C1690.05 417.594 1690.05 414.051 1687.68 411.689L1667.12 390.823Z" fill="white"/>
<path d="M1667.12 462.378C1662.38 457.654 1654.47 461.197 1654.47 467.496V472.221V502.141V506.865C1654.47 513.558 1662.38 516.708 1667.12 511.983L1687.68 491.512C1690.05 489.149 1690.05 485.606 1687.68 483.244L1667.12 462.378Z" fill="white"/>
<path d="M1667.12 534.328C1662.38 529.603 1654.47 533.147 1654.47 539.446V544.17V574.091V578.815C1654.47 585.508 1662.38 588.657 1667.12 583.933L1687.68 563.461C1690.05 561.099 1690.05 557.556 1687.68 555.193L1667.12 534.328Z" fill="white"/>
<path d="M1509.28 390.823C1504.54 386.099 1496.63 389.642 1496.63 395.941V400.666V430.586V435.311C1496.63 442.003 1504.54 445.153 1509.28 440.429L1529.84 419.957C1532.21 417.594 1532.21 414.051 1529.84 411.689L1509.28 390.823Z" fill="white"/>
<path d="M1509.28 462.378C1504.54 457.654 1496.63 461.197 1496.63 467.496V472.221V502.141V506.865C1496.63 513.558 1504.54 516.708 1509.28 511.983L1529.84 491.512C1532.21 489.149 1532.21 485.606 1529.84 483.244L1509.28 462.378Z" fill="white"/>
<path d="M1509.28 534.328C1504.54 529.603 1496.63 533.147 1496.63 539.446V544.17V574.091V578.815C1496.63 585.508 1504.54 588.657 1509.28 583.933L1529.84 563.461C1532.21 561.099 1532.21 557.556 1529.84 555.193L1509.28 534.328Z" fill="white"/>
<path d="M1824.96 390.823C1820.22 386.099 1812.31 389.642 1812.31 395.941V400.666V430.586V435.311C1812.31 442.003 1820.22 445.153 1824.96 440.429L1845.52 419.957C1847.89 417.594 1847.89 414.051 1845.52 411.689L1824.96 390.823Z" fill="white"/>
<path d="M1824.96 462.378C1820.22 457.654 1812.31 461.197 1812.31 467.496V472.221V502.141V506.865C1812.31 513.558 1820.22 516.708 1824.96 511.983L1845.52 491.512C1847.89 489.149 1847.89 485.606 1845.52 483.244L1824.96 462.378Z" fill="white"/>
<path d="M1824.96 534.328C1820.22 529.603 1812.31 533.147 1812.31 539.446V544.17V574.091V578.815C1812.31 585.508 1820.22 588.657 1824.96 583.933L1845.52 563.461C1847.89 561.099 1847.89 557.556 1845.52 555.193L1824.96 534.328Z" fill="white"/>
<path d="M1404.06 390.429C1399.31 385.705 1391.41 389.248 1391.41 395.547V400.272V430.192V434.917C1391.41 441.609 1399.31 444.759 1404.06 440.035L1424.61 419.563C1426.98 417.2 1426.98 413.657 1424.61 411.295L1404.06 390.429Z" fill="white"/>
<path d="M1404.06 461.985C1399.31 457.26 1391.41 460.803 1391.41 467.102V471.827V501.747V506.472C1391.41 513.164 1399.31 516.314 1404.06 511.59L1424.61 491.118C1426.98 488.756 1426.98 485.212 1424.61 482.85L1404.06 461.985Z" fill="white"/>
<path d="M1404.06 533.934C1399.31 529.209 1391.41 532.753 1391.41 539.052V543.776V573.697V578.421C1391.41 585.114 1399.31 588.263 1404.06 583.539L1424.61 563.067C1426.98 560.705 1426.98 557.162 1424.61 554.799L1404.06 533.934Z" fill="white"/>
<path d="M1719.74 390.429C1714.99 385.705 1707.09 389.248 1707.09 395.547V400.272V430.192V434.917C1707.09 441.609 1714.99 444.759 1719.74 440.035L1740.29 419.563C1742.66 417.2 1742.66 413.657 1740.29 411.295L1719.74 390.429Z" fill="white"/>
<path d="M1719.74 461.985C1714.99 457.26 1707.09 460.803 1707.09 467.102V471.827V501.747V506.472C1707.09 513.164 1714.99 516.314 1719.74 511.59L1740.29 491.118C1742.66 488.756 1742.66 485.212 1740.29 482.85L1719.74 461.985Z" fill="white"/>
<path d="M1719.74 533.934C1714.99 529.209 1707.09 532.753 1707.09 539.052V543.776V573.697V578.421C1707.09 585.114 1714.99 588.263 1719.74 583.539L1740.29 563.067C1742.66 560.705 1742.66 557.162 1740.29 554.799L1719.74 533.934Z" fill="white"/>
<path d="M1561.9 390.429C1557.15 385.705 1549.25 389.248 1549.25 395.547V400.272V430.192V434.917C1549.25 441.609 1557.15 444.759 1561.9 440.035L1582.45 419.563C1584.82 417.2 1584.82 413.657 1582.45 411.295L1561.9 390.429Z" fill="white"/>
<path d="M1561.9 461.985C1557.15 457.26 1549.25 460.803 1549.25 467.102V471.827V501.747V506.472C1549.25 513.164 1557.15 516.314 1561.9 511.59L1582.45 491.118C1584.82 488.756 1584.82 485.212 1582.45 482.85L1561.9 461.985Z" fill="white"/>
<path d="M1561.9 533.934C1557.15 529.209 1549.25 532.753 1549.25 539.052V543.776V573.697V578.421C1549.25 585.114 1557.15 588.263 1561.9 583.539L1582.45 563.067C1584.82 560.705 1584.82 557.162 1582.45 554.799L1561.9 533.934Z" fill="white"/>
<path d="M1877.58 390.429C1872.83 385.705 1864.92 389.248 1864.92 395.547V400.272V430.192V434.917C1864.92 441.609 1872.83 444.759 1877.58 440.035L1898.13 419.563C1900.5 417.2 1900.5 413.657 1898.13 411.295L1877.58 390.429Z" fill="white"/>
<path d="M1877.58 461.985C1872.83 457.26 1864.92 460.803 1864.92 467.102V471.827V501.747V506.472C1864.92 513.164 1872.83 516.314 1877.58 511.59L1898.13 491.118C1900.5 488.756 1900.5 485.212 1898.13 482.85L1877.58 461.985Z" fill="white"/>
<path d="M1877.58 533.934C1872.83 529.209 1864.92 532.753 1864.92 539.052V543.776V573.697V578.421C1864.92 585.114 1872.83 588.263 1877.58 583.539L1898.13 563.067C1900.5 560.705 1900.5 557.162 1898.13 554.799L1877.58 533.934Z" fill="white"/>
<path d="M1298.83 601.497C1294.09 596.772 1286.18 600.316 1286.18 606.615V611.339V641.26V645.984C1286.18 652.677 1294.09 655.826 1298.83 651.102L1319.39 630.63C1321.76 628.268 1321.76 624.725 1319.39 622.362L1298.83 601.497Z" fill="white"/>
<path d="M1298.83 673.052C1294.09 668.327 1286.18 671.871 1286.18 678.17V682.894V712.815V717.539C1286.18 724.232 1294.09 727.381 1298.83 722.657L1319.39 702.185C1321.76 699.823 1321.76 696.279 1319.39 693.917L1298.83 673.052Z" fill="white"/>
<path d="M1298.83 745.001C1294.09 740.277 1286.18 743.82 1286.18 750.119V754.843V784.764V789.488C1286.18 796.181 1294.09 799.331 1298.83 794.606L1319.39 774.134C1321.76 771.772 1321.76 768.229 1319.39 765.867L1298.83 745.001Z" fill="white"/>
<path d="M1614.51 601.497C1609.77 596.772 1601.86 600.316 1601.86 606.615V611.339V641.26V645.984C1601.86 652.677 1609.77 655.826 1614.51 651.102L1635.07 630.63C1637.44 628.268 1637.44 624.725 1635.07 622.362L1614.51 601.497Z" fill="white"/>
<path d="M1930.19 601.497C1925.44 596.772 1917.54 600.316 1917.54 606.615V611.339V641.26V645.984C1917.54 652.677 1925.44 655.826 1930.19 651.102L1950.75 630.63C1953.12 628.268 1953.12 624.725 1950.75 622.362L1930.19 601.497Z" fill="white"/>
<path d="M1614.51 673.052C1609.77 668.327 1601.86 671.871 1601.86 678.17V682.894V712.815V717.539C1601.86 724.232 1609.77 727.381 1614.51 722.657L1635.07 702.185C1637.44 699.823 1637.44 696.279 1635.07 693.917L1614.51 673.052Z" fill="white"/>
<path d="M1930.19 673.052C1925.44 668.327 1917.54 671.871 1917.54 678.17V682.894V712.815V717.539C1917.54 724.232 1925.44 727.381 1930.19 722.657L1950.75 702.185C1953.12 699.823 1953.12 696.279 1950.75 693.917L1930.19 673.052Z" fill="white"/>
<path d="M1614.51 745.001C1609.77 740.277 1601.86 743.82 1601.86 750.119V754.843V784.764V789.488C1601.86 796.181 1609.77 799.331 1614.51 794.606L1635.07 774.134C1637.44 771.772 1637.44 768.229 1635.07 765.867L1614.51 745.001Z" fill="white"/>
<path d="M1930.19 745.001C1925.44 740.277 1917.54 743.82 1917.54 750.119V754.843V784.764V789.488C1917.54 796.181 1925.44 799.331 1930.19 794.606L1950.75 774.134C1953.12 771.772 1953.12 768.229 1950.75 765.867L1930.19 745.001Z" fill="white"/>
<path d="M1456.67 601.497C1451.93 596.772 1444.02 600.316 1444.02 606.615V611.339V641.26V645.984C1444.02 652.677 1451.93 655.826 1456.67 651.102L1477.23 630.63C1479.6 628.268 1479.6 624.725 1477.23 622.362L1456.67 601.497Z" fill="white"/>
<path d="M1456.67 673.052C1451.93 668.327 1444.02 671.871 1444.02 678.17V682.894V712.815V717.539C1444.02 724.232 1451.93 727.381 1456.67 722.657L1477.23 702.185C1479.6 699.823 1479.6 696.279 1477.23 693.917L1456.67 673.052Z" fill="white"/>
<path d="M1456.67 745.001C1451.93 740.277 1444.02 743.82 1444.02 750.119V754.843V784.764V789.488C1444.02 796.181 1451.93 799.331 1456.67 794.606L1477.23 774.134C1479.6 771.772 1479.6 768.229 1477.23 765.867L1456.67 745.001Z" fill="white"/>
<path d="M1772.35 601.497C1767.6 596.772 1759.7 600.316 1759.7 606.615V611.339V641.26V645.984C1759.7 652.677 1767.6 655.826 1772.35 651.102L1792.91 630.63C1795.28 628.268 1795.28 624.725 1792.91 622.362L1772.35 601.497Z" fill="white"/>
<path d="M1772.35 673.052C1767.6 668.327 1759.7 671.871 1759.7 678.17V682.894V712.815V717.539C1759.7 724.232 1767.6 727.381 1772.35 722.657L1792.91 702.185C1795.28 699.823 1795.28 696.279 1792.91 693.917L1772.35 673.052Z" fill="white"/>
<path d="M1772.35 745.001C1767.6 740.277 1759.7 743.82 1759.7 750.119V754.843V784.764V789.488C1759.7 796.181 1767.6 799.331 1772.35 794.606L1792.91 774.134C1795.28 771.772 1795.28 768.229 1792.91 765.867L1772.35 745.001Z" fill="white"/>
<path d="M1351.44 601.497C1346.7 596.772 1338.79 600.316 1338.79 606.615V611.339V641.26V645.984C1338.79 652.677 1346.7 655.826 1351.44 651.102L1372 630.63C1374.37 628.268 1374.37 624.725 1372 622.362L1351.44 601.497Z" fill="white"/>
<path d="M1351.44 673.052C1346.7 668.327 1338.79 671.871 1338.79 678.17V682.894V712.815V717.539C1338.79 724.232 1346.7 727.381 1351.44 722.657L1372 702.185C1374.37 699.823 1374.37 696.279 1372 693.917L1351.44 673.052Z" fill="white"/>
<path d="M1351.44 745.001C1346.7 740.277 1338.79 743.82 1338.79 750.119V754.843V784.764V789.488C1338.79 796.181 1346.7 799.331 1351.44 794.606L1372 774.134C1374.37 771.772 1374.37 768.229 1372 765.867L1351.44 745.001Z" fill="white"/>
<path d="M1667.12 601.497C1662.38 596.772 1654.47 600.316 1654.47 606.615V611.339V641.26V645.984C1654.47 652.677 1662.38 655.826 1667.12 651.102L1687.68 630.63C1690.05 628.268 1690.05 624.725 1687.68 622.362L1667.12 601.497Z" fill="white"/>
<path d="M1667.12 673.052C1662.38 668.327 1654.47 671.871 1654.47 678.17V682.894V712.815V717.539C1654.47 724.232 1662.38 727.381 1667.12 722.657L1687.68 702.185C1690.05 699.823 1690.05 696.279 1687.68 693.917L1667.12 673.052Z" fill="white"/>
<path d="M1667.12 745.001C1662.38 740.277 1654.47 743.82 1654.47 750.119V754.843V784.764V789.488C1654.47 796.181 1662.38 799.331 1667.12 794.606L1687.68 774.134C1690.05 771.772 1690.05 768.229 1687.68 765.867L1667.12 745.001Z" fill="white"/>
<path d="M1509.28 601.497C1504.54 596.772 1496.63 600.316 1496.63 606.615V611.339V641.26V645.984C1496.63 652.677 1504.54 655.826 1509.28 651.102L1529.84 630.63C1532.21 628.268 1532.21 624.725 1529.84 622.362L1509.28 601.497Z" fill="white"/>
<path d="M1509.28 673.052C1504.54 668.327 1496.63 671.871 1496.63 678.17V682.894V712.815V717.539C1496.63 724.232 1504.54 727.381 1509.28 722.657L1529.84 702.185C1532.21 699.823 1532.21 696.279 1529.84 693.917L1509.28 673.052Z" fill="white"/>
<path d="M1509.28 745.001C1504.54 740.277 1496.63 743.82 1496.63 750.119V754.843V784.764V789.488C1496.63 796.181 1504.54 799.331 1509.28 794.606L1529.84 774.134C1532.21 771.772 1532.21 768.229 1529.84 765.867L1509.28 745.001Z" fill="white"/>
<path d="M1824.96 601.497C1820.22 596.772 1812.31 600.316 1812.31 606.615V611.339V641.26V645.984C1812.31 652.677 1820.22 655.826 1824.96 651.102L1845.52 630.63C1847.89 628.268 1847.89 624.725 1845.52 622.362L1824.96 601.497Z" fill="white"/>
<path d="M1824.96 673.052C1820.22 668.327 1812.31 671.871 1812.31 678.17V682.894V712.815V717.539C1812.31 724.232 1820.22 727.381 1824.96 722.657L1845.52 702.185C1847.89 699.823 1847.89 696.279 1845.52 693.917L1824.96 673.052Z" fill="white"/>
<path d="M1824.96 745.001C1820.22 740.277 1812.31 743.82 1812.31 750.119V754.843V784.764V789.488C1812.31 796.181 1820.22 799.331 1824.96 794.606L1845.52 774.134C1847.89 771.772 1847.89 768.229 1845.52 765.867L1824.96 745.001Z" fill="white"/>
<path d="M1404.06 601.103C1399.31 596.378 1391.41 599.922 1391.41 606.221V610.945V640.866V645.59C1391.41 652.283 1399.31 655.432 1404.06 650.708L1424.61 630.236C1426.98 627.874 1426.98 624.33 1424.61 621.968L1404.06 601.103Z" fill="white"/>
<path d="M1404.06 672.658C1399.31 667.934 1391.41 671.477 1391.41 677.776V682.5V712.421V717.145C1391.41 723.838 1399.31 726.988 1404.06 722.263L1424.61 701.791C1426.98 699.429 1426.98 695.886 1424.61 693.524L1404.06 672.658Z" fill="white"/>
<path d="M1404.06 744.607C1399.31 739.883 1391.41 743.426 1391.41 749.725V754.449V784.37V789.094C1391.41 795.787 1399.31 798.937 1404.06 794.212L1424.61 773.74C1426.98 771.378 1426.98 767.835 1424.61 765.473L1404.06 744.607Z" fill="white"/>
<path d="M1719.74 601.103C1714.99 596.378 1707.09 599.922 1707.09 606.221V610.945V640.866V645.59C1707.09 652.283 1714.99 655.432 1719.74 650.708L1740.29 630.236C1742.66 627.874 1742.66 624.33 1740.29 621.968L1719.74 601.103Z" fill="white"/>
<path d="M1719.74 672.658C1714.99 667.934 1707.09 671.477 1707.09 677.776V682.5V712.421V717.145C1707.09 723.838 1714.99 726.988 1719.74 722.263L1740.29 701.791C1742.66 699.429 1742.66 695.886 1740.29 693.524L1719.74 672.658Z" fill="white"/>
<path d="M1719.74 744.607C1714.99 739.883 1707.09 743.426 1707.09 749.725V754.449V784.37V789.094C1707.09 795.787 1714.99 798.937 1719.74 794.212L1740.29 773.74C1742.66 771.378 1742.66 767.835 1740.29 765.473L1719.74 744.607Z" fill="white"/>
<path d="M1561.9 601.103C1557.15 596.378 1549.25 599.922 1549.25 606.221V610.945V640.866V645.59C1549.25 652.283 1557.15 655.432 1561.9 650.708L1582.45 630.236C1584.82 627.874 1584.82 624.33 1582.45 621.968L1561.9 601.103Z" fill="white"/>
<path d="M1561.9 672.658C1557.15 667.934 1549.25 671.477 1549.25 677.776V682.5V712.421V717.145C1549.25 723.838 1557.15 726.988 1561.9 722.263L1582.45 701.791C1584.82 699.429 1584.82 695.886 1582.45 693.524L1561.9 672.658Z" fill="white"/>
<path d="M1561.9 744.607C1557.15 739.883 1549.25 743.426 1549.25 749.725V754.449V784.37V789.094C1549.25 795.787 1557.15 798.937 1561.9 794.212L1582.45 773.74C1584.82 771.378 1584.82 767.835 1582.45 765.473L1561.9 744.607Z" fill="white"/>
<path d="M1877.58 601.103C1872.83 596.378 1864.92 599.922 1864.92 606.221V610.945V640.866V645.59C1864.92 652.283 1872.83 655.432 1877.58 650.708L1898.13 630.236C1900.5 627.874 1900.5 624.33 1898.13 621.968L1877.58 601.103Z" fill="white"/>
<path d="M1877.58 672.658C1872.83 667.934 1864.92 671.477 1864.92 677.776V682.5V712.421V717.145C1864.92 723.838 1872.83 726.988 1877.58 722.263L1898.13 701.791C1900.5 699.429 1900.5 695.886 1898.13 693.524L1877.58 672.658Z" fill="white"/>
<path d="M1877.58 744.607C1872.83 739.883 1864.92 743.426 1864.92 749.725V754.449V784.37V789.094C1864.92 795.787 1872.83 798.937 1877.58 794.212L1898.13 773.74C1900.5 771.378 1900.5 767.835 1898.13 765.473L1877.58 744.607Z" fill="white"/>
<defs>
<linearGradient id="paint0_linear" x1="1539" y1="899.578" x2="1529.65" y2="154.656" gradientUnits="userSpaceOnUse">
<stop stop-color="white" stop-opacity="0"/>
<stop offset="1" stop-color="#EEF3FF"/>
</linearGradient>
</defs>
</svg>
