<svg xmlns="http://www.w3.org/2000/svg" viewBox="0 0 1250.88 434.11"><title>uber</title><g id="Layer_2" data-name="Layer 2"><g id="Layer_1-2" data-name="Layer 1"><path d="M0,0H63.75A13.94,13.94,0,0,1,64,1.58c0,.8,0,1.6,0,2.4q0,129.71,0,259.43c0,17.76,2.84,35.05,9.94,51.45,11.83,27.35,31.53,46.44,59.86,56.2a107.21,107.21,0,0,0,44.95,5.15C200,374.31,219,366.78,235.33,353c15.86-13.36,26.36-30.28,32.54-50a127.13,127.13,0,0,0,5.8-38.27q0-130.67,0-261.35V0h63.75c.49,1.83.57,424,.07,426.5H274.44c-.17-4.31-.06-8.6-.08-12.88s0-8.48,0-12.72V387.43c-.86.75-1.38,1.15-1.84,1.6a150.59,150.59,0,0,1-70.68,40.09,166,166,0,0,1-48,4.74C134.37,433,115.52,429.4,97.54,422c-42.91-17.73-71.73-48.9-87.36-92.42A166.83,166.83,0,0,1,1,286.29C.43,279.76,0,273.2,0,266.65Q0,135.14,0,3.62Z"/><path d="M446.3,388.57v38H385.72C385.26,424.76,385.13,3,385.6,0h61.28v155c1-.85,1.56-1.32,2.1-1.84a153.55,153.55,0,0,1,67.94-38.89,157,157,0,0,1,54-4.72c28,2.23,53.86,10.83,77.17,26.48,36,24.17,58.88,57.57,68.67,99.85a156.22,156.22,0,0,1,3.67,45c-2.46,39.94-17.34,74.62-45.14,103.47-24.28,25.19-53.89,40.67-88.3,47a157.92,157.92,0,0,1-41.57,2.19C508,430.49,475.63,416,448.53,390c-.56-.54-1.14-1.07-1.71-1.6Zm-.58-116.93a109.26,109.26,0,0,0,3.07,26.13,106.81,106.81,0,0,0,120.87,80.59c23.87-3.73,44.34-14.57,60.59-32.43,27-29.73,35.56-64.56,25.34-103.31C640.78,186.48,583,153,526.76,167.2A107.19,107.19,0,0,0,445.72,271.65Z"/><path d="M1060.28,291.38H807.49a9.18,9.18,0,0,0,0,1.61c8,38.06,29.31,65.25,65.65,80,13.92,5.63,28.55,7.37,43.53,6.61a106.63,106.63,0,0,0,45-12c13.94-7.37,25.47-17.6,35.27-29.87.9-1.12,1.78-2.25,2.89-3.65l44.41,32.84c-.44.68-.75,1.23-1.12,1.72-23.14,29.92-52.73,50.18-89.52,59.59a175,175,0,0,1-45.13,5.23A171.81,171.81,0,0,1,838,418.12c-46.84-21.31-79.63-62.74-89.76-113.28a165.09,165.09,0,0,1-2.65-48.22c3.69-38.92,19-72.6,46.51-100.44,22.05-22.31,48.63-36.61,79.35-43.13a158.1,158.1,0,0,1,41.5-3.22c38.52,2.08,72.21,15.68,100,42.76,16.73,16.28,28.75,35.65,36.74,57.54a173.67,173.67,0,0,1,9.74,44.6C1060.56,266.79,1060.19,278.86,1060.28,291.38ZM808.46,242.6h2.07l186.91-.12a.34.34,0,0,0,.21-.1,1.12,1.12,0,0,0,.13-.28,4.78,4.78,0,0,0-.07-.62,107.54,107.54,0,0,0-10.29-27.53c-18.45-34.11-54.2-54-93.66-50.06a92,92,0,0,0-47.56,18.74c-18.37,14.07-30.08,32.63-36.4,54.74C809.34,239,809,240.58,808.46,242.6Z"/><path d="M1155.92,426.54h-61.17c-.49-1.74-.7-305.72-.23-310.42,1.68-.5,57.56-.65,60.81-.11V153l.47.15c.52-.75,1.06-1.49,1.56-2.25,9-13.48,20.75-23.82,35.69-30.34a88.88,88.88,0,0,1,34.76-7.17c7-.09,14.08,0,21.12,0,.62,0,1.25.1,1.94.16v57.2h-2.68c-7.92,0-15.84-.1-23.76,0-17.42.25-32.77,5.91-45.46,18-9.54,9.13-15.62,20.35-19.26,33a99.38,99.38,0,0,0-3.79,27.71q0,86.87,0,173.74C1155.92,424.18,1155.92,425.21,1155.92,426.54Z"/></g></g></svg>