<svg xmlns="http://www.w3.org/2000/svg" viewBox="0 0 957.99 309.44"><defs><style>.cls-1{fill:#edc951;}</style></defs><title>uklon</title><g id="Layer_2" data-name="Layer 2"><g id="Layer_1-2" data-name="Layer 1"><path class="cls-1" d="M910.86,0c4.79.33,11.44.61,18.06,1.28C948.31,3.23,955,10.23,957,29.64c2.31,22.24.23,44.25-3.05,66.18-4.89,32.7-12.91,64.59-26.84,94.71a128.85,128.85,0,0,1-11.83,19.56c-4.16,5.92-10.13,7.57-17.23,5.39-13.92-4.29-25.82-12.27-37.38-20.68C818.39,164,782.17,127.37,754,83.13c-4.42-6.94-7.62-14.73-10.77-22.38-2.88-7-1-13.67,5.38-17.56,10.28-6.31,20.7-12.81,31.85-17.23C821.69,9.61,864.67,1.4,910.86,0Z"/><path d="M527.06,146.91c46.33-1.84,82.24,36.35,81.54,82.48-.58,38.33-29.53,82.07-86.38,80-40.13-1.47-77.69-34.27-76.37-84.25C447,181.69,481.66,145.28,527.06,146.91Zm.11,33.37c-28.53,0-46.83,18.57-47.93,46.19-1.11,27.82,18.94,50,47.83,49.54s47.82-18.9,47.83-47.91S556.19,180.28,527.17,180.28Z"/><path d="M117.93,151H151V305a5.19,5.19,0,0,1-1.51.56c-25.32-.07-50.68.7-75.95-.48C37.23,303.43,4.65,272.2,1.15,236-.41,219.85.26,203.43.07,187.12c-.14-12,0-23.94,0-36.26h33.1c0,2,0,3.82,0,5.61q0,33.24,0,66.48c0,29,20.39,49.37,49.35,49.42,11.63,0,23.27,0,35.44,0Z"/><path d="M798.9,305.35H765.8V300q0-33.5,0-67c0-27.12-18-47.26-45-49.12-13.72-.95-27.56-.17-41.88-.17V305h-33V150.28h5c21.83,0,43.66,0,65.5,0,46.91.1,82.43,35.72,82.47,82.7q0,33.25,0,66.5C798.9,301.28,798.9,303.08,798.9,305.35Z"/><path d="M229.82,305.2h-32.5V92.56h32.5Z"/><path d="M408.85,305.26H376.43V92.7h32.42Z"/><path d="M338.44,305.49c-7.34,0-14.15.1-21-.09a6.45,6.45,0,0,1-3.75-2c-27.57-27.1-55.08-54.25-83-81.75,10-8.79,19.76-17.46,29.58-26.1,16-14.09,32-28.22,48.11-42.15a12.7,12.7,0,0,1,7-2.75c5.95-.39,11.94-.13,18.66-.13,0,7.3.13,14.21-.13,21.11,0,1.15-1.62,2.37-2.69,3.33q-24.45,21.77-48.95,43.47c-1.24,1.1-2.4,2.27-5,4.72,2.2,1.54,4.45,2.7,6.18,4.38q26.49,25.82,52.8,51.81c.89.88,1.92,2.16,1.95,3.28C338.53,290.08,338.44,297.55,338.44,305.49Z"/></g></g></svg>