<svg xmlns="http://www.w3.org/2000/svg" viewBox="0 0 957.99 309.44"><g data-name="Layer 2"><g data-name="Layer 1"><path d="M910.86 0c4.79.33 11.44.61 18.06 1.28C948.31 3.23 955 10.23 957 29.64c2.31 22.24.23 44.25-3.05 66.18-4.89 32.7-12.91 64.59-26.84 94.71a128.85 128.85 0 01-11.83 19.56c-4.16 5.92-10.13 7.57-17.23 5.39-13.92-4.29-25.82-12.27-37.38-20.68C818.39 164 782.17 127.37 754 83.13c-4.42-6.94-7.62-14.73-10.77-22.38-2.88-7-1-13.67 5.38-17.56 10.28-6.31 20.7-12.81 31.85-17.23C821.69 9.61 864.67 1.4 910.86 0z" fill="#edc951"/><path d="M527.06 146.91c46.33-1.84 82.24 36.35 81.54 82.48-.58 38.33-29.53 82.07-86.38 80-40.13-1.47-77.69-34.27-76.37-84.25 1.15-43.45 35.81-79.86 81.21-78.23zm.11 33.37c-28.53 0-46.83 18.57-47.93 46.19-1.11 27.82 18.94 50 47.83 49.54s47.82-18.9 47.83-47.91-18.71-47.82-47.73-47.82zM117.93 151H151v154a5.19 5.19 0 01-1.51.56c-25.32-.07-50.68.7-75.95-.48C37.23 303.43 4.65 272.2 1.15 236-.41 219.85.26 203.43.07 187.12c-.14-12 0-23.94 0-36.26h33.1v72.09c0 29 20.39 49.37 49.35 49.42h35.44zM798.9 305.35h-33.1V300v-67c0-27.12-18-47.26-45-49.12-13.72-.95-27.56-.17-41.88-.17V305h-33V150.28h70.5c46.91.1 82.43 35.72 82.47 82.7v66.5c.01 1.8.01 3.6.01 5.87zM229.82 305.2h-32.5V92.56h32.5zM408.85 305.26h-32.42V92.7h32.42zM338.44 305.49c-7.34 0-14.15.1-21-.09a6.45 6.45 0 01-3.75-2c-27.57-27.1-55.08-54.25-83-81.75 10-8.79 19.76-17.46 29.58-26.1 16-14.09 32-28.22 48.11-42.15a12.7 12.7 0 017-2.75c5.95-.39 11.94-.13 18.66-.13 0 7.3.13 14.21-.13 21.11 0 1.15-1.62 2.37-2.69 3.33q-24.45 21.77-48.95 43.47c-1.24 1.1-2.4 2.27-5 4.72 2.2 1.54 4.45 2.7 6.18 4.38q26.49 25.82 52.8 51.81c.89.88 1.92 2.16 1.95 3.28.33 7.46.24 14.93.24 22.87z"/></g></g></svg>