<svg width="25" height="25" viewBox="0 0 25 25" fill="none" xmlns="http://www.w3.org/2000/svg">
<path d="M12.7778 0.691284C6.16115 0.691284 0.777832 6.0746 0.777832 12.6913C0.777832 19.308 6.16115 24.6913 12.7778 24.6913C19.3945 24.6913 24.7778 19.308 24.7778 12.6913C24.7778 6.0746 19.3945 0.691284 12.7778 0.691284ZM12.7778 23.1913C6.98803 23.1913 2.27784 18.4811 2.27784 12.6913C2.27784 6.90148 6.98803 2.19129 12.7778 2.19129C18.5676 2.19129 23.2778 6.90148 23.2778 12.6913C23.2778 18.4811 18.5676 23.1913 12.7778 23.1913Z" />
<path d="M13.5278 5.19128H12.0278V13.0018L16.7476 17.7215L17.8081 16.661L13.5278 12.3807V5.19128Z" />
</svg>
