<svg width="41" height="40" viewBox="0 0 41 40" fill="none" xmlns="http://www.w3.org/2000/svg">
<path d="M27.354 25.6709C26.4053 25.6709 25.6335 25.0029 25.6335 24.1818C25.6335 23.3606 26.4053 22.6925 27.354 22.6925C28.3028 22.6925 29.0746 23.3606 29.0746 24.1818C29.0746 24.6136 29.4248 24.9638 29.8567 24.9638C30.2885 24.9638 30.6388 24.6136 30.6388 24.1818C30.6388 22.7486 29.5709 21.5436 28.1361 21.2165V20.8098C28.1361 20.3779 27.7859 20.0277 27.354 20.0277C26.9222 20.0277 26.572 20.3779 26.572 20.8098V21.2165C25.1372 21.5436 24.0693 22.7486 24.0693 24.1818C24.0693 25.8653 25.5428 27.2351 27.354 27.2351C28.3028 27.2351 29.0746 27.9031 29.0746 28.7243C29.0746 29.5455 28.3028 30.2135 27.354 30.2135C26.4053 30.2135 25.6335 29.5455 25.6335 28.7243C25.6335 28.2924 25.2833 27.9422 24.8514 27.9422C24.4195 27.9422 24.0693 28.2924 24.0693 28.7243C24.0693 30.1574 25.1372 31.3625 26.572 31.6895V32.0274C26.572 32.4592 26.9222 32.8095 27.354 32.8095C27.7859 32.8095 28.1361 32.4592 28.1361 32.0274V31.6895C29.5709 31.3625 30.6388 30.1574 30.6388 28.7243C30.6388 27.0406 29.1653 25.6709 27.354 25.6709Z"/>
<path d="M35.92 21.019C34.8984 19.4271 33.459 18.1533 31.7576 17.3354C31.3682 17.1481 30.901 17.3121 30.7139 17.7014C30.5267 18.0907 30.6906 18.5579 31.0799 18.7451C34.0448 20.1703 35.9605 23.2156 35.9605 26.5033C35.9605 27.9101 35.6137 29.3053 34.9578 30.5381C34.7549 30.9194 34.8995 31.393 35.2809 31.5959C35.3979 31.6581 35.5236 31.6877 35.6475 31.6877C35.9273 31.6877 36.198 31.5371 36.3386 31.2728C37.1145 29.8147 37.5246 28.1654 37.5246 26.5033C37.5246 24.5513 36.9698 22.6548 35.92 21.019Z"/>
<path d="M28.5835 16.3364L28.5309 16.3363C28.099 16.3363 27.7488 16.6864 27.7488 17.1184C27.7488 17.5503 28.099 17.9004 28.5309 17.9004L28.5761 17.9005C28.5774 17.9005 28.5786 17.9005 28.5799 17.9005C29.0101 17.9005 29.3599 17.5528 29.3619 17.1221C29.3638 16.6902 29.0154 16.3384 28.5835 16.3364Z"/>
<path d="M23.6356 34.2614C20.6708 32.8361 18.7551 29.7908 18.7551 26.5032C18.7551 25.0964 19.1018 23.7013 19.7578 22.4684C19.9606 22.0871 19.816 21.6135 19.4347 21.4106C19.0535 21.2078 18.5797 21.3524 18.3769 21.7337C17.601 23.1919 17.1909 24.8411 17.1909 26.5032C17.1909 28.4553 17.7458 30.3516 18.7956 31.9875C19.8172 33.5794 21.2565 34.8532 22.9579 35.6712C23.0672 35.7238 23.1826 35.7486 23.2963 35.7486C23.5875 35.7486 23.867 35.5852 24.0017 35.3052C24.1887 34.9159 24.0249 34.4486 23.6356 34.2614Z"/>
<path d="M26.1849 35.106L26.1396 35.1058C25.7057 35.1051 25.356 35.4522 25.354 35.8842C25.352 36.3162 25.7006 36.668 26.1325 36.67L26.1849 36.6701C26.6167 36.6701 26.967 36.3199 26.967 35.8881C26.967 35.4562 26.6167 35.106 26.1849 35.106Z"/>
<path d="M30.9091 13.6904C30.8139 13.4636 30.6973 13.2498 30.5616 13.0516H32.5976C34.5813 13.0516 36.1952 11.4377 36.1952 9.45405C36.1952 7.4704 34.5813 5.85652 32.5976 5.85652H26.3348C26.733 5.27763 26.9667 4.57728 26.9667 3.82312C26.9667 1.83947 25.3528 0.225586 23.3692 0.225586H4.20838C2.22473 0.225586 0.61084 1.83947 0.61084 3.82312C0.61084 5.80678 2.22473 7.42066 4.20838 7.42066H10.4712C10.0731 7.99955 9.83931 8.6999 9.83931 9.45405C9.83931 10.2082 10.073 10.9086 10.4712 11.4874H8.43158C6.44792 11.4874 4.83404 13.1013 4.83404 15.085C4.83404 16.2242 5.36694 17.2408 6.19602 17.9004C5.36694 18.56 4.83404 19.5767 4.83404 20.7159C4.83404 21.8552 5.36694 22.8718 6.19602 23.5314C5.36694 24.191 4.83404 25.2076 4.83404 26.3468C4.83404 27.4861 5.36694 28.5027 6.19602 29.1623C5.36694 29.8219 4.83404 30.8385 4.83404 31.9778C4.83404 33.9614 6.44792 35.5753 8.43158 35.5753H17.6483C20.0763 38.1723 23.5304 39.7986 27.3578 39.7986C34.6888 39.7986 40.6531 33.8343 40.6531 26.5033C40.6531 20.4018 36.5214 15.2479 30.9091 13.6904ZM32.5976 7.42066C33.7189 7.42066 34.631 8.33287 34.631 9.45405C34.631 10.5752 33.7189 11.4874 32.5976 11.4874H27.5924H13.4368C12.3156 11.4874 11.4035 10.5752 11.4035 9.45405C11.4035 8.33287 12.3156 7.42066 13.4368 7.42066H32.5976ZM4.20838 5.85652C3.08712 5.85652 2.17499 4.9443 2.17499 3.82312C2.17499 2.70194 3.08712 1.78973 4.20838 1.78973H23.3692C24.4904 1.78973 25.4026 2.70194 25.4026 3.82312C25.4026 4.9443 24.4904 5.85652 23.3692 5.85652H4.20838ZM8.43158 13.0516H27.5924C27.9074 13.0516 28.209 13.1248 28.4796 13.2559C28.1097 13.2248 27.7357 13.2081 27.3578 13.2081C23.6864 13.2081 20.3579 14.7041 17.9496 17.1184H8.43158C7.31039 17.1184 6.39818 16.2062 6.39818 15.085C6.39818 13.9638 7.31039 13.0516 8.43158 13.0516ZM8.43158 18.6825H16.6132C15.7254 19.8989 15.039 21.2708 14.6031 22.7493H8.43158C7.31032 22.7493 6.39818 21.8372 6.39818 20.7159C6.39818 19.5947 7.31032 18.6825 8.43158 18.6825ZM8.43158 24.3135H14.2439C14.1253 25.0262 14.0626 25.7575 14.0626 26.5033C14.0626 27.1404 14.1086 27.7669 14.1957 28.3802H8.43158C7.31032 28.3802 6.39818 27.4681 6.39818 26.3468C6.39818 25.2256 7.31032 24.3135 8.43158 24.3135ZM8.43158 34.0112C7.31032 34.0112 6.39818 33.099 6.39818 31.9778C6.39818 30.8565 7.31032 29.9444 8.43158 29.9444H14.515C14.9096 31.4157 15.5507 32.7869 16.3914 34.0112H8.43158ZM27.3578 38.2344C20.8893 38.2344 15.6267 32.9719 15.6267 26.5033C15.6267 20.0348 20.8893 14.7722 27.3578 14.7722C33.8264 14.7722 39.0889 20.0348 39.0889 26.5033C39.0889 32.9719 33.8264 38.2344 27.3578 38.2344Z"/>
</svg>
