<svg width="45" height="44" viewBox="0 0 45 44" fill="none" xmlns="http://www.w3.org/2000/svg">
<path d="M42.3899 21.9408H42.3882H1.17274C0.78305 21.9404 0.466721 22.2559 0.466309 22.6456V22.6472V42.4307C0.465897 42.8203 0.781401 43.1367 1.17109 43.1371H1.17274L42.3866 42.4307C42.7767 42.4307 43.093 42.1143 43.093 41.7242C43.093 41.3341 42.7767 41.0178 42.3866 41.0178L1.87918 41.7242V23.3537H41.6818V38.8552C41.6814 39.2449 41.9969 39.5612 42.3866 39.5616H42.3882C42.7779 39.5621 43.0942 39.2466 43.0946 38.8569V38.8552V22.6472C43.0951 22.2575 42.7795 21.9413 42.3899 21.9408Z"/>
<path d="M37.5974 18.6609L4.62503 11.2421C4.44203 11.2012 4.25027 11.2343 4.0917 11.3344C3.93333 11.4353 3.82132 11.5947 3.78011 11.7779L2.13149 19.1967C2.04679 19.5777 2.28708 19.9552 2.66811 20.0399C3.04915 20.1246 3.42669 19.8843 3.51138 19.5033L5.00586 12.7761L37.2875 20.0391C37.3386 20.0509 37.3908 20.0568 37.4433 20.0564C37.8334 20.0557 38.1491 19.7388 38.1484 19.3487C38.1478 19.0189 37.9191 18.7335 37.5974 18.6609Z"/>
<path d="M40.7187 16.8854L13.8102 6.01735C13.4664 5.87403 13.0702 6.02127 12.9035 6.3545L11.2549 9.65173C11.0687 9.99609 11.1969 10.4263 11.5413 10.6125C11.8857 10.7987 12.3159 10.6705 12.5021 10.326C12.5094 10.3125 12.5163 10.2987 12.5227 10.2847V10.2863L13.8754 7.57932L40.173 18.1927C40.534 18.3433 40.9489 18.1729 41.0995 17.8119C41.2501 17.451 41.0797 17.0362 40.7187 16.8854Z"/>
<path d="M41.7105 14.2145L24.5056 1.4347C24.2066 1.21253 23.7866 1.25966 23.5443 1.54272L21.1477 4.34379C20.8838 4.63294 20.9042 5.08136 21.1934 5.34527C21.4826 5.60917 21.931 5.58875 22.1949 5.2995C22.2053 5.28817 22.2153 5.27644 22.2249 5.26439L22.2245 5.26599L24.1913 2.9661L40.865 15.3512C41.179 15.5846 41.6227 15.5195 41.8561 15.2055C42.0895 14.8918 42.0244 14.4481 41.7105 14.2145Z"/>
<path d="M21.9561 25.285C17.9498 25.285 14.7021 28.5327 14.7021 32.539C14.7063 36.5434 17.9516 39.7888 21.9561 39.7929C25.9623 39.7929 29.21 36.5452 29.21 32.539C29.21 28.5327 25.9623 25.285 21.9561 25.285ZM21.9561 38.474C18.6782 38.474 16.021 35.8168 16.021 32.539C16.0246 29.2626 18.6798 26.6075 21.9561 26.6039C25.2339 26.6039 27.8911 29.2611 27.8911 32.539C27.8911 35.8168 25.2339 38.474 21.9561 38.474Z"/>
<path d="M14.3617 38.426H8.13071L5.17639 35.1947V29.8367L8.439 26.6508H14.3617C14.7518 26.6508 15.0681 26.3345 15.0681 25.9444C15.0681 25.5542 14.7518 25.2379 14.3617 25.2379H8.15214C7.9675 25.2375 7.78996 25.3094 7.65756 25.4382L3.97537 29.0297C3.83781 29.1905 3.76239 29.3952 3.7627 29.6068V35.4692C3.7627 35.6455 3.82854 35.8155 3.94734 35.9457L7.29651 39.6089C7.43036 39.7554 7.61974 39.839 7.8183 39.8389H14.3617C14.7518 39.8389 15.0681 39.5226 15.0681 39.1325C15.0681 38.7424 14.7519 38.426 14.3617 38.426Z"/>
<path d="M29.9691 38.1067H36.2001L39.1544 34.8754V29.5174L35.8918 26.3314H29.9691C29.579 26.3314 29.2627 26.0151 29.2627 25.625C29.2627 25.2349 29.579 24.9186 29.9691 24.9186H36.1787C36.3633 24.9182 36.5408 24.9901 36.6733 25.1189L40.3554 28.7104C40.493 28.8711 40.5684 29.0759 40.5681 29.2874V35.1499C40.5681 35.3262 40.5023 35.4961 40.3835 35.6264L37.0343 39.2896C36.9005 39.4361 36.7111 39.5197 36.5125 39.5196H29.9691C29.579 39.5196 29.2627 39.2032 29.2627 38.8131C29.2627 38.423 29.5789 38.1067 29.9691 38.1067Z"/>
<path d="M22.3682 31.7146H21.5439C21.2876 31.7146 21.1318 31.5711 21.1318 31.5085C21.1318 31.4458 21.2876 31.3024 21.5439 31.3024H23.6047C24.0599 31.3024 24.429 30.9333 24.429 30.4781C24.429 30.0229 24.0599 29.6538 23.6047 29.6538H22.7804C22.7804 29.1986 22.4113 28.8295 21.9561 28.8295C21.5009 28.8295 21.1318 29.1986 21.1318 29.6538V29.6909C20.2175 29.82 19.5249 30.5819 19.4832 31.5044C19.5422 32.5851 20.4627 33.4155 21.5439 33.3632H22.3682C22.6246 33.3632 22.7804 33.5066 22.7804 33.5692C22.7804 33.6319 22.6246 33.7753 22.3682 33.7753H20.3075C19.8522 33.7753 19.4832 34.1444 19.4832 34.5996C19.4832 35.0549 19.8522 35.4239 20.3075 35.4239H21.1318C21.1318 35.8792 21.5009 36.2482 21.9561 36.2482C22.4113 36.2482 22.7804 35.8792 22.7804 35.4239V35.3868C23.6947 35.2577 24.3873 34.4958 24.429 33.5734C24.37 32.4926 23.4494 31.6622 22.3682 31.7146Z"/>
</svg>
