<svg width="51" height="43" viewBox="0 0 51 43" fill="none" xmlns="http://www.w3.org/2000/svg">
<path d="M42.9216 10.9365C42.9211 10.9365 42.9205 10.9365 42.9199 10.9365H1.70448C1.31479 10.9361 0.998459 11.2516 0.998047 11.6413C0.998047 11.6418 0.998047 11.6424 0.998047 11.643V31.4264C0.997635 31.8161 1.31314 32.1324 1.70283 32.1328C1.70335 32.1328 1.70397 32.1328 1.70448 32.1328H29.731C30.1211 32.1328 30.4374 31.8165 30.4374 31.4264C30.4374 31.0363 30.1211 30.7199 29.731 30.7199H2.41091V12.3494H42.2135V14.1159C42.2131 14.5056 42.5286 14.8219 42.9183 14.8223C42.9188 14.8223 42.9194 14.8223 42.9199 14.8223C43.3096 14.8227 43.626 14.5072 43.6264 14.1175C43.6264 14.117 43.6264 14.1164 43.6264 14.1159V11.643C43.6268 11.2533 43.3113 10.937 42.9216 10.9365Z"/>
<path d="M38.1291 7.65658L5.15676 0.237798C4.97377 0.196892 4.78201 0.23007 4.62344 0.330121C4.46506 0.430996 4.35306 0.590396 4.31185 0.773599L2.66323 8.19238C2.57853 8.57342 2.81882 8.95095 3.19985 9.03565C3.58089 9.12035 3.95842 8.88006 4.04312 8.49902L5.53759 1.77184L37.8192 9.03483C37.8703 9.04668 37.9225 9.05255 37.975 9.05214C38.3651 9.05142 38.6808 8.73457 38.6802 8.34447C38.6796 8.01464 38.4508 7.72922 38.1291 7.65658Z"/>
<path d="M34.625 14.2338H28.0824C27.6923 14.2338 27.376 14.5501 27.376 14.9402C27.376 15.3303 27.6923 15.6466 28.0824 15.6466H34.625C35.0151 15.6466 35.3314 15.3303 35.3314 14.9402C35.3314 14.5501 35.0151 14.2338 34.625 14.2338Z"/>
<path d="M21.4878 14.2808C17.4816 14.2808 14.2339 17.5284 14.2339 21.5347C14.238 25.5392 17.4833 28.7845 21.4878 28.7886C25.4941 28.7886 28.7417 25.5409 28.7417 21.5347C28.7417 17.5284 25.4941 14.2808 21.4878 14.2808ZM21.4878 27.4697C18.2099 27.4697 15.5528 24.8125 15.5528 21.5347C15.5564 18.2584 18.2115 15.6033 21.4878 15.5997C24.7657 15.5997 27.4228 18.2568 27.4228 21.5347C27.4228 24.8125 24.7657 27.4697 21.4878 27.4697Z"/>
<path d="M41.2713 16.5887C36.9024 16.5887 32.2039 17.6208 32.2039 19.886V39.6694C32.2039 41.9346 36.9024 42.9666 41.2713 42.9666C45.6401 42.9666 50.3387 41.9346 50.3387 39.6694V19.886C50.3387 17.6208 45.6401 16.5887 41.2713 16.5887ZM48.69 39.657C48.5656 40.1145 46.0935 41.318 41.2713 41.318C36.4491 41.318 33.9769 40.1145 33.8525 39.6694V38.3736C35.6066 39.2572 38.5041 39.6694 41.2713 39.6694C44.0385 39.6694 46.9367 39.2531 48.69 38.3728V39.657ZM48.69 36.3598C48.5656 36.8173 46.0935 38.0208 41.2713 38.0208C36.4491 38.0208 33.9769 36.8173 33.8525 36.3722V35.0764C35.6066 35.96 38.5041 36.3722 41.2713 36.3722C44.0385 36.3722 46.9367 35.9559 48.69 35.0755V36.3598ZM48.69 33.0626C48.5656 33.5201 46.0935 34.7235 41.2713 34.7235C36.4491 34.7235 33.9769 33.5201 33.8525 33.0749V31.7791C35.6066 32.6628 38.5041 33.0749 41.2713 33.0749C44.0385 33.0749 46.9367 32.6587 48.69 31.7783V33.0626ZM48.69 29.7653C48.5656 30.2228 46.0935 31.4263 41.2713 31.4263C36.4491 31.4263 33.9769 30.2228 33.8525 29.7777V28.4819C35.6066 29.3655 38.5041 29.7777 41.2713 29.7777C44.0385 29.7777 46.9367 29.3614 48.69 28.4811V29.7653ZM48.69 26.4681C48.5656 26.9256 46.0935 28.1291 41.2713 28.1291C36.4491 28.1291 33.9769 26.9256 33.8525 26.4805V25.1846C35.6066 26.0642 38.5041 26.4805 41.2713 26.4805C44.0385 26.4805 46.9367 26.0642 48.69 25.1838V26.4681ZM48.69 23.1709C48.5656 23.6283 46.0935 24.8318 41.2713 24.8318C36.4491 24.8318 33.9769 23.6283 33.8525 23.1832V21.8874C35.6066 22.7669 38.5041 23.1832 41.2713 23.1832C44.0385 23.1832 46.9367 22.7669 48.69 21.8866V23.1709ZM41.2713 21.5346C36.4565 21.5346 33.9852 20.3344 33.8525 19.9008V19.8959C33.9852 19.4367 36.4565 18.2374 41.2713 18.2374C46.0523 18.2374 48.5252 19.4194 48.69 19.886C48.5252 20.3525 46.0523 21.5346 41.2713 21.5346Z"/>
<path d="M14.8934 27.4219H8.66245L5.70813 24.1906V18.8326L8.97074 15.6466H14.8934C15.2835 15.6466 15.5998 15.3303 15.5998 14.9402C15.5998 14.5501 15.2835 14.2338 14.8934 14.2338H8.68388C8.49924 14.2334 8.3217 14.3053 8.1893 14.4341L4.50711 18.0256C4.36955 18.1863 4.29413 18.3911 4.29443 18.6026V24.4651C4.29443 24.6414 4.36028 24.8113 4.47908 24.9415L7.82825 28.6048C7.9621 28.7513 8.15148 28.8349 8.35004 28.8348H14.8934C15.2835 28.8348 15.5998 28.5184 15.5998 28.1283C15.5998 27.7382 15.2836 27.4219 14.8934 27.4219Z"/>
<path d="M21.9 20.7104H21.0757C20.8193 20.7104 20.6635 20.567 20.6635 20.5043C20.6635 20.4417 20.8193 20.2982 21.0757 20.2982H23.1364C23.5917 20.2982 23.9607 19.9292 23.9607 19.4739C23.9607 19.0187 23.5917 18.6496 23.1364 18.6496H22.3121C22.3121 18.1944 21.943 17.8253 21.4878 17.8253C21.0326 17.8253 20.6635 18.1944 20.6635 18.6496V18.6867C19.7492 18.8158 19.0566 19.5778 19.0149 20.5002C19.0739 21.581 19.9945 22.4114 21.0757 22.359H21.9C22.1563 22.359 22.3121 22.5024 22.3121 22.5651C22.3121 22.6277 22.1563 22.7712 21.9 22.7712H19.8392C19.384 22.7712 19.0149 23.1403 19.0149 23.5955C19.0149 24.0507 19.384 24.4198 19.8392 24.4198H20.6635C20.6635 24.875 21.0326 25.2441 21.4878 25.2441C21.943 25.2441 22.3121 24.875 22.3121 24.4198V24.3827C23.2264 24.2536 23.919 23.4916 23.9607 22.5692C23.9017 21.4884 22.9812 20.6581 21.9 20.7104Z"/>
</svg>
