<svg width="32" height="41" viewBox="0 0 32 41" fill="none" xmlns="http://www.w3.org/2000/svg">
<path d="M29.5782 22.7501L23.5135 13.243C24.3728 12.7914 24.9606 11.8903 24.9606 10.854C24.9606 9.71978 24.2565 8.74746 23.2627 8.34943L25.0999 1.92617C25.1791 1.64905 25.1019 1.35084 24.8981 1.14702C23.676 -0.0750489 21.6875 -0.0750489 20.4654 1.14702C20.173 1.43937 19.7844 1.60034 19.371 1.60034C18.9576 1.60034 18.5689 1.43937 18.2747 1.14512L18.2708 1.14123C17.053 -0.0767149 15.068 -0.0801263 13.8453 1.13401L13.8225 1.1567C13.219 1.75592 12.2388 1.75417 11.6376 1.15282L11.6318 1.14702C10.4096 -0.0750489 8.42118 -0.0750489 7.19903 1.14702C6.99514 1.35099 6.91794 1.64945 6.99736 1.92673L8.83856 8.34793C7.84259 8.74492 7.13659 9.71828 7.13659 10.8541C7.13659 11.8904 7.7243 12.7915 8.58366 13.243L2.51891 22.7501C0.172662 26.4281 0.0239885 30.9078 2.1212 34.7332C4.21842 38.5587 8.07504 40.8426 12.4377 40.8426H19.6593C24.0219 40.8426 27.8785 38.5587 29.9758 34.7332C32.073 30.9078 31.9244 26.4281 29.5782 22.7501ZM10.5097 2.26898L10.5155 2.27477C11.7335 3.49264 13.7184 3.49597 14.9411 2.28199L14.9638 2.2593C15.5673 1.66008 16.5474 1.66183 17.1506 2.26501L17.1545 2.2689C18.3767 3.49097 20.3651 3.49097 21.5873 2.2689C22.0845 1.77163 22.8388 1.68412 23.4265 2.00638L21.6675 8.15665H10.4345L8.67085 2.0063C9.25856 1.68412 10.0126 1.77179 10.5097 2.26898ZM28.5845 33.9705C26.7701 37.2801 23.4336 39.256 19.6593 39.256H12.4378C8.66355 39.256 5.32704 37.2801 3.51266 33.9705C1.69827 30.661 1.82687 26.7855 3.85665 23.6035L10.2689 13.5514H12.4785C12.9167 13.5514 13.2719 13.1962 13.2719 12.7581C13.2719 12.3199 12.9167 11.9647 12.4785 11.9647H9.83397C9.22151 11.9647 8.72329 11.4665 8.72329 10.854C8.72329 10.2416 9.22151 9.74335 9.83397 9.74335H9.83659H22.2631C22.8756 9.74335 23.3738 10.2416 23.3738 10.854C23.3738 11.4665 22.8756 11.9647 22.2631 11.9647H19.6186C19.1805 11.9647 18.8253 12.3199 18.8253 12.7581C18.8253 13.1962 19.1805 13.5514 19.6186 13.5514H21.8282L28.2405 23.6035C30.2703 26.7854 30.3989 30.6609 28.5845 33.9705Z"/>
<path d="M17.4473 26.1348C17.2483 26.0644 17.0451 25.9912 16.842 25.9151V22.3195C17.3799 22.4777 17.7391 22.7344 17.7543 22.7455C18.1033 23.0069 18.5985 22.9376 18.8622 22.5895C19.1267 22.2403 19.0581 21.7427 18.7089 21.478C18.6623 21.4427 17.9247 20.8952 16.842 20.6879V19.8983C16.842 19.4602 16.4868 19.105 16.0486 19.105C15.6105 19.105 15.2553 19.4602 15.2553 19.8983V20.6822C15.1209 20.7079 14.9847 20.7405 14.8466 20.782C13.7301 21.1175 12.8955 22.0724 12.6685 23.274C12.4614 24.3712 12.8129 25.4295 13.5859 26.0357C14.0054 26.3647 14.5296 26.6652 15.2553 26.9843V31.5854C14.6305 31.5459 14.2126 31.4037 13.5159 30.9479C13.1493 30.7079 12.6575 30.8108 12.4176 31.1775C12.1777 31.5442 12.2806 32.0358 12.6472 32.2757C13.6632 32.9403 14.3511 33.1286 15.2553 33.1731V33.9935C15.2553 34.4317 15.6105 34.7868 16.0486 34.7868C16.4868 34.7868 16.842 34.4317 16.842 33.9935V33.0907C18.5409 32.7186 19.5344 31.301 19.7574 29.9748C20.0488 28.241 19.1421 26.7337 17.4473 26.1348ZM14.5652 24.7872C14.2602 24.548 14.1309 24.0809 14.2277 23.5684C14.3167 23.0969 14.6339 22.5285 15.2553 22.3182V25.2237C14.9944 25.0846 14.759 24.9393 14.5652 24.7872ZM18.1926 29.7116C18.0783 30.3911 17.6197 31.1118 16.8419 31.4303V27.6032C16.8678 27.6124 16.8923 27.6214 16.9185 27.6307C18.3409 28.1334 18.2534 29.3506 18.1926 29.7116Z"/>
<path d="M16.0485 13.5512C16.2571 13.5512 16.4618 13.4663 16.6094 13.3187C16.7569 13.1712 16.8418 12.9665 16.8418 12.7578C16.8418 12.5492 16.7569 12.3445 16.6094 12.1969C16.4618 12.0494 16.2571 11.9645 16.0485 11.9645C15.8398 11.9645 15.6351 12.0494 15.4876 12.1969C15.34 12.3445 15.2551 12.5492 15.2551 12.7578C15.2551 12.9665 15.34 13.1712 15.4876 13.3187C15.6351 13.4663 15.8397 13.5512 16.0485 13.5512Z"/>
</svg>
