<svg width="143" height="144" viewBox="0 0 143 144" fill="none" xmlns="http://www.w3.org/2000/svg">
<circle cx="71.4997" cy="71.7846" r="71.5002" fill="#EEF3FF"/>
<path d="M104.544 50.0304C102.744 50.0304 101.28 48.5661 101.28 46.766C101.28 46.214 100.832 45.7666 100.28 45.7666C99.7282 45.7666 99.2809 46.214 99.2809 46.766C99.2809 48.566 97.8166 50.0304 96.0165 50.0304C95.4644 50.0304 95.0171 50.4778 95.0171 51.0298C95.0171 51.5818 95.4644 52.0291 96.0165 52.0291C97.8165 52.0291 99.2809 53.4935 99.2809 55.2936C99.2809 55.8456 99.7282 56.2929 100.28 56.2929C100.832 56.2929 101.28 55.8456 101.28 55.2936C101.28 53.4935 102.744 52.0291 104.544 52.0291C105.096 52.0291 105.543 51.5818 105.543 51.0298C105.543 50.4778 105.096 50.0304 104.544 50.0304ZM100.28 52.2112C99.9516 51.7578 99.5522 51.3585 99.099 51.0298C99.5523 50.701 99.9518 50.3015 100.28 49.8483C100.609 50.3017 101.009 50.701 101.462 51.0298C101.008 51.3585 100.609 51.758 100.28 52.2112Z" fill="#35AA0C"/>
<path d="M46.9835 50.0304C45.1836 50.0304 43.7191 48.5661 43.7191 46.766C43.7191 46.214 43.2716 45.7666 42.7197 45.7666C42.1678 45.7666 41.7203 46.214 41.7203 46.766C41.7203 48.566 40.2558 50.0304 38.4559 50.0304C37.904 50.0304 37.4565 50.4778 37.4565 51.0298C37.4565 51.5818 37.904 52.0291 38.4559 52.0291C40.2558 52.0291 41.7203 53.4935 41.7203 55.2936C41.7203 55.8456 42.1678 56.2929 42.7197 56.2929C43.2716 56.2929 43.7191 55.8456 43.7191 55.2936C43.7191 53.4935 45.1836 52.0291 46.9835 52.0291C47.5354 52.0291 47.9829 51.5818 47.9829 51.0298C47.9829 50.4778 47.5354 50.0304 46.9835 50.0304ZM42.7197 52.2112C42.391 51.7578 41.9916 51.3585 41.5383 51.0298C41.9918 50.701 42.3911 50.3015 42.7197 49.8483C43.0484 50.3017 43.4478 50.701 43.9011 51.0298C43.4479 51.3585 43.0484 51.758 42.7197 52.2112Z" fill="#35AA0C"/>
<path d="M76.8297 37.2392C74.4419 37.2392 72.4993 35.2967 72.4993 32.9088C72.4994 32.3569 72.052 31.9095 71.5 31.9095C70.9482 31.9095 70.5007 32.3569 70.5007 32.9089C70.5007 35.2967 68.5579 37.2393 66.1703 37.2393C65.6184 37.2393 65.1709 37.6867 65.1709 38.2387C65.1709 38.7907 65.6184 39.238 66.1703 39.238C68.5579 39.238 70.5007 41.1806 70.5007 43.5685C70.5007 44.1205 70.9482 44.5678 71.5 44.5678C72.052 44.5678 72.4994 44.1205 72.4994 43.5685C72.4994 41.1806 74.442 39.238 76.8298 39.238C77.3818 39.238 77.8292 38.7907 77.8292 38.2387C77.8292 37.6867 77.3817 37.2392 76.8297 37.2392ZM71.5 40.158C71.006 39.3888 70.3497 38.7326 69.5804 38.2386C70.3497 37.7445 71.006 37.0883 71.5 36.3191C71.9941 37.0883 72.6503 37.7445 73.4195 38.2386C72.6503 38.7326 71.9941 39.3888 71.5 40.158Z" fill="#35AA0C"/>
<path d="M92.3058 65.6203L88.4185 54.6062C88.1277 53.782 87.3449 53.2283 86.471 53.2283H56.2626C55.3885 53.2283 54.6059 53.782 54.315 54.6061L50.4277 65.6203C50.2019 66.2601 50.6926 66.9523 51.37 66.9523H91.3635C91.6877 66.9523 91.9919 66.7948 92.1791 66.5302C92.3665 66.2654 92.4138 65.9262 92.3058 65.6203ZM52.7824 64.9535L56.1997 55.2713C56.2087 55.2456 56.2352 55.2269 56.2624 55.2269H86.471C86.4982 55.2269 86.5247 55.2456 86.5339 55.2714L89.9511 64.9535H52.7824Z" fill="#35AA0C"/>
<path d="M90.5539 78.8108C87.0048 78.8108 84.2249 80.6545 84.2249 83.008C84.2249 85.3615 87.0048 87.2051 90.5539 87.2051C94.1029 87.2051 96.8829 85.3615 96.8829 83.008C96.8829 80.6545 94.1029 78.8108 90.5539 78.8108ZM90.5539 85.2064C88.0753 85.2064 86.2234 84.0458 86.2234 83.008C86.2234 81.9702 88.0752 80.8095 90.5539 80.8095C93.0324 80.8095 94.8843 81.9702 94.8843 83.008C94.8843 84.0458 93.0324 85.2064 90.5539 85.2064Z" fill="#35AA0C"/>
<path d="M52.1798 78.8108C48.6308 78.8108 45.8508 80.6545 45.8508 83.008C45.8508 85.3615 48.6308 87.2051 52.1798 87.2051C55.7289 87.2051 58.5088 85.3615 58.5088 83.008C58.5088 80.6545 55.7289 78.8108 52.1798 78.8108ZM52.1798 85.2064C49.7015 85.2064 47.8494 84.0458 47.8494 83.008C47.8494 81.9702 49.7013 80.8095 52.1798 80.8095C54.6584 80.8095 56.5103 81.9702 56.5103 83.008C56.5103 84.0458 54.6584 85.2064 52.1798 85.2064Z" fill="#35AA0C"/>
<path d="M103.345 63.8878H98.0152C97.5567 63.8878 97.1569 64.1999 97.0457 64.6447L96.3437 67.4526L91.4339 53.5419C90.6927 51.4417 88.6982 50.0305 86.4709 50.0305H56.2625C54.0351 50.0305 52.0407 51.4417 51.2994 53.542L46.3897 67.4527L45.6877 64.6447C45.5764 64.1997 45.1767 63.8878 44.7183 63.8878H39.3885C38.8366 63.8878 38.3892 64.3351 38.3892 64.8871V69.1509C38.3892 69.7029 38.8366 70.1503 39.3885 70.1503H44.9082L41.5013 74.9198C40.8601 75.8176 40.5211 76.8756 40.5211 77.9789V90.4696C40.5211 92.2004 41.3612 93.7385 42.6547 94.6982C42.6543 94.7099 42.653 94.7215 42.653 94.7333V97.9311C42.653 99.07 43.5794 99.9963 44.7182 99.9963H51.1138C52.2527 99.9963 53.179 99.0698 53.179 97.9311V95.7327H89.5541V97.9311C89.5541 99.07 90.4806 99.9963 91.6193 99.9963H98.0149C99.1538 99.9963 100.08 99.0698 100.08 97.9311V94.7333C100.08 94.7215 100.079 94.7099 100.078 94.6982C101.372 93.7385 102.212 92.2004 102.212 90.4696V77.9789C102.212 76.8754 101.873 75.8174 101.232 74.9198L97.8247 70.1503H103.345C103.897 70.1503 104.344 69.7029 104.344 69.1509V64.8871C104.344 64.335 103.897 63.8878 103.345 63.8878ZM40.3879 68.1514V65.8863H43.938L44.5042 68.1514H40.3879ZM51.1806 97.9311C51.1806 97.9678 51.1508 97.9977 51.1139 97.9977H44.7183C44.6816 97.9977 44.6517 97.9678 44.6517 97.9311V95.7327H45.7843H51.1806V97.9311ZM98.0817 97.9311C98.0817 97.9678 98.0517 97.9977 98.015 97.9977H91.6194C91.5827 97.9977 91.5528 97.9678 91.5528 97.9311V95.7327H96.9491H98.0817V97.9311ZM96.9492 93.7339H45.7841C44.3327 93.7339 43.0999 92.7815 42.6768 91.4689H100.056C99.6333 92.7815 98.4007 93.7339 96.9492 93.7339ZM79.9608 82.9414V85.2065H62.7726V82.9414H79.9608ZM62.9296 80.9427C63.3528 79.63 64.5854 78.6776 66.037 78.6776H76.6964C78.1479 78.6776 79.3807 79.63 79.8038 80.9427H62.9296ZM79.9608 87.2051V89.4701H62.7726V87.2051H79.9608ZM99.6056 76.0814C100.003 76.6382 100.214 77.2943 100.214 77.9788V89.4703H81.9595V81.942C81.9595 79.04 79.5984 76.679 76.6964 76.679H66.037C63.135 76.679 60.774 79.0401 60.774 81.942V89.4703H42.5197V77.9788C42.5197 77.2943 42.73 76.6382 43.1277 76.0814L47.3644 70.1501H84.1578C84.7098 70.1501 85.1572 69.7028 85.1572 69.1508C85.1572 68.5988 84.7098 68.1514 84.1578 68.1514H48.2625L53.1841 54.2071C53.6439 52.9045 54.8809 52.0291 56.2625 52.0291H86.471C87.8524 52.0291 89.0894 52.9044 89.5494 54.2071L94.4708 68.1514H88.4216C87.8696 68.1514 87.4222 68.5988 87.4222 69.1508C87.4222 69.7028 87.8696 70.1501 88.4216 70.1501H95.369L99.6056 76.0814ZM102.345 68.1514H98.229L98.7952 65.8863H102.345V68.1514Z" fill="#35AA0C"/>
<path d="M55.3777 75.6129H48.982C48.4302 75.6129 47.9827 76.0603 47.9827 76.6123C47.9827 77.1643 48.4302 77.6116 48.982 77.6116H55.3777C55.9295 77.6116 56.377 77.1643 56.377 76.6123C56.377 76.0603 55.9295 75.6129 55.3777 75.6129Z" fill="#35AA0C"/>
<path d="M93.7514 75.6129H87.3558C86.8038 75.6129 86.3564 76.0603 86.3564 76.6123C86.3564 77.1643 86.8038 77.6116 87.3558 77.6116H93.7514C94.3034 77.6116 94.7508 77.1643 94.7508 76.6123C94.7508 76.0603 94.3034 75.6129 93.7514 75.6129Z" fill="#35AA0C"/>
</svg>
