<svg width="143" height="144" viewBox="0 0 143 144" fill="none" xmlns="http://www.w3.org/2000/svg">
<circle cx="71.4997" cy="71.8127" r="71.5002" fill="#EEF3FF"/>
<path d="M73.7811 73.6222C73.6492 73.5937 73.514 73.5885 73.3804 73.6085C72.0421 73.4527 71.0325 72.3204 71.0302 70.9735C71.0302 70.328 70.5068 69.8046 69.8613 69.8046C69.2159 69.8046 68.6925 70.328 68.6925 70.9735C68.6959 73.2227 70.2004 75.1928 72.3691 75.7881V76.9569C72.3691 77.6024 72.8925 78.1258 73.538 78.1258C74.1834 78.1258 74.7068 77.6024 74.7068 76.9569V75.8589C77.21 75.3349 78.9113 73.0035 78.6482 70.4598C78.3846 67.9161 76.2415 65.9831 73.6841 65.9825C72.2184 65.9825 71.0302 64.7942 71.0302 63.3286C71.0302 61.863 72.2184 60.6747 73.6841 60.6747C75.1497 60.6747 76.3379 61.863 76.3379 63.3286C76.3379 63.9741 76.8613 64.4975 77.5068 64.4975C78.1523 64.4975 78.6756 63.9741 78.6756 63.3286C78.6722 60.967 77.0177 58.93 74.7068 58.4426V57.3788C74.7068 56.7333 74.1834 56.21 73.538 56.21C72.8925 56.21 72.3691 56.7333 72.3691 57.3788V58.514C69.9572 59.1726 68.4049 61.5143 68.737 63.9924C69.0692 66.4705 71.1837 68.3202 73.6841 68.3196C75.1303 68.3196 76.31 69.4776 76.3362 70.9232C76.363 72.3689 75.2262 73.5697 73.7811 73.6222Z" fill="#35AA0C"/>
<path d="M56.7346 67.2409C56.7346 76.6019 64.323 84.1903 73.684 84.1903C83.045 84.1903 90.6334 76.6019 90.6334 67.2409C90.6334 57.8799 83.045 50.2915 73.684 50.2915C64.3275 50.3018 56.7455 57.8844 56.7346 67.2409ZM73.684 52.6292C81.7541 52.6292 88.2957 59.1708 88.2957 67.2409C88.2957 75.3109 81.7541 81.8526 73.684 81.8526C65.614 81.8526 59.0723 75.3109 59.0723 67.2409C59.0814 59.1748 65.618 52.6383 73.684 52.6292Z" fill="#35AA0C"/>
<path d="M96.3954 87.0715L87.2393 91.3976C85.9751 89.0463 83.5501 87.5498 80.8814 87.4745L72.429 87.2422C71.0906 87.204 69.7774 86.8649 68.5874 86.2503L67.7273 85.8045C63.3236 83.5091 58.0747 83.5148 53.6755 85.8194L53.7292 83.8709C53.7469 83.2254 53.2383 82.6878 52.5929 82.6701L43.3243 82.415C42.6788 82.3973 42.1417 82.9058 42.124 83.5513L41.5642 103.891C41.5465 104.536 42.055 105.074 42.7005 105.092L51.9691 105.347H52.001C52.6345 105.347 53.1527 104.843 53.1699 104.21L53.1967 103.237L55.6046 101.947C56.5497 101.439 57.6546 101.318 58.6871 101.61L73.0659 105.646C73.091 105.653 73.1161 105.659 73.1418 105.665C74.1811 105.882 75.2404 105.991 76.3019 105.99C78.5506 105.992 80.773 105.507 82.8167 104.569C82.8669 104.546 82.9155 104.519 82.9617 104.489L103.81 91.0038C104.329 90.6677 104.497 89.9857 104.193 89.4469C102.645 86.7006 99.2119 85.6544 96.3954 87.0715ZM43.9332 102.787L44.4286 84.7841L51.3601 84.9747L50.8647 102.978L43.9332 102.787ZM81.7637 102.481C79.2246 103.627 76.3887 103.943 73.6594 103.386L59.3194 99.3604C57.7054 98.9044 55.9778 99.0933 54.5014 99.8872L53.2709 100.546L53.6002 88.5765C57.4994 85.9832 62.5001 85.7166 66.6527 87.8803L67.5127 88.326C69.016 89.1022 70.674 89.5302 72.365 89.5793L80.818 89.8116C83.1923 89.8801 85.2086 91.5706 85.6903 93.8968L73.0996 93.5493C72.4541 93.5316 71.917 94.0407 71.8988 94.6856C71.8811 95.3311 72.3902 95.8687 73.0351 95.8864L86.9299 96.2688H86.9625C87.5954 96.2682 88.113 95.7643 88.1302 95.1319C88.1444 94.6239 88.1068 94.1154 88.0172 93.6155L97.4084 89.1781C97.4176 89.1741 97.4267 89.1695 97.4358 89.165C98.7679 88.4909 100.378 88.7164 101.474 89.7305L81.7637 102.481Z" fill="#35AA0C"/>
<path d="M74.8531 47.0053V35.9013C74.8531 35.2558 74.3297 34.7324 73.6842 34.7324C73.0387 34.7324 72.5154 35.2558 72.5154 35.9013V47.0053C72.5154 47.6508 73.0387 48.1741 73.6842 48.1741C74.3297 48.1741 74.8531 47.6508 74.8531 47.0053Z" fill="#35AA0C"/>
<path d="M83.6192 47.0051V41.7453C83.6192 41.0998 83.0958 40.5764 82.4503 40.5764C81.8048 40.5764 81.2815 41.0998 81.2815 41.7453V47.0051C81.2815 47.6506 81.8048 48.1739 82.4503 48.1739C83.0958 48.1739 83.6192 47.6506 83.6192 47.0051Z" fill="#35AA0C"/>
<path d="M66.0865 47.0051V41.7453C66.0865 41.0998 65.5631 40.5764 64.9176 40.5764C64.2721 40.5764 63.7488 41.0998 63.7488 41.7453V47.0051C63.7488 47.6506 64.2721 48.1739 64.9176 48.1739C65.5631 48.1739 66.0865 47.6506 66.0865 47.0051Z" fill="#35AA0C"/>
</svg>
