<svg width="143" height="144" viewBox="0 0 143 144" fill="none" xmlns="http://www.w3.org/2000/svg">
<circle cx="71.4997" cy="71.8127" r="71.5002" fill="#EEF3FF"/>
<path d="M84.6017 43.5582H83.3373C83.0322 43.5582 82.752 43.6839 82.5471 43.8887C82.3461 44.0898 82.2204 44.3699 82.2204 44.6753V46.6761C82.2204 46.9815 82.3461 47.2616 82.5471 47.4663C82.752 47.6675 83.0322 47.7932 83.3373 47.7932H84.6017V43.5582ZM75.9561 86.5816C75.4279 86.5816 75.0042 86.1543 75.0042 85.6298C75.0042 85.1053 75.4279 84.6779 75.9561 84.6779H91.4946V65.7596H56.1074V84.6779H71.6494C72.1739 84.6779 72.6013 85.1055 72.6013 85.6298C72.6013 86.1541 72.1739 86.5816 71.6494 86.5816H56.1074V88.69H72.5906C73.4095 88.69 74.153 89.0241 74.6917 89.5629C75.2271 90.1017 75.5609 90.8452 75.5609 91.6606C75.5609 92.4796 75.227 93.2231 74.6917 93.7619C74.153 94.3007 73.4095 94.6348 72.5906 94.6348H67.0376C66.5131 94.6348 66.0855 94.2073 66.0855 93.683C66.0855 93.1586 66.5131 92.7311 67.0376 92.7311H72.5906C72.8851 92.7311 73.1509 92.6125 73.3449 92.4186C73.5425 92.2211 73.6609 91.9552 73.6609 91.6608C73.6609 91.3698 73.5423 91.1004 73.3449 90.9064C73.1509 90.7125 72.8851 90.5904 72.5906 90.5904H56.1074V92.7312H62.7308C63.2587 92.7312 63.6827 93.1586 63.6827 93.6831C63.6827 94.2075 63.2587 94.6349 62.7308 94.6349H56.5744C56.761 94.9797 56.9981 95.2994 57.2747 95.576C57.9966 96.2979 58.988 96.7433 60.0764 96.7433H87.5254C88.6172 96.7433 89.6086 96.2979 90.3306 95.576C91.0491 94.8577 91.4945 93.8662 91.4945 92.7743V86.5819H75.9561V86.5816ZM56.1074 63.8595H91.4946V61.7474H84.871C84.3468 61.7474 83.9229 61.3236 83.9229 60.7992C83.9229 60.2712 84.3469 59.8474 84.871 59.8474H91.4946V57.7066H75.0114C74.7204 57.7066 74.4511 57.8287 74.2571 58.0227C74.0631 58.2167 73.9411 58.4824 73.9411 58.777C73.9411 59.0716 74.0631 59.3374 74.2571 59.5314C74.4511 59.7254 74.7204 59.8475 75.0114 59.8475H80.568C81.0925 59.8475 81.5163 60.2714 81.5163 60.7994C81.5163 61.3237 81.0923 61.7475 80.568 61.7475H75.0114C74.1959 61.7475 73.4525 61.4134 72.9137 60.8746C72.3749 60.3394 72.0408 59.596 72.0408 58.777C72.0408 57.9581 72.3749 57.2146 72.9137 56.6795C73.4525 56.1407 74.1959 55.8065 75.0114 55.8065H91.0313C90.8444 55.4582 90.6074 55.1385 90.3308 54.8619C89.6089 54.1436 88.6174 53.6946 87.5255 53.6946C78.377 53.6946 69.2286 53.6946 60.0766 53.6946C58.9881 53.6946 57.9967 54.1436 57.2748 54.8619C56.5564 55.5802 56.1074 56.5752 56.1074 57.6635V63.8595ZM68.0431 73.3312C68.0431 73.8556 67.6157 74.2793 67.0912 74.2793C66.5667 74.2793 66.1431 73.8555 66.1431 73.3312C66.1431 72.5409 65.8162 71.8225 65.2956 71.3017C64.7747 70.781 64.0562 70.4577 63.2697 70.4577C62.4795 70.4577 61.7611 70.781 61.2403 71.3017C60.7194 71.8225 60.3961 72.5409 60.3961 73.3312V77.1061C60.3961 77.8963 60.7194 78.6148 61.2403 79.1357C61.7609 79.6565 62.4794 79.9797 63.2697 79.9797C64.0562 79.9797 64.7747 79.6565 65.2956 79.1357C65.6834 78.7478 65.9598 78.2521 66.0784 77.7026H65.1877C64.6671 77.7026 64.2431 77.2787 64.2431 76.7543C64.2431 76.2335 64.6671 75.8096 65.1877 75.8096H67.0087C67.5656 75.8096 68.0432 76.194 68.0432 76.7543V77.1063C68.0432 78.421 67.5044 79.6135 66.6424 80.4791C65.7767 81.3447 64.5807 81.8799 63.2697 81.8799C61.9551 81.8799 60.7627 81.3447 59.897 80.4791C59.0313 79.6134 58.4962 78.4209 58.4962 77.1063V73.3312C58.4962 72.0165 59.0313 70.824 59.897 69.9583C60.7627 69.0926 61.9551 68.5575 63.2697 68.5575C64.5807 68.5575 65.7767 69.0928 66.6424 69.9583C67.5043 70.824 68.0431 72.0165 68.0431 73.3312ZM79.5624 78.076C79.5624 77.5515 79.9861 77.1241 80.5143 77.1241C81.0387 77.1241 81.4623 77.5515 81.4623 78.076C81.4623 78.5969 81.6779 79.0746 82.0226 79.4194C82.3677 79.7642 82.8453 79.9797 83.3697 79.9797H85.3021C85.8265 79.9797 86.3007 79.7642 86.6491 79.4194C86.9939 79.0746 87.2095 78.5969 87.2095 78.076C87.2095 77.5515 86.9939 77.0738 86.6491 76.7291C86.2898 76.3735 85.8084 76.1651 85.3021 76.1651H83.3697C82.3209 76.1651 81.3691 75.7412 80.6793 75.0516C79.9898 74.3621 79.5624 73.4102 79.5624 72.3648C79.5624 71.3161 79.9898 70.3642 80.6793 69.6746C81.3689 68.9851 82.3208 68.5575 83.3697 68.5575H85.3021C86.3509 68.5575 87.3027 68.9849 87.9924 69.6746C88.6819 70.3642 89.1093 71.3161 89.1093 72.3648C89.1093 72.8893 88.6819 73.3132 88.1574 73.3132C87.6329 73.3132 87.2093 72.8893 87.2093 72.3648C87.2093 71.8404 86.9938 71.3627 86.649 71.0179C86.3006 70.673 85.8264 70.4576 85.302 70.4576H83.3696C82.8451 70.4576 82.3676 70.673 82.0225 71.0179C81.6777 71.3627 81.4622 71.8404 81.4622 72.3648C81.4622 72.8856 81.6777 73.3635 82.0225 73.7082C82.3819 74.0675 82.8595 74.2721 83.3696 74.2721H85.302C86.3507 74.2721 87.3026 74.696 87.9923 75.3857C88.6817 76.0752 89.1091 77.0271 89.1091 78.0759C89.1091 79.1211 88.6817 80.073 87.9923 80.7627C87.3026 81.4522 86.3507 81.8798 85.302 81.8798H83.3696C82.3208 81.8798 81.3689 81.4522 80.6791 80.7627C79.9898 80.0732 79.5624 79.1212 79.5624 78.076ZM70.9024 81.1471C70.7838 81.6571 70.2738 81.9733 69.7638 81.8547C69.2538 81.7362 68.9376 81.2262 69.0562 80.716C69.9469 76.9087 70.8341 73.1013 71.7249 69.2939C71.8254 68.8629 72.2097 68.5575 72.6517 68.5575H74.954C75.4208 68.5575 75.8123 68.8951 75.8878 69.3406C76.775 73.1336 77.6622 76.9231 78.5495 80.716C78.6678 81.2261 78.3517 81.7362 77.8417 81.8547C77.3281 81.9733 76.8181 81.6571 76.6995 81.1471L75.8949 77.7061H71.7069L70.9024 81.1471ZM73.4023 70.4577L72.1523 75.8024H75.4533L74.1997 70.4577H73.4023ZM88.4772 98.5677V101.585C88.4772 102.109 88.0498 102.533 87.5254 102.533H60.0766C59.5521 102.533 59.1283 102.109 59.1283 101.585V98.5677C57.8926 98.3629 56.7826 97.7703 55.9314 96.919C54.8682 95.8558 54.2073 94.3904 54.2073 92.7741V64.8076V57.6634C54.2073 56.0506 54.8683 54.5816 55.9314 53.5184C56.9947 52.4551 58.4636 51.7942 60.0766 51.7942H61.1001V38.6086C61.1001 38.0843 61.5275 37.6567 62.052 37.6567H71.6494C72.1739 37.6567 72.6013 38.0843 72.6013 38.6086C72.6013 39.1331 72.1739 39.5569 71.6494 39.5569H63.0039V41.6582H64.2683C65.0979 41.6582 65.8522 41.9959 66.3982 42.5454C66.9479 43.0914 67.2854 43.8457 67.2854 44.6753V46.6761C67.2854 47.5058 66.9479 48.2601 66.3982 48.8095C65.8522 49.3555 65.0979 49.6932 64.2683 49.6932H63.0039V51.7945H70.7157V43.5582H70.0475C69.523 43.5582 69.0995 43.1344 69.0995 42.61C69.0995 42.082 69.5232 41.6582 70.0475 41.6582H77.5544C78.0789 41.6582 78.5063 42.082 78.5063 42.61C78.5063 43.1345 78.0789 43.5582 77.5544 43.5582H76.8899V51.7943H84.6017V49.6931H83.3373C82.5077 49.6931 81.7497 49.3555 81.2037 48.8094C80.6577 48.2598 80.3202 47.5055 80.3202 46.676V44.6753C80.3202 43.8456 80.6577 43.0914 81.2037 42.5454C81.7497 41.9959 82.5077 41.6582 83.3373 41.6582H84.6017V39.5569H75.9562C75.4281 39.5569 75.0043 39.1331 75.0043 38.6086C75.0043 38.0843 75.4281 37.6567 75.9562 37.6567H85.5536C86.0781 37.6567 86.5019 38.0843 86.5019 38.6086V51.7943H87.5255C89.1418 51.7943 90.6109 52.4553 91.674 53.5185C92.7373 54.5817 93.3982 56.0507 93.3982 57.6635V64.8078V92.7741C93.3982 94.3904 92.7371 95.8559 91.674 96.919C90.8229 97.7703 89.7127 98.3629 88.4772 98.5677ZM61.0284 98.6431V100.633H86.5772V98.6431H61.0284ZM74.9899 43.5582H72.6156V51.7943H74.9899V43.5582ZM64.2682 43.5582H63.0037V47.793H64.2682C64.5733 47.793 64.8535 47.6673 65.0547 47.4661C65.2593 47.2615 65.385 46.9813 65.385 46.676V44.6753C65.385 44.3699 65.2593 44.0898 65.0547 43.8887C64.8535 43.6839 64.5733 43.5582 64.2682 43.5582Z" fill="#35AA0C"/>
</svg>
