<svg width="143" height="144" viewBox="0 0 143 144" fill="none" xmlns="http://www.w3.org/2000/svg">
<circle cx="71.4997" cy="71.7846" r="71.5002" fill="#EEF3FF"/>
<path d="M66.7408 86.517C64.2127 86.517 62.156 88.5737 62.156 91.1017C62.156 93.6297 64.2127 95.6865 66.7408 95.6865C69.2688 95.6865 71.3255 93.6297 71.3255 91.1017C71.3255 88.5737 69.2688 86.517 66.7408 86.517ZM66.7408 93.8526C65.2241 93.8526 63.9899 92.6183 63.9899 91.1017C63.9899 89.5851 65.2241 88.3509 66.7408 88.3509C68.2574 88.3509 69.4916 89.5851 69.4916 91.1017C69.4916 92.6183 68.2574 93.8526 66.7408 93.8526Z" fill="#35AA0C"/>
<path d="M97 57.1747H83.2944C80.1043 57.1747 77.0683 58.7087 75.1757 61.278L65.3176 74.6563L59.9076 75.3779C57.0284 75.7621 54.5627 77.3595 52.9874 79.606V57.6102C55.2623 56.0844 56.6552 53.5059 56.6552 50.756C56.6552 47.7814 55.0743 45.0177 52.5298 43.5442L51.4221 42.9023L50.3291 48.3701L48.4017 49.6538L46.4752 48.3701L45.3822 42.9023L44.2745 43.5442C41.73 45.0177 40.1492 47.7814 40.1492 50.756C40.1492 53.5059 41.542 56.0853 43.817 57.6102V80.6522C41.542 82.178 40.1492 84.7565 40.1492 87.5064C40.1492 90.481 41.73 93.2447 44.2745 94.7182L45.3822 95.3601L46.4752 89.8923L48.4017 88.6086L49.8056 89.5448C49.5002 89.9877 49.3187 90.5232 49.3187 91.1018V92.9357C49.3187 94.4523 50.5529 95.6865 52.0695 95.6865H59.8837C61.3664 97.8964 63.8862 99.3543 66.7407 99.3543C69.5951 99.3543 72.1158 97.8964 73.5976 95.6865H97V57.1747ZM66.3308 76.371L76.6511 62.3655C78.1998 60.2639 80.6838 59.0086 83.2944 59.0086H95.1661V60.8425H83.7354C81.9895 60.8425 80.3308 61.6833 79.2983 63.0908L74.5953 69.504C72.1553 70.4126 70.4085 72.76 70.4085 75.5136V76.4306V83.7203C69.3017 83.1674 68.0593 82.8492 66.7407 82.8492C63.1554 82.8492 60.1056 85.1508 58.9695 88.3509H52.9865V85.6001V85.3754C52.9865 84.9023 53.0314 84.4383 53.1102 83.9844C53.9117 84.4264 54.8038 84.6831 55.7373 84.6831C58.7715 84.6831 61.239 82.2156 61.239 79.1814C61.239 78.4616 61.0804 77.7657 60.8053 77.1082L66.3308 76.371ZM76.8271 70.9289H77.7441C78.7555 70.9289 79.578 71.7514 79.578 72.7628C79.578 73.7742 78.7555 74.5967 77.7441 74.5967H75.9102H72.335C72.7605 72.507 74.6127 70.9289 76.8271 70.9289ZM77.7441 69.095H77.1691L80.7773 64.1746C81.466 63.2366 82.5718 62.6763 83.7354 62.6763H95.1661V74.5967H80.902C81.2175 74.0548 81.4119 73.434 81.4119 72.7628C81.4119 70.74 79.7669 69.095 77.7441 69.095ZM58.9549 77.4539C59.2501 77.9894 59.4051 78.5762 59.4051 79.1814C59.4051 81.2042 57.7601 82.8492 55.7373 82.8492C54.9799 82.8492 54.2583 82.6081 53.6448 82.1762C54.604 79.9177 56.5405 78.1526 58.9549 77.4539ZM44.8265 88.7883L44.1159 92.3433C42.7762 91.1293 41.9831 89.3715 41.9831 87.5064C41.9831 85.2287 43.2136 83.1005 45.1933 81.9534L45.6509 81.6884V56.5731L45.1933 56.3081C43.2136 55.162 41.9831 53.0337 41.9831 50.756C41.9831 48.8909 42.7762 47.1331 44.115 45.9191L44.8256 49.4741L48.4008 51.8582L51.976 49.4741L52.6866 45.9191C54.0272 47.1331 54.8204 48.8909 54.8204 50.756C54.8204 53.0337 53.5898 55.162 51.6101 56.3091L51.1526 56.5741V85.3763V85.6001V88.2381L48.4017 86.4042L44.8265 88.7883ZM52.0695 93.8526C51.5633 93.8526 51.1526 93.4409 51.1526 92.9357V91.1018C51.1526 90.5965 51.5633 90.1848 52.0695 90.1848H58.5422C58.5083 90.4865 58.4881 90.7918 58.4881 91.1018C58.4881 92.0673 58.6633 92.9907 58.9695 93.8526H52.0695ZM66.7407 97.5204C63.2022 97.5204 60.322 94.6412 60.322 91.1018C60.322 87.5623 63.2022 84.6831 66.7407 84.6831C70.2792 84.6831 73.1593 87.5623 73.1593 91.1018C73.1593 94.6412 70.2792 97.5204 66.7407 97.5204ZM74.5118 93.8526C74.8181 92.9907 74.9932 92.0673 74.9932 91.1018C74.9932 88.6663 73.9259 86.4803 72.2424 84.9683V76.4306H75.9102H77.7441H95.1661V93.8526H74.5118Z" fill="#35AA0C"/>
<path d="M85.9966 81.0153C85.9966 82.5319 87.2308 83.7661 88.7474 83.7661H90.5813C92.098 83.7661 93.3322 82.5319 93.3322 81.0153V78.2644H85.9966V81.0153ZM87.8305 80.0983H91.4983V81.0153C91.4983 81.5205 91.0875 81.9322 90.5813 81.9322H88.7474C88.2413 81.9322 87.8305 81.5205 87.8305 81.0153V80.0983Z" fill="#35AA0C"/>
<path d="M63.0728 57.1746H65.444L69.3796 61.1101C69.7913 61.5228 70.3616 61.7593 70.9457 61.7593C72.1662 61.7593 73.1592 60.7663 73.1592 59.5458V57.1746H75.9101C78.4381 57.1746 80.4948 55.1179 80.4948 52.5899V47.0882C80.4948 44.5601 78.4381 42.5034 75.9101 42.5034H63.0728C60.5448 42.5034 58.488 44.5601 58.488 47.0882V52.5899C58.488 55.1179 60.5448 57.1746 63.0728 57.1746ZM60.3219 47.0882C60.3219 45.5715 61.5561 44.3373 63.0728 44.3373H75.9101C77.4267 44.3373 78.6609 45.5715 78.6609 47.0882V52.5899C78.6609 54.1065 77.4267 55.3407 75.9101 55.3407H71.3253V59.5458C71.3253 59.8558 70.8953 60.0336 70.677 59.8145L66.2032 55.3407H63.0728C61.5561 55.3407 60.3219 54.1065 60.3219 52.5899V47.0882Z" fill="#35AA0C"/>
<path d="M75.6413 46.8195L74.3447 45.5229L67.6574 52.2103L65.5549 50.1077L64.2583 51.4043L67.6574 54.8034L75.6413 46.8195Z" fill="#35AA0C"/>
<path d="M47.4846 56.2577H49.3185V58.0916H47.4846V56.2577Z" fill="#35AA0C"/>
<path d="M47.4846 59.9254H49.3185V61.7593H47.4846V59.9254Z" fill="#35AA0C"/>
<path d="M47.4846 63.5931H49.3185V65.427H47.4846V63.5931Z" fill="#35AA0C"/>
<path d="M76.8271 90.1848H78.661V92.0187H76.8271V90.1848Z" fill="#35AA0C"/>
<path d="M80.4949 90.1848H82.3288V92.0187H80.4949V90.1848Z" fill="#35AA0C"/>
<path d="M84.1628 90.1848H85.9967V92.0187H84.1628V90.1848Z" fill="#35AA0C"/>
</svg>
