<svg width="143" height="144" viewBox="0 0 143 144" fill="none" xmlns="http://www.w3.org/2000/svg">
<circle cx="71.4997" cy="71.7846" r="71.5002" fill="#EEF3FF"/>
<path d="M70.5694 35.9506C69.5815 36.9506 68.6379 38.8177 68.3149 40.3874C68.1059 41.4064 68.0679 42.033 68.1059 43.7736C68.1629 46.2736 68.4289 54.046 68.6632 60.1664C68.8469 64.9893 68.3719 68.9008 67.2193 72.0971C66.7824 73.2997 66.4214 74.0212 66.0414 74.4643C65.0409 75.6099 63.9959 77.1922 63.2867 78.629C62.0454 81.1543 61.3932 83.8063 61.2728 86.8191L61.2285 87.8571L63.0904 87.8444L64.9522 87.8254L64.9902 86.876C65.0409 85.8 65.3322 83.7873 65.6108 82.6354C66.1301 80.4961 67.0357 78.5657 68.3149 76.8441C68.8469 76.1352 70.2021 74.7364 70.7024 74.3883L71.0063 74.1731L71.7409 74.8947C74.1284 77.2365 75.7939 80.1543 76.4715 83.1797C76.6932 84.1861 76.9528 86.0912 76.9971 87.0532L77.0351 87.8571L78.878 87.8444L80.7208 87.8254L80.7018 87.0026C80.6575 84.5532 80.1445 82.1291 79.2073 79.8505C78.4727 78.0846 77.1808 75.9896 75.9459 74.5719C75.7559 74.3504 75.5469 74.0339 75.4836 73.8757C75.4266 73.7174 75.262 73.306 75.1226 72.9642C74.312 70.9958 73.7104 68.5211 73.4445 66.021C73.1975 63.7361 73.1658 61.8563 73.3115 58.3309C73.3621 57.0777 73.4635 54.2992 73.5331 52.1599C73.6028 50.0206 73.7041 46.9889 73.7611 45.4255C73.8688 42.3432 73.8371 41.5647 73.5901 40.3937C73.2291 38.7355 72.3869 37.0645 71.3736 35.9949L70.9557 35.5582L70.5694 35.9506Z" fill="#35AA0C"/>
<path d="M50.0383 67.4767V92.4141H55.8202H61.6083L61.7856 93.0913C62.3429 95.2496 63.4132 97.4332 64.8064 99.2687C66.2629 101.187 68.3654 103.066 70.3792 104.269L70.9872 104.63L71.6331 104.263C73.7546 103.041 75.7811 101.231 77.32 99.1675C78.0419 98.2117 78.4725 97.4902 79.0172 96.3699C79.5808 95.2053 79.8594 94.4585 80.1634 93.3002L80.3914 92.4141H86.1795H91.9614V67.4767V42.5393H91.8347C91.4294 42.5393 89.5422 43.8305 88.111 45.0964C85.9832 46.9698 84.0137 49.6218 82.7472 52.3117C81.5503 54.8498 80.7713 57.7739 80.4737 60.8626C80.1761 63.8627 80.0937 64.6412 79.8658 66.4957C79.6188 68.5211 79.3971 70.4515 79.1818 72.5465L79.0678 73.6668L79.7708 73.6921C80.5624 73.7237 80.9487 73.8377 81.5883 74.2237C82.8485 74.9896 83.5388 76.2934 83.3488 77.5213C83.1778 78.6036 82.4369 79.4771 81.0183 80.2619C80.8727 80.3442 80.765 80.4454 80.7777 80.4771C80.955 80.8885 81.4236 82.6164 81.5819 83.4075C81.6199 83.6291 81.6769 83.8063 81.7023 83.8063C81.8036 83.8063 82.8928 83.3442 83.2221 83.1607C84.723 82.3126 85.7806 81.148 86.3695 79.6922C86.7558 78.7492 86.8571 78.1859 86.8635 77.0339C86.8635 75.7744 86.7558 75.2871 86.2365 74.2174C85.6476 73.0085 84.8497 72.1098 83.7098 71.3566C83.2411 71.0464 83.0575 70.8882 82.9941 70.73C82.9118 70.5401 82.9372 70.2679 83.2221 67.9704C83.5451 65.3501 83.7731 63.2741 83.9504 61.4955C84.0011 60.9386 84.1087 60.1284 84.1784 59.6917C84.5773 57.1916 85.6159 54.2865 86.8508 52.2231C87.2941 51.4826 88.339 49.8813 88.3833 49.8813C88.4023 49.8813 88.415 58.736 88.415 69.5654V89.2495H81.2906H74.1662V90.8318V92.4141H75.3251C75.9648 92.4141 76.503 92.4331 76.522 92.4521C76.579 92.5091 76.2181 93.8002 75.9394 94.5471C75.4011 95.9712 74.5525 97.4206 73.5456 98.6168C73.267 98.9459 72.982 99.2751 72.906 99.3384L72.773 99.4586L72.7857 93.9585L72.8047 88.4583L73.02 88.0216C73.419 87.2051 74.3182 86.5089 75.3885 86.1734C75.6798 86.0848 75.7494 86.0342 75.7494 85.9266C75.7494 85.4329 75.3441 83.0088 75.2428 82.8949C75.1795 82.8316 74.4512 83.0658 73.9699 83.3063C73.4886 83.5468 72.4437 84.2557 71.6458 84.8759L70.9935 85.3886L70.2526 84.8063C69.4167 84.1544 68.5364 83.5594 68.0234 83.2999C67.5422 83.0594 66.8202 82.8316 66.7569 82.8949C66.6556 83.0025 66.1996 85.6987 66.2376 86.0025C66.2376 86.0215 66.4592 86.1228 66.7252 86.2177C67.8335 86.6228 68.5934 87.2304 68.9797 88.0216L69.195 88.4583L69.2077 93.9331L69.2267 99.408L68.8087 98.9776C68.0488 98.1864 67.1748 96.9142 66.6049 95.7813C66.1236 94.8192 65.3573 92.566 65.4777 92.4521C65.4967 92.4331 66.0349 92.4141 66.6746 92.4141H67.8335V90.8318V89.2495H60.7091H53.5847V69.5654C53.5847 58.736 53.5974 49.8813 53.61 49.8813C53.648 49.8813 54.6929 51.5016 55.1679 52.2864C56.0608 53.7612 56.9537 55.9827 57.4477 57.9511C57.7327 59.0841 57.929 60.3879 58.1443 62.5399C58.252 63.6032 58.4799 65.6349 58.6573 67.0653C58.8346 68.4894 58.9929 69.9008 59.0056 70.1983C59.0436 70.8502 59.0436 70.8502 58.2076 71.4072C56.0798 72.8186 54.8322 75.3124 55.1046 77.6162C55.4402 80.5214 57.0297 82.5594 59.7782 83.6164C60.0441 83.724 60.2784 83.8063 60.2974 83.8063C60.3164 83.8063 60.3734 83.5848 60.4178 83.3126C60.5128 82.743 60.8674 81.3442 61.0574 80.8062C61.127 80.5973 61.184 80.4264 61.184 80.4138C61.184 80.4075 60.9497 80.2556 60.6647 80.0783C59.1765 79.1796 58.6066 78.3378 58.6256 77.0656C58.6383 76.1225 58.9612 75.4453 59.6958 74.7681C60.5191 74.0212 61.184 73.7364 62.2163 73.6921C62.8306 73.6668 62.8939 73.6541 62.8939 73.5465C62.8939 73.2997 62.4379 69.1603 62.1656 66.9071C61.8173 64.0209 61.716 63.1222 61.5957 61.6854C61.355 58.9702 60.9814 57.0461 60.2658 54.9131C58.7142 50.2547 55.8645 46.3685 51.9508 43.571C51.1782 43.0204 50.3613 42.5393 50.184 42.5393H50.0383V67.4767Z" fill="#35AA0C"/>
</svg>
