<svg width="143" height="144" viewBox="0 0 143 144" fill="none" xmlns="http://www.w3.org/2000/svg">
<circle cx="71.4997" cy="71.8127" r="71.5002" fill="#EEF3FF"/>
<path d="M72.706 68.5352H70.2935C69.6274 68.5352 69.0874 69.0751 69.0874 69.7413C69.0874 70.4075 69.6274 70.9474 70.2935 70.9474H72.706C73.3722 70.9474 73.9121 70.4075 73.9121 69.7413C73.9121 69.0751 73.3722 68.5352 72.706 68.5352Z" fill="#35AA0C"/>
<path d="M73.9124 73.3596H69.0877C68.4216 73.3596 67.8816 73.8997 67.8816 74.5658C67.8816 75.2319 68.4216 75.7719 69.0877 75.7719H73.9124C74.5786 75.7719 75.1186 75.2318 75.1186 74.5658C75.1186 73.8997 74.5786 73.3596 73.9124 73.3596Z" fill="#35AA0C"/>
<path d="M67.8817 60.0916H63.057C62.3908 60.0916 61.8508 60.6315 61.8508 61.2977C61.8508 61.9639 62.3908 62.5038 63.057 62.5038H64.2631V63.71C64.2631 64.3762 64.8032 64.9161 65.4693 64.9161C66.1354 64.9161 66.6754 64.3762 66.6754 63.71V62.5038H67.8815C68.5477 62.5038 69.0877 61.9639 69.0877 61.2977C69.0877 60.6315 68.5479 60.0916 67.8817 60.0916Z" fill="#35AA0C"/>
<path d="M79.943 60.0916H75.1182C74.4521 60.0916 73.9121 60.6315 73.9121 61.2977C73.9121 61.9639 74.4521 62.5038 75.1182 62.5038H76.3244V63.71C76.3244 64.3762 76.8644 64.9161 77.5305 64.9161C78.1967 64.9161 78.7367 64.3762 78.7367 63.71V62.5038H79.9428C80.609 62.5038 81.149 61.9639 81.149 61.2977C81.149 60.6315 80.6091 60.0916 79.943 60.0916Z" fill="#35AA0C"/>
<path d="M100.596 101.208L98.9845 96.1832C98.2458 94.2171 97.096 92.4313 95.6121 90.945C94.6153 90.0818 93.5624 89.2857 92.46 88.5621L92.3469 88.4891C91.8586 88.2089 91.3525 87.9607 90.8321 87.7458C89.0672 87.022 87.1795 86.6449 85.2721 86.635L81.3014 82.6653C81.2984 81.5882 81.3619 80.5121 81.4912 79.4428C81.6419 78.1658 81.8568 76.8972 82.1352 75.6419C83.629 74.0066 84.5504 71.9296 84.7598 69.7247C84.9122 69.7686 85.0691 69.7948 85.2274 69.8027C85.4474 69.8024 85.6657 69.7661 85.8741 69.6955C86.496 69.4882 88.3866 68.858 88.3866 61.2982C88.3866 60.4854 88.3866 58.0129 86.7222 57.2662C86.455 57.15 86.1668 57.0904 85.8755 57.0909C86.0601 55.7508 85.9856 54.3876 85.6563 53.0756C88.9671 50.949 90.799 48.1668 90.799 45.1878C90.799 38.7007 82.3217 33.6191 71.5 33.6191C60.6784 33.6191 52.2011 38.7007 52.2011 45.1875C52.2011 48.1662 54.033 50.9474 57.3407 53.0787C57.0139 54.3901 56.9407 55.7518 57.125 57.0906C56.8335 57.0896 56.545 57.1493 56.2779 57.2659C54.6135 58.0127 54.6135 60.4852 54.6135 61.2979C54.6135 68.8578 56.5041 69.4879 57.126 69.6953C57.3343 69.7659 57.5527 69.8021 57.7727 69.8024C57.931 69.7945 58.088 69.7683 58.2403 69.7244C58.4497 71.9294 59.3709 74.0064 60.865 75.6416C61.144 76.8992 61.3589 78.1701 61.509 79.4496C61.6385 80.5165 61.7018 81.5903 61.6988 82.665L57.7283 86.6347C55.8195 86.6447 53.9306 87.0223 52.1647 87.7468C51.6456 87.9615 51.1408 88.2095 50.6534 88.4889L50.5403 88.562C49.4397 89.285 48.3879 90.0798 47.3918 90.9413C45.8911 92.4412 44.7328 94.2484 43.997 96.2384L42.4032 101.21C41.797 103.117 42.851 105.154 44.7576 105.76C45.1131 105.873 45.4838 105.931 45.8568 105.93H69.9171C70.0388 105.97 70.166 105.99 70.294 105.99H72.7065C72.8276 105.99 72.9478 105.97 73.0623 105.93H97.1437C99.1439 105.932 100.766 104.311 100.767 102.311C100.767 101.936 100.71 101.565 100.596 101.208ZM82.9931 87.7693L81.043 89.4384C79.6659 88.5788 78.1786 87.9099 76.6217 87.45L79.881 84.6559L82.9931 87.7693ZM73.6336 86.834C72.2163 86.6641 70.7837 86.6641 69.3664 86.8337L64.1052 82.3222C64.0958 81.2692 64.029 80.2174 63.9049 79.1715C63.8922 79.0587 63.8698 78.9411 63.856 78.8279C64.5845 79.5043 65.3572 80.1894 66.2266 80.8937C69.2996 83.3853 73.6971 83.3863 76.7713 80.8961C77.6411 80.1915 78.4142 79.5058 79.1431 78.829C79.1296 78.9393 79.1077 79.0548 79.0952 79.1646C78.9713 80.2127 78.9044 81.2669 78.8949 82.3224L73.6336 86.834ZM85.7247 59.5134C85.9337 60.0837 86.0188 60.6921 85.9745 61.2979C85.9745 65.0744 85.4491 66.7646 85.1487 67.2876C84.9584 67.1207 84.7856 66.9348 84.6326 66.7331C84.5632 64.3853 84.7946 62.0382 85.321 59.749C85.4443 59.6526 85.5801 59.5733 85.7247 59.5134ZM54.6134 45.1875C54.6134 40.225 62.3463 36.0316 71.5 36.0316C80.6537 36.0316 88.3867 40.225 88.3867 45.1875C88.3385 46.5856 87.7874 47.9195 86.8346 48.9438C86.939 48.8279 87.0233 48.6954 87.0841 48.5517C87.2128 48.2598 87.2128 47.9272 87.0841 47.6353C87.023 47.489 86.9373 47.3544 86.8308 47.2371C86.7732 47.1852 86.7126 47.1369 86.6494 47.0922C86.5824 47.0464 86.5095 47.01 86.4327 46.9838C86.3643 46.9492 86.2914 46.9246 86.216 46.9107C85.6481 46.7818 85.0719 47.0908 84.865 47.6351C84.7362 47.927 84.7362 48.2596 84.865 48.5515C84.9263 48.6977 85.012 48.8322 85.1183 48.9497C85.5929 49.4156 86.3531 49.4163 86.8286 48.9511C86.3072 49.5554 85.7178 50.0976 85.0721 50.5669C84.9741 50.533 84.8719 50.5123 84.7685 50.5056H58.2321C58.1276 50.5123 58.0247 50.5331 57.9258 50.5675C55.7832 48.9893 54.6134 47.1124 54.6134 45.1875ZM82.6338 52.9181C80.868 54.1962 76.8349 55.3305 71.5 55.3305C66.1605 55.3305 62.125 54.1938 60.364 52.9181H82.6338ZM58.3679 66.7328C58.215 66.9347 58.0419 67.1206 57.8515 67.2876C57.5512 66.7646 57.0258 65.0742 57.0258 61.2979C56.9814 60.6921 57.0666 60.0837 57.2754 59.5134C57.4201 59.5746 57.5561 59.6546 57.6799 59.7513C58.2062 62.0396 58.4374 64.3859 58.3679 66.7328ZM60.6443 69.6447C60.6443 69.3785 60.6549 69.1111 60.6762 68.8637C61.0309 65.2245 60.7204 61.5512 59.7598 58.0233C59.5506 57.242 59.4424 56.4373 59.4382 55.6285C59.4382 55.4836 59.4611 55.3438 59.4679 55.2004C62.0364 56.7792 66.4367 57.743 71.5 57.743C76.5639 57.743 80.9649 56.7791 83.5321 55.2016C83.5388 55.3445 83.5619 55.4845 83.5619 55.6286C83.5581 56.4325 83.4511 57.2325 83.2439 58.0093C82.2813 61.5389 81.9696 65.2143 82.3239 68.8555C82.3451 69.1111 82.3557 69.3785 82.3557 69.6447C82.3557 71.9805 79.8326 75.3104 75.2494 79.0233C73.0631 80.7965 69.9335 80.7955 67.7483 79.0208C63.1674 75.3104 60.6443 71.9805 60.6443 69.6447ZM63.1192 84.6561L66.3785 87.4501C64.8217 87.9102 63.3344 88.5789 61.9571 89.4382L60.0071 87.7694L63.1192 84.6561ZM45.8568 103.518C45.4703 103.52 45.1061 103.336 44.8791 103.023C44.6493 102.713 44.583 102.311 44.7013 101.943L46.275 97.0289C46.8931 95.3821 47.8567 93.8868 49.1008 92.6435C49.2044 92.5386 49.5072 92.2912 51.9007 90.555C52.2809 90.3395 52.674 90.1471 53.0774 89.979C54.5718 89.3653 56.1713 89.0478 57.7868 89.0444L59.9267 90.8762C59.5039 91.2295 59.095 91.6005 58.7054 91.9899C55.6172 95.0688 53.7556 99.1668 53.469 103.518H45.8568V103.518ZM60.7162 103.518C61.1313 100.038 63.1944 96.9699 66.2606 95.2726C66.5281 95.1233 66.8059 94.9948 67.0851 94.87L68.8109 103.518H60.7162ZM74.1887 103.518L75.9148 94.8702C76.1954 94.9957 76.475 95.125 76.7453 95.2761C79.8085 96.974 81.8691 100.04 82.2838 103.518H74.1887ZM84.7051 103.518C84.2832 99.159 81.743 95.2869 77.9127 93.1641C77.1018 92.713 76.2443 92.3512 75.3554 92.0851C75.3357 92.0793 75.3165 92.0846 75.2969 92.0799C75.2766 92.075 75.2617 92.061 75.241 92.057C75.1776 92.0521 75.1138 92.0525 75.0503 92.058C74.9747 92.0512 74.8987 92.0516 74.8232 92.0593C74.7432 92.0752 74.6652 92.0996 74.5902 92.1321C74.4431 92.1719 74.3105 92.2535 74.2086 92.3669C74.1519 92.4136 74.0999 92.4658 74.0531 92.5225C74.0075 92.5903 73.969 92.6627 73.9382 92.7385C73.9062 92.7885 73.8783 92.8411 73.8545 92.8955C73.8486 92.9153 73.854 92.9345 73.8493 92.9542C73.8443 92.9744 73.8303 92.9892 73.8264 93.0099L71.7289 103.518H71.2712L69.1737 93.0099C69.1697 92.9895 69.1558 92.9745 69.1508 92.9544C69.1461 92.9347 69.1514 92.9153 69.1456 92.8955C69.1217 92.8404 69.0933 92.7874 69.0608 92.7368C69.0301 92.6619 68.9919 92.5902 68.9468 92.5229C68.8988 92.4647 68.8453 92.4114 68.787 92.3636C68.6846 92.2507 68.5519 92.1698 68.4046 92.1305C68.3311 92.0989 68.2545 92.0748 68.1759 92.0591C68.1006 92.0515 68.0247 92.0511 67.9492 92.0579C67.886 92.0522 67.8225 92.0518 67.7592 92.0569C67.7386 92.0608 67.7236 92.0748 67.7034 92.0798C67.6837 92.0846 67.6645 92.0793 67.6449 92.085C66.758 92.3503 65.9026 92.7109 65.0935 93.1604C61.2601 95.2828 58.7175 99.1565 58.2951 103.518H55.8691C56.1592 99.8057 57.7707 96.3204 60.4111 93.6951C61.0651 93.0414 61.774 92.4452 62.5302 91.913C67.9246 88.1738 75.0727 88.1734 80.4676 91.9117C81.2247 92.444 81.9345 93.0407 82.589 93.6951C85.2295 96.3204 86.8411 99.8057 87.1311 103.518H84.7051V103.518ZM98.121 103.023C97.894 103.336 97.5298 103.52 97.1432 103.518H89.531C89.2443 99.1666 87.3829 95.0685 84.2945 91.9897C83.9052 91.6005 83.4962 91.2297 83.0732 90.8762L85.2133 89.0444C86.8275 89.0478 88.4258 89.3649 89.9191 89.9779C90.3239 90.1462 90.718 90.3389 91.0994 90.555C93.4929 92.2912 93.7956 92.5386 93.9028 92.647C95.13 93.8769 96.0851 95.3509 96.7062 96.9735L98.2975 101.941C98.4172 102.309 98.3514 102.712 98.121 103.023Z" fill="#35AA0C"/>
<path d="M60.2947 44.8248C60.1792 44.716 60.044 44.6301 59.8965 44.5715C59.6054 44.4384 59.271 44.4384 58.9801 44.5715C58.8338 44.6326 58.6992 44.7183 58.5819 44.8248C58.3613 45.0558 58.2363 45.3618 58.2321 45.6813C58.2277 45.8395 58.2608 45.9965 58.3286 46.1395C58.3898 46.2857 58.4755 46.4203 58.5818 46.5377C58.699 46.6443 58.8337 46.73 58.98 46.791C59.4287 46.9835 59.9495 46.8832 60.2947 46.5377C60.401 46.4203 60.4866 46.2857 60.548 46.1395C60.6097 45.9945 60.6425 45.8389 60.6445 45.6813C60.6398 45.3618 60.5149 45.0561 60.2947 44.8248Z" fill="#35AA0C"/>
<path d="M65.1074 44.8249C65.0548 44.7675 64.9936 44.7186 64.9261 44.68C64.8647 44.6321 64.7953 44.5954 64.7211 44.5716C64.649 44.535 64.5714 44.5104 64.4914 44.4985C64.098 44.4198 63.6912 44.5421 63.4065 44.8248C63.1859 45.0557 63.0609 45.3618 63.0567 45.6812C63.0503 46.3409 63.58 46.881 64.2397 46.8874C64.2474 46.8874 64.2551 46.8874 64.2628 46.8874C64.927 46.8827 65.4645 46.3454 65.469 45.6812C65.4653 45.3595 65.3355 45.0519 65.1074 44.8249Z" fill="#35AA0C"/>
<path d="M74.7688 44.825C74.7096 44.7703 74.6449 44.7216 74.5756 44.6801C74.5143 44.6322 74.4449 44.5954 74.3707 44.5717C74.2986 44.5351 74.221 44.5105 74.141 44.4986C73.7476 44.4197 73.3406 44.5421 73.056 44.8248C72.8353 45.0558 72.7104 45.3618 72.7061 45.6813C72.7029 46.0021 72.829 46.3108 73.056 46.5377C73.1733 46.6443 73.3078 46.73 73.4541 46.7909C74.0605 47.0505 74.7625 46.7695 75.0221 46.1631C75.0873 46.0109 75.1201 45.8468 75.1185 45.6813C75.1139 45.362 74.9889 45.0562 74.7688 44.825Z" fill="#35AA0C"/>
<path d="M69.0946 44.468C68.7704 44.4662 68.4593 44.5947 68.2312 44.8248C67.7647 45.3004 67.7647 46.0619 68.2312 46.5375C68.4581 46.7646 68.7668 46.8906 69.0876 46.8874C69.7473 46.8937 70.2874 46.3641 70.2938 45.7044C70.2939 45.6967 70.2939 45.689 70.2938 45.6812C70.2976 45.0151 69.7607 44.4719 69.0946 44.468Z" fill="#35AA0C"/>
<path d="M79.5935 44.8249C79.3046 44.5404 78.8932 44.4181 78.4957 44.4987C78.4202 44.5123 78.3473 44.537 78.279 44.5718C78.2018 44.5978 78.1284 44.6342 78.061 44.6802C77.9981 44.7249 77.9379 44.7732 77.8807 44.8251C77.66 45.056 77.5351 45.3621 77.5308 45.6815C77.5245 46.3412 78.0541 46.8813 78.7138 46.8877C78.7216 46.8877 78.7293 46.8877 78.737 46.8877C78.8946 46.8857 79.0502 46.8529 79.1952 46.7911C79.3414 46.7298 79.4759 46.6441 79.5934 46.5378C79.818 46.3095 79.9437 46.0018 79.9432 45.6815C79.9386 45.3619 79.8136 45.0562 79.5935 44.8249Z" fill="#35AA0C"/>
<path d="M83.569 44.468C83.2449 44.4662 82.9338 44.5947 82.7056 44.8248C82.4828 45.0545 82.3576 45.3612 82.3558 45.6812C82.3525 46.0021 82.4786 46.3108 82.7056 46.5377C82.8228 46.6443 82.9575 46.7299 83.1038 46.7908C83.2487 46.8526 83.4045 46.8855 83.5621 46.8874C84.2217 46.8937 84.7618 46.3641 84.7682 45.7044C84.7682 45.6967 84.7682 45.689 84.7682 45.6812C84.772 45.0151 84.2352 44.4719 83.569 44.468Z" fill="#35AA0C"/>
<path d="M57.8703 47.2371C57.5871 46.9513 57.1783 46.8285 56.7844 46.9109C56.7089 46.9245 56.6359 46.9492 56.5677 46.984C56.4905 47.01 56.4171 47.0465 56.3497 47.0924C56.2868 47.1371 56.2266 47.1854 56.1695 47.2373C56.0604 47.3526 55.9744 47.4878 55.9162 47.6355C55.8544 47.7805 55.8216 47.9361 55.8196 48.0937C55.8133 48.7534 56.3429 49.2935 57.0026 49.2999C57.0104 49.2999 57.018 49.2999 57.0258 49.2999C57.69 49.2952 58.2274 48.7579 58.2319 48.0937C58.2282 47.7717 58.0985 47.4643 57.8703 47.2371Z" fill="#35AA0C"/>
<path d="M62.9603 47.6356C62.8992 47.4893 62.8136 47.3547 62.707 47.2374C62.2235 46.791 61.478 46.791 60.9943 47.2374C60.8851 47.3527 60.7992 47.4878 60.741 47.6356C60.6731 47.7786 60.64 47.9355 60.6444 48.0938C60.6434 48.4143 60.7691 48.7221 60.9943 48.9503C61.4699 49.4167 62.2314 49.4167 62.707 48.9503C62.9316 48.7218 63.0574 48.4143 63.0569 48.0938C63.055 47.9362 63.0222 47.7806 62.9603 47.6356Z" fill="#35AA0C"/>
<path d="M67.532 47.2371C67.4728 47.1824 67.4081 47.1338 67.3388 47.0923C67.2775 47.0443 67.208 47.0076 67.1338 46.9838C67.0618 46.9472 66.9842 46.9226 66.9041 46.9108C66.5108 46.8339 66.1048 46.956 65.8191 47.237C65.71 47.3523 65.6241 47.4875 65.5658 47.6352C65.5041 47.7802 65.4713 47.9358 65.4693 48.0934C65.466 48.4143 65.5921 48.723 65.8191 48.9499C66.2883 49.4228 67.052 49.426 67.525 48.957C67.7551 48.7288 67.8836 48.4176 67.8817 48.0936C67.8771 47.7743 67.7521 47.4685 67.532 47.2371Z" fill="#35AA0C"/>
<path d="M72.6094 47.6355C72.5483 47.4892 72.4626 47.3546 72.3561 47.2373C72.2386 47.131 72.104 47.0454 71.9579 46.984C71.5088 46.7943 70.9898 46.8944 70.6433 47.2373C70.5342 47.3527 70.4483 47.4878 70.39 47.6355C70.3222 47.7784 70.2891 47.9354 70.2936 48.0936C70.2926 48.414 70.4183 48.7219 70.6435 48.95C71.1085 49.4247 71.8702 49.4325 72.3449 48.9674C72.6991 48.6203 72.8041 48.0915 72.6094 47.6355Z" fill="#35AA0C"/>
<path d="M76.3249 46.8877C75.6587 46.8877 75.1187 47.4277 75.1187 48.0938C75.1155 48.4147 75.2415 48.7234 75.4686 48.9503C75.9377 49.4232 76.7014 49.4263 77.1744 48.9573C77.4045 48.7292 77.5331 48.418 77.5311 48.094C77.531 47.4277 76.9909 46.8877 76.3249 46.8877Z" fill="#35AA0C"/>
<path d="M81.1566 46.8804C80.8325 46.8786 80.5214 47.007 80.2933 47.2372C80.0705 47.4669 79.9453 47.7736 79.9434 48.0936C79.9402 48.4145 80.0663 48.7232 80.2933 48.95C80.7624 49.423 81.5261 49.4261 81.9991 48.9571C82.2292 48.729 82.3577 48.4177 82.3558 48.0937C82.3597 47.4274 81.8227 46.8843 81.1566 46.8804Z" fill="#35AA0C"/>
</svg>
