<svg width="143" height="144" viewBox="0 0 143 144" fill="none" xmlns="http://www.w3.org/2000/svg">
<circle cx="71.4997" cy="71.7846" r="71.5002" fill="#EEF3FF"/>
<path d="M52.103 87.5155L52.1042 87.5144C51.2223 87.4444 50.3496 87.7353 49.686 88.3204C48.2976 89.5246 48.1482 91.6263 49.3524 93.0147C49.9307 93.6816 50.7503 94.0914 51.6309 94.1538C51.7115 94.1596 51.7921 94.1619 51.8727 94.1619C53.7106 94.1527 55.193 92.6555 55.1838 90.8176C55.1752 89.0818 53.834 87.6442 52.103 87.5155ZM52.8941 90.9032L52.8895 90.9067C52.8723 91.1771 52.748 91.4296 52.544 91.6079C52.3372 91.7831 52.0708 91.8717 51.8002 91.8555C51.2356 91.8149 50.8106 91.3249 50.8502 90.7604C50.8888 90.225 51.3335 89.8097 51.8704 89.8081H51.9441C52.5086 89.8486 52.9337 90.3385 52.8941 90.9032Z" fill="#35AA0C"/>
<path d="M93.5564 87.5156L93.5575 87.5145C92.6755 87.4441 91.8028 87.735 91.1394 88.3205C89.751 89.5247 89.6016 91.6264 90.8058 93.0149C91.3841 93.6817 92.2037 94.0915 93.0843 94.154C93.1649 94.1597 93.2455 94.162 93.3261 94.162C95.164 94.1528 96.6464 92.6556 96.6372 90.8177C96.6285 89.082 95.2873 87.6443 93.5564 87.5156ZM94.3474 90.9033L94.3428 90.9068C94.3257 91.1772 94.2013 91.4297 93.9974 91.608C93.7903 91.7829 93.524 91.8714 93.2535 91.8556C92.689 91.815 92.264 91.325 92.3036 90.7605C92.3421 90.2251 92.7869 89.8098 93.3238 89.8083H93.3975C93.962 89.8487 94.387 90.3387 94.3474 90.9033Z" fill="#35AA0C"/>
<path d="M72.6512 80.2682H68.0453C67.4094 80.2682 66.8938 80.7838 66.8938 81.4197C66.8938 82.0556 67.4094 82.5712 68.0453 82.5712H72.6512C73.2871 82.5712 73.8027 82.0556 73.8027 81.4197C73.8027 80.7838 73.2871 80.2682 72.6512 80.2682Z" fill="#35AA0C"/>
<path d="M100.287 75.6623H99.6891L92.8953 67.1724C91.3696 65.2562 89.052 64.142 86.6025 64.1475H78.4085V61.8445H84.1659C89.8508 61.8369 95.0408 58.6098 97.5623 53.5147C97.7938 53.3267 97.9426 53.0555 97.9768 52.7593C97.9755 52.7281 97.9724 52.697 97.9676 52.666C98.7398 50.8331 99.1368 48.8641 99.1352 46.8752V39.9663C99.1345 39.8153 99.1044 39.6659 99.0466 39.5264C98.8687 39.0962 98.4492 38.8154 97.9837 38.8148H91.0748C89.1006 38.8134 87.1458 39.2047 85.3243 39.9663C85.166 39.9643 85.0091 39.9957 84.8637 40.0584C84.7015 40.1318 84.5587 40.2422 84.4469 40.3808C80.5408 42.3202 77.6714 45.8629 76.5857 50.0867C73.9642 45.2716 68.9217 42.2732 63.4392 42.2693H58.8333H58.8149C58.72 42.276 58.6263 42.295 58.5362 42.3257C58.4821 42.3343 58.4285 42.3466 58.3762 42.3625C58.3308 42.3887 58.2873 42.418 58.246 42.4501C58.1595 42.4963 58.0795 42.5535 58.0077 42.6205L57.9939 42.6297C57.9626 42.6729 57.9346 42.7184 57.9098 42.7656C57.8525 42.8358 57.8044 42.9132 57.767 42.9959C57.739 43.0806 57.7212 43.1683 57.7141 43.2572C57.6991 43.3108 57.6883 43.3655 57.6818 43.4208V46.8752C57.6843 51.0207 59.4112 54.9783 62.449 57.7993C62.569 58.0131 62.7554 58.1821 62.9798 58.2807C65.6767 60.5818 69.106 61.8455 72.6511 61.8445H76.1056V64.1475H65.3645C63.0811 64.1498 60.9055 65.1192 59.3768 66.8155L51.3417 75.7441L41.766 77.34C38.9859 77.7956 36.9475 80.2019 36.9551 83.0191V90.6316C36.9551 91.2675 37.4707 91.7831 38.1066 91.7831H43.9561C44.5881 96.1838 48.668 99.2389 53.0688 98.6069C56.6059 98.099 59.3847 95.32 59.8927 91.7831H85.4095C86.0416 96.1838 90.1214 99.2389 94.5222 98.6069C98.0593 98.099 100.838 95.32 101.346 91.7831H104.893C105.529 91.7831 106.044 91.2675 106.044 90.6316V81.4197C106.04 78.2415 103.465 75.666 100.287 75.6623ZM84.1659 59.5415H80.0367L86.8915 52.6868L94.8943 53.5757C92.5869 57.2819 88.5318 59.5368 84.1659 59.5415ZM96.8323 46.8752C96.8298 48.4158 96.5441 49.9426 95.9894 51.3798L88.9768 50.6014L96.8323 42.746V46.8752ZM91.0748 41.1178H95.2041L89.1599 47.1619L86.8823 41.8455C88.2284 41.3667 89.6461 41.1205 91.0748 41.1178ZM84.7877 42.8036L87.4062 48.9145L83.4025 52.9193L80.6804 46.5666C81.7555 45.0248 83.158 43.7399 84.7877 42.8036ZM78.4085 53.7841C78.4105 52.2043 78.7101 50.639 79.2917 49.1701L81.6488 54.6719L78.4085 57.9133V53.7841ZM51.9244 96.389C48.7447 96.389 46.167 93.8113 46.167 90.6316C46.167 87.4519 48.7447 84.8742 51.9244 84.8742C55.1041 84.8742 57.6818 87.4519 57.6818 90.6316C57.6781 93.8097 55.1026 96.3851 51.9244 96.389ZM76.1056 89.4801H59.903C59.8904 89.3914 59.8685 89.3062 59.8524 89.2187C59.8328 89.1036 59.8144 89 59.7902 88.8917C59.7579 88.7455 59.7188 88.6027 59.675 88.4587C59.6474 88.3574 59.6209 88.2549 59.5887 88.1559C59.5403 88.0062 59.4839 87.8611 59.4275 87.716C59.3918 87.6262 59.3607 87.5364 59.3238 87.4489C59.2524 87.2842 59.1718 87.1242 59.0935 86.9653C59.0613 86.9019 59.0337 86.8363 58.9991 86.7741C58.8809 86.5569 58.7523 86.3453 58.6134 86.1397C58.5823 86.0936 58.5466 86.0522 58.5155 86.0061C58.4003 85.8483 58.2852 85.6929 58.17 85.5455C58.1136 85.4764 58.0549 85.4119 57.9939 85.344C57.8891 85.2288 57.7854 85.1056 57.6749 84.9985C57.6047 84.9272 57.531 84.8604 57.4573 84.7924C57.3502 84.6911 57.2431 84.5898 57.1302 84.4942C57.0508 84.4263 56.9679 84.3629 56.885 84.2984C56.7698 84.2098 56.6547 84.1234 56.5395 84.0405C56.452 83.9795 56.3634 83.9254 56.2724 83.8632C56.1572 83.786 56.0317 83.7112 55.9074 83.6409C55.8141 83.5868 55.7197 83.5362 55.6241 83.4855C55.4963 83.4199 55.3673 83.3577 55.2361 83.299C55.1382 83.254 55.0403 83.2103 54.9413 83.17C54.8054 83.1147 54.6661 83.0663 54.5267 83.018C54.4266 82.9834 54.3275 82.9477 54.2251 82.9178C54.0777 82.8741 53.928 82.8384 53.7783 82.8027C53.6793 82.7796 53.5825 82.7531 53.4823 82.7336C53.3142 82.7002 53.1369 82.6772 52.9699 82.6553C52.8847 82.6438 52.8007 82.6276 52.7143 82.6196C52.4541 82.5862 52.1904 82.5712 51.9244 82.5712C51.6584 82.5712 51.3947 82.5862 51.1356 82.6115C51.0493 82.6196 50.9652 82.6357 50.88 82.6472C50.7073 82.6691 50.5345 82.6921 50.3676 82.7255C50.2674 82.7451 50.1707 82.7716 50.0717 82.7946C49.922 82.8303 49.7723 82.866 49.6249 82.9097C49.5224 82.9397 49.4234 82.9754 49.3232 83.0099C49.1839 83.0583 49.0445 83.1067 48.9087 83.1619C48.8096 83.2022 48.7117 83.246 48.6139 83.2909C48.4826 83.3496 48.3536 83.406 48.2258 83.4774C48.1302 83.5281 48.0358 83.5788 47.9426 83.6329C47.8182 83.7031 47.6973 83.778 47.5775 83.8551C47.4866 83.9127 47.3979 83.9703 47.3104 84.0324C47.1952 84.1154 47.0801 84.2017 46.9649 84.2904C46.882 84.3549 46.7991 84.4182 46.7197 84.4861C46.6045 84.5817 46.4997 84.683 46.3927 84.7844C46.319 84.8523 46.2453 84.9191 46.175 84.9905C46.0599 85.1056 45.9609 85.2208 45.8561 85.3359C45.7973 85.4039 45.7409 85.4683 45.6799 85.5374C45.5578 85.6871 45.4438 85.8426 45.3344 85.998C45.3034 86.0441 45.2677 86.0855 45.2366 86.1316C45.0984 86.3366 44.9699 86.548 44.8508 86.7661C44.8163 86.8283 44.7886 86.8939 44.7564 86.9572C44.6746 87.1161 44.594 87.2762 44.5261 87.4408C44.4893 87.5284 44.4582 87.6182 44.4225 87.708C44.3661 87.8531 44.3073 87.9982 44.2613 88.1479C44.229 88.2469 44.2025 88.3494 44.1749 88.4507C44.1346 88.5946 44.0955 88.7374 44.0598 88.8836C44.0356 88.9919 44.0172 89.1001 43.9976 89.2107C43.9815 89.2982 43.9596 89.3834 43.9469 89.4721H39.2581V83.0191C39.2535 81.3288 40.4766 79.8849 42.1448 79.6119L52.02 77.9653H76.1056V89.4801ZM76.1056 75.6623H54.5106L61.0856 68.3561C62.1781 67.1442 63.7329 66.4517 65.3645 66.4504H76.1056V75.6623ZM63.4392 44.5722C64.6078 44.5751 65.7704 44.7402 66.8937 45.0628V49.3993L61.7454 44.5722H63.4392ZM59.9848 46.8752V46.0784L68.7176 54.2654L63.7847 55.9086C61.3533 53.5319 59.9833 50.2751 59.9848 46.8752ZM72.6511 59.5415C70.2841 59.5405 67.9654 58.8711 65.9621 57.6105L70.6268 56.056L74.3449 59.5415H72.6511ZM76.1056 58.0354L69.184 51.5456C69.184 51.5226 69.1966 51.5042 69.1966 51.4811V45.9701C73.4322 48.1316 76.1004 52.4834 76.1056 57.2386V58.0354ZM78.4085 66.4504H86.6025C88.3527 66.4463 90.009 67.2424 91.099 68.6118L96.739 75.6623H78.4085V66.4504ZM93.3778 96.389C90.1981 96.389 87.6204 93.8113 87.6204 90.6316C87.6204 87.4519 90.1981 84.8742 93.3778 84.8742C96.5575 84.8742 99.1352 87.4519 99.1352 90.6316C99.1315 93.8097 96.556 96.3851 93.3778 96.389ZM103.741 89.4801H101.356C101.344 89.3914 101.322 89.3062 101.306 89.2187C101.286 89.1036 101.268 89 101.244 88.8917C101.211 88.7455 101.172 88.6027 101.128 88.4587C101.101 88.3574 101.074 88.2549 101.042 88.1559C100.994 88.0062 100.937 87.8611 100.881 87.716C100.845 87.6262 100.814 87.5364 100.777 87.4489C100.706 87.2842 100.625 87.1242 100.547 86.9653C100.515 86.9019 100.487 86.8363 100.453 86.7741C100.333 86.5569 100.205 86.3453 100.067 86.1397C100.036 86.0936 100 86.0522 99.9689 86.0061C99.8538 85.8483 99.7386 85.6929 99.6235 85.5455C99.567 85.4764 99.5083 85.4119 99.4473 85.344C99.3425 85.2288 99.2389 85.1056 99.1283 84.9985C99.0581 84.9272 98.9844 84.8604 98.9107 84.7924C98.8036 84.6911 98.6965 84.5898 98.5837 84.4942C98.5042 84.4263 98.4213 84.3629 98.3384 84.2984C98.2233 84.2098 98.1081 84.1234 97.993 84.0405C97.9054 83.9795 97.8168 83.9254 97.7258 83.8632C97.6107 83.786 97.4852 83.7112 97.3608 83.6409C97.2675 83.5868 97.1731 83.5362 97.0775 83.4855C96.9497 83.4199 96.8207 83.3577 96.6895 83.299C96.5916 83.254 96.4937 83.2103 96.3947 83.17C96.2588 83.1147 96.1195 83.0663 95.9802 83.018C95.88 82.9834 95.781 82.9477 95.6785 82.9178C95.5311 82.8741 95.3814 82.8384 95.2317 82.8027C95.1327 82.7796 95.0359 82.7531 94.9358 82.7336C94.7677 82.7002 94.5961 82.6772 94.4234 82.6553C94.3382 82.6438 94.2541 82.6276 94.1677 82.6196C93.9075 82.5862 93.6438 82.5712 93.3778 82.5712C93.1118 82.5712 92.8481 82.5862 92.589 82.6115C92.5027 82.6196 92.4186 82.6357 92.3334 82.6472C92.1607 82.6691 91.988 82.6921 91.821 82.7255C91.7208 82.7451 91.6241 82.7716 91.5251 82.7946C91.3754 82.8303 91.2257 82.866 91.0783 82.9097C90.9758 82.9397 90.8768 82.9754 90.7766 83.0099C90.6373 83.0583 90.498 83.1067 90.3621 83.1619C90.263 83.2022 90.1652 83.246 90.0673 83.2909C89.936 83.3496 89.8071 83.406 89.6792 83.4774C89.5837 83.5281 89.4893 83.5788 89.396 83.6329C89.2716 83.7031 89.1507 83.778 89.031 83.8551C88.94 83.9127 88.8513 83.9703 88.7638 84.0324C88.6487 84.1154 88.5335 84.2017 88.4184 84.2904C88.3355 84.3549 88.2526 84.4182 88.1731 84.4861C88.058 84.5817 87.9532 84.683 87.8461 84.7844C87.7724 84.8523 87.6987 84.9191 87.6285 84.9905C87.5133 85.1056 87.4143 85.2208 87.3095 85.3359C87.2508 85.4039 87.1943 85.4683 87.1333 85.5374C87.0113 85.6871 86.8973 85.8426 86.7879 85.998C86.7568 86.0441 86.7211 86.0855 86.69 86.1316C86.5518 86.3366 86.4233 86.548 86.3042 86.7661C86.2697 86.8283 86.2421 86.8939 86.2098 86.9572C86.1281 87.1161 86.0475 87.2762 85.9795 87.4408C85.9427 87.5284 85.9116 87.6182 85.8759 87.708C85.8195 87.8531 85.7607 87.9982 85.7147 88.1479C85.6824 88.2469 85.656 88.3494 85.6283 88.4507C85.588 88.5946 85.5489 88.7374 85.5132 88.8836C85.489 88.9919 85.4706 89.1001 85.451 89.2107C85.4349 89.2982 85.413 89.3834 85.4003 89.4721H78.4085V77.9653H100.287C102.195 77.9653 103.741 79.5119 103.741 81.4197V89.4801Z" fill="#35AA0C"/>
</svg>
