<svg width="143" height="144" viewBox="0 0 143 144" fill="none" xmlns="http://www.w3.org/2000/svg">
<circle cx="71.4997" cy="71.8127" r="71.5002" fill="#EEF3FF"/>
<path d="M107.14 85.7674H105.494L101.194 81.9457C99.1026 80.0862 96.6049 78.8018 93.9305 78.1454V42.0737C93.9305 41.5128 93.4763 41.0576 92.9143 41.0576H50.2368C49.6749 41.0576 49.2207 41.5128 49.2207 42.0737V103.042C49.2207 103.603 49.6749 104.058 50.2368 104.058H92.9143C93.4763 104.058 93.9305 103.603 93.9305 103.042V95.9287H96.0654C96.5379 98.2445 98.5894 99.9932 101.043 99.9932C103.497 99.9932 105.549 98.2445 106.021 95.9287H111.205C111.767 95.9287 112.221 95.4735 112.221 94.9126V90.848C112.221 88.0466 109.942 85.7674 107.14 85.7674ZM102.435 85.7674H90.8821V79.7173C94.1957 79.9419 97.3467 81.2446 99.8444 83.4648L102.435 85.7674ZM88.8498 85.7674H77.2964L79.8865 83.4648C82.3842 81.2446 85.5352 79.9419 88.8488 79.7173V85.7674H88.8498ZM91.8982 102.025H51.253V43.0899H91.8982V77.7745C91.2265 77.6942 90.5498 77.6383 89.8659 77.6383C85.6856 77.6383 81.6617 79.1676 78.5381 81.9457L74.1891 85.8121C71.5939 86.0367 69.5433 88.1959 69.5433 90.848V94.9126C69.5433 95.4735 69.9975 95.9287 70.5595 95.9287H73.7105C74.183 98.2445 76.2345 99.9932 78.6885 99.9932C81.1425 99.9932 83.194 98.2445 83.6665 95.9287H91.8982V102.025ZM75.6401 94.9126C75.6401 93.2319 77.0078 91.8642 78.6885 91.8642C80.3692 91.8642 81.7369 93.2319 81.7369 94.9126C81.7369 96.5932 80.3692 97.961 78.6885 97.961C77.0078 97.961 75.6401 96.5932 75.6401 94.9126ZM101.043 97.961C99.3627 97.961 97.995 96.5932 97.995 94.9126C97.995 93.2319 99.3627 91.8642 101.043 91.8642C102.724 91.8642 104.092 93.2319 104.092 94.9126C104.092 96.5932 102.724 97.961 101.043 97.961ZM110.189 93.8964H106.021C105.549 91.5807 103.497 89.8319 101.043 89.8319C98.5894 89.8319 96.5379 91.5807 96.0654 93.8964H83.6665C83.194 91.5807 81.1425 89.8319 78.6885 89.8319C76.2345 89.8319 74.183 91.5807 73.7105 93.8964H71.5756V90.848C71.5756 89.1674 72.9433 87.7996 74.624 87.7996H107.14C108.821 87.7996 110.189 89.1674 110.189 90.848V93.8964Z" fill="#35AA0C"/>
<path d="M70.6551 75.1973L71.0127 75.4351C71.1824 75.5489 71.3796 75.6058 71.5757 75.6058C71.7718 75.6058 71.9689 75.5489 72.1396 75.4351L72.4973 75.1973C80.1914 70.0669 84.7854 61.4836 84.7854 52.2348C84.7854 51.8497 84.5679 51.4981 84.2234 51.3253L72.0299 45.2285C71.7443 45.0853 71.407 45.0853 71.1204 45.2285L58.9269 51.3253C58.5834 51.4981 58.366 51.8497 58.366 52.2348C58.366 61.4836 62.9599 70.0669 70.6551 75.1973ZM71.5757 47.274L82.745 52.8587C82.5458 61.1046 78.4071 68.7174 71.5757 73.3672C64.7442 68.7174 60.6055 61.1046 60.4064 52.8587L71.5757 47.274Z" fill="#35AA0C"/>
<path d="M78.6885 59.3478C78.6885 58.0146 78.3135 56.7709 77.6723 55.7039L79.4069 53.9694L77.9701 52.5326L76.3829 54.1198C75.1147 52.9543 73.43 52.2349 71.5756 52.2349C67.6543 52.2349 64.4626 55.4255 64.4626 59.3478C64.4626 63.27 67.6543 66.4607 71.5756 66.4607C75.4968 66.4607 78.6885 63.27 78.6885 59.3478ZM66.4949 59.3478C66.4949 56.5463 68.7741 54.2671 71.5756 54.2671C72.8691 54.2671 74.0376 54.7681 74.9359 55.5668L71.5756 58.9271L70.2617 57.6132L68.8249 59.0501L70.8572 61.0823C71.0553 61.2805 71.3154 61.38 71.5756 61.38C71.8357 61.38 72.0958 61.2805 72.294 61.0823L76.1675 57.2088C76.4733 57.8612 76.6562 58.5816 76.6562 59.3478C76.6562 62.1493 74.377 64.4284 71.5756 64.4284C68.7741 64.4284 66.4949 62.1493 66.4949 59.3478Z" fill="#35AA0C"/>
<path d="M55.3174 79.6704H77.6723V77.6382H54.3013C53.7394 77.6382 53.2852 78.0934 53.2852 78.6543V98.9769C53.2852 99.5378 53.7394 99.9931 54.3013 99.9931H69.5433V97.9608H55.3174V79.6704Z" fill="#35AA0C"/>
<path d="M57.3496 81.7026H74.6238V83.7349H57.3496V81.7026Z" fill="#35AA0C"/>
<path d="M57.3496 85.7671H67.5109V87.7994H57.3496V85.7671Z" fill="#35AA0C"/>
<path d="M57.3496 89.8318H67.5109V91.864H57.3496V89.8318Z" fill="#35AA0C"/>
<path d="M57.3496 93.8965H67.5109V95.9287H57.3496V93.8965Z" fill="#35AA0C"/>
</svg>
