<svg width="93" height="143" viewBox="0 0 93 143" fill="none" xmlns="http://www.w3.org/2000/svg">
<path d="M32.4118 94.2396C32.4118 88.4722 34.1158 82.9669 37.5238 77.7237C41.063 72.4806 44.8643 68.286 48.9277 65.1402C52.9911 61.8632 56.7269 58.0619 60.1349 53.7363C63.674 49.4107 65.4436 45.0851 65.4436 40.7595C65.4436 36.1718 63.8707 32.6326 60.7248 30.1421C57.5789 27.6516 53.1877 26.4064 47.5514 26.4064C36.5407 26.4064 28.7416 32.2394 24.1538 43.9054L0.952881 30.5354C4.88524 20.8356 11.1115 13.3641 19.6316 8.12091C28.2828 2.74669 37.9171 0.0595703 48.5345 0.0595703C60.4626 0.0595703 70.7523 3.53316 79.4035 10.4803C88.1858 17.2964 92.5769 26.7341 92.5769 38.7933C92.5769 44.2986 91.3972 49.4107 89.0378 54.1295C86.8094 58.8484 84.0568 62.9118 80.7798 66.3199C77.6339 69.5968 74.4225 72.7427 71.1455 75.7575C67.9996 78.6413 65.247 81.6561 62.8876 84.802C60.6592 87.9478 59.5451 91.0937 59.5451 94.2396H32.4118ZM57.7755 138.085C54.4985 141.362 50.5662 143.001 45.9784 143.001C41.3907 143.001 37.4583 141.362 34.1813 138.085C30.9044 134.808 29.2659 130.876 29.2659 126.288C29.2659 121.701 30.9044 117.768 34.1813 114.491C37.4583 111.214 41.3907 109.576 45.9784 109.576C50.5662 109.576 54.4985 111.214 57.7755 114.491C61.0525 117.768 62.6909 121.701 62.6909 126.288C62.6909 130.876 61.0525 134.808 57.7755 138.085Z" fill="#EEF3FF"/>
</svg>
