<svg width="106" height="68" viewBox="0 0 106 68" fill="none" xmlns="http://www.w3.org/2000/svg">
<path d="M30.5906 0.140625L36.2819 10.8118C31.7763 12.4717 28.5749 14.7245 26.6778 17.5702C25.0179 20.4158 24.1879 21.8386 24.1879 21.8386C24.1879 21.8386 25.3736 22.0757 27.745 22.55C30.1163 22.7872 32.7248 23.6171 35.5705 25.0399C38.6532 26.4628 41.3803 28.7156 43.7517 31.7983C46.123 34.644 47.3087 38.6753 47.3087 43.8923C47.3087 50.5321 44.9373 56.2234 40.1946 60.9661C35.689 65.4717 30.2349 67.6059 23.8322 67.3688C17.1924 67.1317 11.5011 64.5232 6.75839 59.5433C2.2528 54.3263 0 48.0422 0 40.691C0 31.4426 2.84564 23.2614 8.53691 16.1473C14.2282 8.7961 21.5794 3.46053 30.5906 0.140625ZM89.2818 0.140625L94.9731 10.8118C90.4675 12.4717 87.2662 14.7245 85.3691 17.5702C83.7091 20.4158 82.8792 21.8386 82.8792 21.8386C82.8792 21.8386 84.0648 22.0757 86.4362 22.55C88.8076 22.7872 91.4161 23.6171 94.2617 25.0399C97.3445 26.4628 100.072 28.7156 102.443 31.7983C104.814 34.644 106 38.6753 106 43.8923C106 50.5321 103.629 56.2234 98.8859 60.9661C94.3803 65.4717 88.9261 67.6059 82.5235 67.3688C75.8836 67.1317 70.1924 64.5232 65.4496 59.5433C60.9441 54.3263 58.6913 48.0422 58.6913 40.691C58.6913 31.4426 61.5369 23.2614 67.2282 16.1473C72.9194 8.7961 80.2707 3.46053 89.2818 0.140625Z" fill="#EEF3FF"/>
</svg>
