<svg width="47" height="43" viewBox="0 0 47 43" fill="none" xmlns="http://www.w3.org/2000/svg">
<path d="M32.468 6.02439C32.2228 5.77419 31.821 5.76999 31.571 6.01552C31.3208 6.26074 31.3166 6.66239 31.5621 6.91259C33.9397 9.33815 35.2492 12.5449 35.2492 15.9421V22.0325C35.2492 29.1455 29.4624 34.9324 22.3493 34.9324H14.9055C14.7373 34.9324 14.5759 34.9993 14.4569 35.1182L9.44953 40.1256V34.4395C9.44953 34.1874 9.30013 33.9591 9.06916 33.8582C4.36711 31.8036 1.32894 27.1618 1.32894 22.0325V15.9421C1.32894 8.82913 7.11575 3.04224 14.2288 3.04224H22.3494C24.8845 3.04224 27.3379 3.77702 29.4443 5.16681C29.7368 5.35988 30.1303 5.27909 30.3233 4.98671C30.5162 4.69418 30.4356 4.30076 30.1432 4.10777C27.8285 2.58069 25.1336 1.77344 22.3493 1.77344H14.2287C6.41619 1.77344 0.0600586 8.12956 0.0600586 15.9421V22.0325C0.0600586 27.5264 3.23369 32.5113 8.18064 34.848V41.6572C8.18064 42.2092 8.87182 42.4975 9.26374 42.1059L15.1683 36.2013H22.3494C30.1619 36.2013 36.5181 29.8451 36.5181 22.0326V15.9422C36.518 12.2108 35.0797 8.68852 32.468 6.02439Z" fill="white"/>
<path d="M28.4646 26.9628L27.8561 23.6669C27.809 23.4116 27.6111 23.2108 27.3567 23.1599L22.5716 22.203C22.3637 22.1615 22.1487 22.2265 21.9986 22.3765L20.0339 24.3412C16.7225 22.8631 14.8927 21.0296 13.2809 17.5763L15.2396 15.6177C15.3895 15.4677 15.4546 15.2527 15.4131 15.0446L14.4562 10.2595C14.4052 10.005 14.2045 9.80714 13.9492 9.76006L10.6534 9.15173C10.5687 9.1359 10.4817 9.13788 10.3977 9.15695C9.53525 9.35287 8.74825 9.78751 8.12188 10.414C7.03752 11.4984 6.62329 13.0828 6.92429 14.9957C7.06134 15.8666 7.26501 16.7689 7.52969 17.6775C7.62781 18.014 7.98048 18.2068 8.31629 18.1092C8.65274 18.0112 8.84597 17.6591 8.74801 17.3226C8.49828 16.4655 8.30648 15.6163 8.17782 14.7984C7.93917 13.2814 8.22221 12.1081 9.01926 11.311C9.44662 10.8836 9.97622 10.5786 10.5573 10.4241L13.2964 10.9298L14.1025 14.9605L12.0725 16.9905C11.8866 17.1765 11.8346 17.4577 11.9417 17.6978C13.7872 21.8307 15.9522 23.994 19.9296 25.6793C20.1679 25.7801 20.4431 25.7265 20.6258 25.5438L22.6558 23.5137L26.6865 24.3199L27.1922 27.0589C27.0377 27.6399 26.7327 28.1695 26.3054 28.597C25.5081 29.3939 24.3346 29.677 22.8177 29.4382C19.7851 28.9611 15.5783 27.4887 12.8673 24.7884L12.8282 24.7494C11.5811 23.4972 10.4694 21.7702 9.61366 19.7549C9.47661 19.4324 9.10424 19.2821 8.78172 19.419C8.4592 19.5559 8.30878 19.9284 8.44574 20.2509C9.36433 22.4138 10.569 24.2789 11.9317 25.6474L11.9709 25.6864C14.898 28.6019 19.3913 30.1836 22.6204 30.6916C23.0257 30.7553 23.416 30.7871 23.7902 30.7871C25.1821 30.7871 26.3475 30.3486 27.2023 29.494C27.8287 28.8675 28.2634 28.0805 28.4592 27.2182C28.4785 27.1344 28.4803 27.0474 28.4646 26.9628Z" fill="white"/>
<path d="M19.6423 13.2783C19.2918 13.2783 19.0078 13.5623 19.0078 13.9128C19.0078 14.2632 19.2918 14.5472 19.6423 14.5472C21.1582 14.5472 22.3914 15.7804 22.3914 17.2963C22.3914 17.642 22.6801 17.9308 23.0258 17.9308C23.3715 17.9308 23.6603 17.642 23.6603 17.2963C23.6603 15.0808 21.8577 13.2783 19.6423 13.2783Z" fill="white"/>
<path d="M19.6428 10.5713C19.394 10.5713 19.1428 10.5851 18.8964 10.6122C18.5482 10.6507 18.297 10.9642 18.3354 11.3124C18.3739 11.6606 18.6871 11.9108 19.0356 11.8734C19.236 11.8513 19.4402 11.84 19.6427 11.84C22.6511 11.84 25.0987 14.2876 25.0987 17.296C25.0987 17.4986 25.0874 17.7028 25.0653 17.9031C25.027 18.2515 25.2781 18.565 25.6264 18.6034C25.97 18.6405 26.2886 18.3867 26.3265 18.0424C26.3537 17.796 26.3675 17.5448 26.3675 17.296C26.3676 13.588 23.3509 10.5713 19.6428 10.5713Z" fill="white"/>
<path d="M19.6429 7.86523C19.402 7.86523 19.1583 7.87449 18.9182 7.89261C18.5689 7.91912 18.3071 8.22376 18.3336 8.57319C18.3602 8.92261 18.6634 9.18381 19.0142 9.15778C19.2224 9.14195 19.434 9.13404 19.643 9.13404C24.144 9.13404 27.8058 12.7959 27.8058 17.2969C27.8058 17.9338 27.7323 18.5677 27.5874 19.1811C27.5088 19.5135 27.7169 19.8562 28.0471 19.9414C28.3865 20.0289 28.7416 19.8137 28.8221 19.473C28.9896 18.764 29.0745 18.032 29.0745 17.2969C29.0746 12.0963 24.8435 7.86523 19.6429 7.86523Z" fill="white"/>
</svg>
